{
.appVersion = "1342";
copyright = "(c)2007-2009 Das Ende der wildnis (http://heiden.daynight.jp/), (c)2008-2020 Gutenberg Labo (http://gutenberg.osdn.jp/), (c)2019-2020, Gutenberg Labo (https://github.com/Gutenberg-Labo)";
customParameters = (
{
name = vendorID;
value = CLP;
},
{
name = license;
value = "This Font Software is licensed under the SIL Open Font License, Version 1.1. This license is available with a FAQ at: http://scripts.sil.org/OFL";
},
{
name = licenseURL;
value = "http://scripts.sil.org/OFL";
},
{
name = ROS;
value = "Adobe-Identity-0";
},
{
name = fsType;
value = (
);
},
{
name = "Use Typo Metrics";
value = 1;
},
{
name = "Disable Last Change";
value = 1;
},
{
name = "Use Line Breaks";
value = 1;
}
);
date = "2020-11-08 14:15:59 +0000";
designer = "Das Ende der Wildnis";
designerURL = "http://heiden.daynight.jp/";
familyName = Otomanopee;
featurePrefixes = (
{
automatic = 1;
code = "languagesystem DFLT dflt;
";
name = Languagesystems;
}
);
features = (
{
automatic = 1;
code = "feature sups;
feature frac;
feature ordn;
feature fwid;
feature hwid;
feature vert;
feature vkna;
feature vrt2;
feature cv01;
";
name = aalt;
},
{
automatic = 1;
code = "sub one by onesuperior;
sub two by twosuperior;
sub three by threesuperior;
sub four by foursuperior;
";
name = sups;
},
{
automatic = 1;
code = "sub one slash four by onequarter;
sub one slash two by onehalf;
sub three slash four by threequarters;
";
name = frac;
},
{
automatic = 1;
code = "sub [zero one two three four five six seven eight nine] [A a]' by ordfeminine;
sub [zero one two three four five six seven eight nine] [O o]' by ordmasculine;
";
name = ordn;
},
{
automatic = 1;
code = "lookupflag IgnoreMarks;
sub f i by fi.rotat;
sub f l by fl.rotat;
";
name = dlig;
},
{
automatic = 1;
code = "lookupflag IgnoreMarks;
sub f i by fi;
sub f l by fl;
";
name = liga;
},
{
automatic = 1;
code = "sub A by A.full;
sub B by B.full;
sub C by C.full;
sub D by D.full;
sub E by E.full;
sub F by F.full;

glyphs = (
{
glyphname = A;
layers = (
{
anchors = (
{
name = bottom;
position = "{670, 20}";
},
{
name = top;
position = "{380, 880}";
}
);
layerId = "F446C85F-564E-4F2C-825C-C389DAA66B11";
paths = (
{
closed = 1;
nodes = (
"591 -10 OFFCURVE",
"657 -4 OFFCURVE",
"735 10 CURVE",
"638 309 OFFCURVE",
"544 572 OFFCURVE",
"463 770 CURVE",
"399 770 OFFCURVE",
"336 765 OFFCURVE",
"287 760 CURVE",
"183 517 OFFCURVE",
"89 256 OFFCURVE",
"15 4 CURVE",
"135 -4 LINE",
"217 306 OFFCURVE",
"287 544 OFFCURVE",
"328 653 CURVE",
"378 513 OFFCURVE",
"462 223 OFFCURVE",
"521 -10 CURVE"
);
},
{
closed = 1;
nodes = (
"367 156 OFFCURVE",
"436 161 OFFCURVE",
"506 171 CURVE",
"491 253 LINE",
"461 250 OFFCURVE",
"420 249 OFFCURVE",
"380 249 CURVE SMOOTH",
"283 249 OFFCURVE",
"208 255 OFFCURVE",
"130 270 CURVE",
"125 163 LINE",
"182 158 OFFCURVE",
"239 156 OFFCURVE",
"289 156 CURVE SMOOTH"
);
}
);
width = 750;
}
);
leftKerningGroup = A;
rightKerningGroup = A;
unicode = 0041;
},
{
glyphname = AE;
layers = (
{
layerId = "F446C85F-564E-4F2C-825C-C389DAA66B11";
paths = (
{
closed = 1;
nodes = (
"229 183 OFFCURVE",
"384 494 OFFCURVE",
"480 663 CURVE",
"469 662 LINE",
"483 517 OFFCURVE",
"492 265 OFFCURVE",
"492 5 CURVE",
"694 5 OFFCURVE",
"855 1 OFFCURVE",
"949 -5 CURVE",
"954 98 LINE",
"682 85 LINE",
"679 173 OFFCURVE",
"677 427 OFFCURVE",
"677 671 CURVE",
"955 658 LINE",
"951 758 LINE",
"889 756 OFFCURVE",
"602 754 OFFCURVE",
"456 754 CURVE",
"308 540 OFFCURVE",
"134 245 OFFCURVE",
"15 8 CURVE",
"145 -8 LINE"
);
},
{
closed = 1;
nodes = (
"418 143 OFFCURVE",
"470 147 OFFCURVE",
"546 156 CURVE",
"560 230 LINE",
"428 238 OFFCURVE",
"339 251 OFFCURVE",
"242 277 CURVE",
"207 148 LINE",
"278 144 OFFCURVE",
"319 143 OFFCURVE",
"352 143 CURVE SMOOTH"
);
},
{
closed = 1;
nodes = (
"936 442 LINE",
"626 421 LINE",
"626 339 LINE",
"928 328 LINE"
);
}
);
width = 985;
}
);
leftKerningGroup = AE;
leftMetricsKey = A;
rightKerningGroup = E;
rightMetricsKey = E;
unicode = 00C6;
},
{
glyphname = B;
layers = (
{
layerId = "F446C85F-564E-4F2C-825C-C389DAA66B11";
paths = (
{
closed = 1;
nodes = (
"438 -5 OFFCURVE",
"604 93 OFFCURVE",
"604 228 CURVE SMOOTH",
"604 318 OFFCURVE",
"530 396 OFFCURVE",
"417 427 CURVE",
"513 466 OFFCURVE",
"561 521 OFFCURVE",
"561 592 CURVE SMOOTH",
"561 702 OFFCURVE",
"445 765 OFFCURVE",
"245 765 CURVE SMOOTH",
"189 765 OFFCURVE",
"122 760 OFFCURVE",
"50 752 CURVE",
"50 543 OFFCURVE",
"55 98 OFFCURVE",
"59 5 CURVE",
"110 -2 OFFCURVE",
"161 -5 OFFCURVE",
"202 -5 CURVE SMOOTH"
);
},
{
closed = 1;
nodes = (
"213 216 OFFCURVE",
"207 426 OFFCURVE",
"207 692 CURVE",
"311 692 OFFCURVE",
"399 634 OFFCURVE",
"399 565 CURVE SMOOTH",
"399 497 OFFCURVE",
"312 437 OFFCURVE",
"193 423 CURVE",
"195 370 LINE",
"313 362 OFFCURVE",
"427 275 OFFCURVE",
"427 193 CURVE SMOOTH",
"427 121 OFFCURVE",
"332 66 OFFCURVE",
"225 66 CURVE"
);
}
);
width = 624;
}
);
leftKerningGroup = H;
rightKerningGroup = B;
unicode = 0042;
},
{
glyphname = C;
layers = (
{
anchors = (
{
name = bottom;
position = "{360, 0}";
}
);
layerId = "F446C85F-564E-4F2C-825C-C389DAA66B11";
paths = (
{
closed = 1;
nodes = (
"497 -5 OFFCURVE",
"599 42 OFFCURVE",
"680 134 CURVE",
"587 207 LINE",
"549 138 OFFCURVE",
"476 87 OFFCURVE",
"417 87 CURVE SMOOTH",
"307 87 OFFCURVE",
"197 268 OFFCURVE",
"197 448 CURVE SMOOTH",
"197 585 OFFCURVE",
"261 673 OFFCURVE",
"359 673 CURVE SMOOTH",
"432 673 OFFCURVE",
"492 624 OFFCURVE",
"544 522 CURVE",
"587 545 OFFCURVE",
"632 585 OFFCURVE",
"680 641 CURVE",
"621 717 OFFCURVE",
"515 765 OFFCURVE",
"402 765 CURVE SMOOTH",
"185 765 OFFCURVE",
"20 589 OFFCURVE",
"20 359 CURVE SMOOTH",
"20 143 OFFCURVE",
"166 -5 OFFCURVE",
"378 -5 CURVE SMOOTH"
);
}
);
width = 690;
}
);
leftKerningGroup = O;
rightKerningGroup = C;
unicode = 0043;
},
{
glyphname = D;
layers = (
{
layerId = "F446C85F-564E-4F2C-825C-C389DAA66B11";
paths = (
{
closed = 1;
nodes = (
"493 -5 OFFCURVE",
"670 133 OFFCURVE",
"670 392 CURVE SMOOTH",
"670 637 OFFCURVE",
"511 765 OFFCURVE",
"205 765 CURVE SMOOTH",
"158 765 OFFCURVE",
"109 762 OFFCURVE",
"57 755 CURVE",
"52 603 OFFCURVE",
"50 291 OFFCURVE",
"50 0 CURVE",
"90 -3 OFFCURVE",
"133 -5 OFFCURVE",
"172 -5 CURVE SMOOTH"
);
},
{
closed = 1;
nodes = (
"227 239 OFFCURVE",
"230 594 OFFCURVE",
"233 684 CURVE",
"410 667 OFFCURVE",
"493 561 OFFCURVE",
"493 352 CURVE SMOOTH",
"493 155 OFFCURVE",
"417 78 OFFCURVE",
"227 78 CURVE"
);
}
);
width = 690;
}
);
leftKerningGroup = H;
rightKerningGroup = O;
unicode = 0044;
},
{
glyphname = Eth;
layers = (
{
components = (
{
name = D;
transform = "{1, 0, 0, 1, 60, 0}";
}
);
layerId = "F446C85F-564E-4F2C-825C-C389DAA66B11";
paths = (
{
closed = 1;
nodes = (
"409 346 LINE",
"406 426 LINE",
"14 439 LINE",
"10 333 LINE"
);
}
);
width = 750;
}
);
leftKerningGroup = Eth;
rightKerningGroup = O;
rightMetricsKey = D;
unicode = 00D0;
},
{
glyphname = E;
layers = (
{
anchors = (
{
name = bottom;
position = "{540, 20}";
},
{
name = top;
position = "{328, 880}";
}
);
layerId = "F446C85F-564E-4F2C-825C-C389DAA66B11";
paths = (
{
closed = 1;
nodes = (
"606 103 LINE",
"257 91 LINE",
"252 236 OFFCURVE",
"250 456 OFFCURVE",
"250 665 CURVE",
"607 653 LINE",
"603 760 LINE",
"480 755 OFFCURVE",
"196 750 OFFCURVE",
"50 750 CURVE",
"50 634 OFFCURVE",
"68 117 OFFCURVE",
"76 5 CURVE",
"326 5 OFFCURVE",
"531 1 OFFCURVE",
"602 -5 CURVE"
);
},
{
closed = 1;
nodes = (
"587 438 LINE",
"187 425 LINE",
"187 345 LINE",
"583 328 LINE"
);
}
);
width = 637;
}
);
leftKerningGroup = H;
rightKerningGroup = E;
unicode = 0045;
},
{
glyphname = F;
layers = (
{
layerId = "F446C85F-564E-4F2C-825C-C389DAA66B11";
paths = (
{
closed = 1;
nodes = (
"250 206 OFFCURVE",
"246 438 OFFCURVE",
"238 676 CURVE",
"576 662 LINE",
"580 760 LINE",
"484 755 OFFCURVE",
"241 750 OFFCURVE",
"59 750 CURVE",
"56 657 OFFCURVE",
"50 162 OFFCURVE",
"50 2 CURVE",
"250 -5 LINE"
);
},
{
closed = 1;
nodes = (
"565 474 LINE",
"191 462 LINE",
"197 387 LINE",
"558 366 LINE"
);
}
);
width = 610;
}
);
leftKerningGroup = H;
rightKerningGroup = F;
unicode = 0046;
},
{
glyphname = G;
layers = (
{
layerId = "F446C85F-564E-4F2C-825C-C389DAA66B11";
paths = (
{
closed = 1;
nodes = (
"472 -5 OFFCURVE",
"590 40 OFFCURVE",
"665 110 CURVE",
"665 217 OFFCURVE",
"660 341 OFFCURVE",
"654 383 CURVE",
"482 383 LINE",
"490 316 OFFCURVE",
"501 191 OFFCURVE",
"504 134 CURVE",
"498 105 OFFCURVE",
"460 83 OFFCURVE",
"415 83 CURVE SMOOTH",
"296 83 OFFCURVE",
"196 242 OFFCURVE",
"196 433 CURVE SMOOTH",
"196 587 OFFCURVE",
"262 678 OFFCURVE",
"373 678 CURVE SMOOTH",
"455 678 OFFCURVE",
"521 629 OFFCURVE",
"567 534 CURVE",
"613 565 OFFCURVE",
"656 604 OFFCURVE",
"700 654 CURVE",
"647 722 OFFCURVE",
"540 765 OFFCURVE",
"422 765 CURVE SMOOTH",
"188 765 OFFCURVE",
"20 597 OFFCURVE",
"20 363 CURVE SMOOTH",
"20 147 OFFCURVE",
"162 -5 OFFCURVE",
"363 -5 CURVE SMOOTH"
);
},
{
closed = 1;
nodes = (
"728 416 LINE",
"632 411 OFFCURVE",
"500 408 OFFCURVE",
"360 408 CURVE",
"363 332 LINE",
"422 327 OFFCURVE",
"562 324 OFFCURVE",
"725 324 CURVE"
);
}
);
width = 748;
}
);
leftKerningGroup = O;
rightKerningGroup = G;
unicode = 0047;
},
{
glyphname = H;
layers = (
{
layerId = "F446C85F-564E-4F2C-825C-C389DAA66B11";
paths = (
{
closed = 1;
nodes = (
"690 212 OFFCURVE",
"689 536 OFFCURVE",
"681 758 CURVE",
"622 758 OFFCURVE",
"563 756 OFFCURVE",
"505 752 CURVE",
"505 431 OFFCURVE",
"504 139 OFFCURVE",
"499 2 CURVE",
"560 -1 OFFCURVE",
"620 -2 OFFCURVE",
"690 -2 CURVE"
);
},
{
closed = 1;
nodes = (
"122 -2 OFFCURVE",
"181 -1 OFFCURVE",
"240 2 CURVE",
"232 206 OFFCURVE",
"228 461 OFFCURVE",
"228 752 CURVE",
"185 755 OFFCURVE",
"134 756 OFFCURVE",
"57 756 CURVE",
"51 581 OFFCURVE",
"50 279 OFFCURVE",
"50 -2 CURVE"
);
},
{
closed = 1;
nodes = (
"539 436 LINE",
"425 428 OFFCURVE",
"312 424 OFFCURVE",
"201 424 CURVE",
"210 337 LINE",
"283 332 OFFCURVE",
"377 330 OFFCURVE",
"531 330 CURVE"
);
}
);
width = 740;
}
);
leftKerningGroup = H;
rightKerningGroup = H;
unicode = 0048;
},
{
glyphname = I;
layers = (
{
anchors = (
{
name = bottom;
position = "{224, 20}";
},
{
name = top;
position = "{180, 880}";
}
);
layerId = "F446C85F-564E-4F2C-825C-C389DAA66B11";
paths = (
{
closed = 1;
nodes = (
"143 -1 OFFCURVE",
"218 -1 OFFCURVE",
"290 2 CURVE",
"281 104 OFFCURVE",
"276 233 OFFCURVE",
"276 415 CURVE SMOOTH",
"276 497 OFFCURVE",
"277 629 OFFCURVE",
"281 753 CURVE",
"255 756 OFFCURVE",
"218 757 OFFCURVE",
"182 757 CURVE SMOOTH",
"137 757 OFFCURVE",
"95 755 OFFCURVE",
"79 753 CURVE",
"81 699 OFFCURVE",
"82 577 OFFCURVE",
"82 493 CURVE SMOOTH",
"82 325 OFFCURVE",
"78 161 OFFCURVE",
"70 -1 CURVE"
);
}
);
width = 360;
}
);
leftKerningGroup = I;
rightKerningGroup = I;
unicode = 0049;
},
{
glyphname = J;
layers = (
{
layerId = "F446C85F-564E-4F2C-825C-C389DAA66B11";
paths = (
{
closed = 1;
nodes = (
"478 -5 OFFCURVE",
"536 106 OFFCURVE",
"536 582 CURVE SMOOTH",
"536 645 OFFCURVE",
"535 730 OFFCURVE",
"534 758 CURVE",
"467 758 OFFCURVE",
"400 756 OFFCURVE",
"333 752 CURVE",
"336 659 OFFCURVE",
"338 564 OFFCURVE",
"338 478 CURVE SMOOTH",
"338 155 OFFCURVE",
"310 79 OFFCURVE",
"227 79 CURVE SMOOTH",
"193 79 OFFCURVE",
"145 92 OFFCURVE",
"31 132 CURVE",
"10 54 LINE",
"86 16 OFFCURVE",
"178 -5 OFFCURVE",
"269 -5 CURVE SMOOTH"
);
}
);
width = 586;
}
);
leftKerningGroup = J;
rightKerningGroup = U;
unicode = 004A;
},
{
glyphname = K;
layers = (
{
layerId = "F446C85F-564E-4F2C-825C-C389DAA66B11";
paths = (
{
closed = 1;
nodes = (
"379 397 OFFCURVE",
"542 573 OFFCURVE",
"666 740 CURVE",
"530 770 LINE",
"401 573 OFFCURVE",
"279 417 OFFCURVE",
"141 273 CURVE",
"187 222 LINE"
);
},
{
closed = 1;
nodes = (
"226 2 LINE",
"226 219 OFFCURVE",
"228 547 OFFCURVE",
"235 753 CURVE",
"55 759 LINE",
"51 655 OFFCURVE",
"50 152 OFFCURVE",
"50 -4 CURVE"
);
},
{
closed = 1;
nodes = (
"556 -5 OFFCURVE",
"624 1 OFFCURVE",
"695 13 CURVE",
"626 188 OFFCURVE",
"536 375 OFFCURVE",
"454 513 CURVE",
"309 431 LINE",
"376 292 OFFCURVE",
"445 118 OFFCURVE",
"482 -5 CURVE"
);
}
);
width = 710;
}
);
leftKerningGroup = H;
rightKerningGroup = K;
unicode = 004B;
},
{
glyphname = L;
layers = (
{
layerId = "F446C85F-564E-4F2C-825C-C389DAA66B11";
paths = (
{
closed = 1;
nodes = (
"622 83 LINE",
"523 78 OFFCURVE",
"386 74 OFFCURVE",
"248 74 CURVE",
"255 271 OFFCURVE",
"258 560 OFFCURVE",
"258 756 CURVE",
"163 756 OFFCURVE",
"81 755 OFFCURVE",
"50 754 CURVE",
"50 519 OFFCURVE",
"55 275 OFFCURVE",
"67 0 CURVE",
"326 0 OFFCURVE",
"564 -2 OFFCURVE",
"625 -5 CURVE"
);
}
);
width = 640;
}
);
leftKerningGroup = H;
rightKerningGroup = L;
unicode = 004C;
},
{
glyphname = Lslash;
layers = (
{
components = (
{
name = L;
transform = "{1, 0, 0, 1, 82, 0}";
}
);
layerId = "F446C85F-564E-4F2C-825C-C389DAA66B11";
paths = (
{
closed = 1;
nodes = (
"490 465 LINE",
"448 545 LINE",
"10 315 LINE",
"52 235 LINE"
);
}
);
width = 722;
}
);
rightKerningGroup = L;
rightMetricsKey = L;
unicode = 0141;
},
{
glyphname = M;
layers = (
{
layerId = "F446C85F-564E-4F2C-825C-C389DAA66B11";
paths = (
{
closed = 1;
nodes = (
"75 641 OFFCURVE",
"61 214 OFFCURVE",
"50 2 CURVE",
"163 -2 LINE",
"141 580 LINE",
"192 449 OFFCURVE",
"258 296 OFFCURVE",
"334 131 CURVE",
"488 140 LINE",
"554 278 OFFCURVE",
"613 419 OFFCURVE",
"669 576 CURVE",
"669 411 OFFCURVE",
"665 200 OFFCURVE",
"658 -2 CURVE",
"720 -2 OFFCURVE",
"804 0 OFFCURVE",
"850 2 CURVE",
"844 185 OFFCURVE",
"842 578 OFFCURVE",
"842 760 CURVE",
"792 766 OFFCURVE",
"717 771 OFFCURVE",
"645 771 CURVE",
"583 594 OFFCURVE",
"521 439 OFFCURVE",
"452 290 CURVE",
"382 444 OFFCURVE",
"313 622 OFFCURVE",
"267 772 CURVE",
"212 772 OFFCURVE",
"149 767 OFFCURVE",
"75 759 CURVE"
);
}
);
width = 900;
}
);
leftKerningGroup = H;
rightKerningGroup = H;
unicode = 004D;
},
{
glyphname = N;
layers = (
{
anchors = (
{
name = top;
position = "{372, 880}";
}
);
layerId = "F446C85F-564E-4F2C-825C-C389DAA66B11";
paths = (
{
closed = 1;
nodes = (
"90 -1 OFFCURVE",
"130 -3 OFFCURVE",
"166 -3 CURVE",
"140 554 LINE",
"271 366 OFFCURVE",
"405 170 OFFCURVE",
"510 -2 CURVE",
"555 -2 OFFCURVE",
"655 0 OFFCURVE",
"697 2 CURVE",
"703 57 OFFCURVE",
"710 474 OFFCURVE",
"710 753 CURVE",
"671 756 OFFCURVE",
"628 758 OFFCURVE",
"594 758 CURVE",
"616 208 LINE",
"492 414 OFFCURVE",
"371 596 OFFCURVE",
"262 757 CURVE",
"167 757 OFFCURVE",
"104 756 OFFCURVE",
"70 753 CURVE",
"62 640 OFFCURVE",
"50 182 OFFCURVE",
"50 3 CURVE"
);
}
);
width = 760;
}
);
leftKerningGroup = H;
rightKerningGroup = H;
unicode = 004E;
},
{
glyphname = O;
layers = (
{
anchors = (
{
name = bottom;
position = "{410, 20}";
},
{
name = top;
position = "{380, 880}";
}
);
layerId = "F446C85F-564E-4F2C-825C-C389DAA66B11";
paths = (
{
closed = 1;
nodes = (
"588 -5 OFFCURVE",
"740 158 OFFCURVE",
"740 380 CURVE SMOOTH",
"740 602 OFFCURVE",
"588 765 OFFCURVE",
"380 765 CURVE SMOOTH",
"172 765 OFFCURVE",
"20 602 OFFCURVE",
"20 380 CURVE SMOOTH",
"20 158 OFFCURVE",
"172 -5 OFFCURVE",
"380 -5 CURVE SMOOTH"
);
},
{
closed = 1;
nodes = (
"287 79 OFFCURVE",
"198 226 OFFCURVE",
"198 415 CURVE SMOOTH",
"198 575 OFFCURVE",
"262 681 OFFCURVE",
"359 681 CURVE SMOOTH",
"473 681 OFFCURVE",
"562 534 OFFCURVE",
"562 345 CURVE SMOOTH",
"562 185 OFFCURVE",
"498 79 OFFCURVE",
"401 79 CURVE SMOOTH"
);
}
);
width = 760;
}
);
leftKerningGroup = O;
rightKerningGroup = O;
unicode = 004F;
},
{
glyphname = Oslash;
layers = (
{
components = (
{
name = O;
}
);
layerId = "F446C85F-564E-4F2C-825C-C389DAA66B11";
paths = (
{
closed = 1;
nodes = (
"705 735 LINE",
"625 790 LINE",
"55 25 LINE",
"135 -30 LINE"
);
}
);
width = 760;
}
);
leftKerningGroup = O;
leftMetricsKey = O;
rightKerningGroup = O;
rightMetricsKey = O;
unicode = 00D8;
},
{
glyphname = OE;
layers = (
{
layerId = "F446C85F-564E-4F2C-825C-C389DAA66B11";
paths = (
{
closed = 1;
nodes = (
"547 -5 OFFCURVE",
"650 137 OFFCURVE",
"650 391 CURVE SMOOTH",
"650 636 OFFCURVE",
"554 765 OFFCURVE",
"370 765 CURVE SMOOTH",
"165 765 OFFCURVE",
"20 605 OFFCURVE",
"20 379 CURVE SMOOTH",
"20 155 OFFCURVE",
"162 -5 OFFCURVE",
"360 -5 CURVE SMOOTH"
);
},
{
closed = 1;
nodes = (
"272 82 OFFCURVE",
"196 222 OFFCURVE",
"196 419 CURVE SMOOTH",
"196 583 OFFCURVE",
"249 678 OFFCURVE",
"339 678 CURVE SMOOTH",
"448 678 OFFCURVE",
"524 538 OFFCURVE",
"524 341 CURVE SMOOTH",
"524 177 OFFCURVE",
"471 82 OFFCURVE",
"381 82 CURVE SMOOTH"
);
},
{
closed = 1;
nodes = (
"959 98 LINE",
"687 85 LINE",
"684 173 OFFCURVE",
"682 427 OFFCURVE",
"682 671 CURVE",
"960 658 LINE",
"956 770 LINE",
"812 764 OFFCURVE",
"468 755 OFFCURVE",
"375 755 CURVE",
"469 686 OFFCURVE",
"537 506 OFFCURVE",
"537 330 CURVE SMOOTH",
"537 177 OFFCURVE",
"486 89 OFFCURVE",
"350 5 CURVE",
"505 5 OFFCURVE",
"778 -2 OFFCURVE",
"954 -10 CURVE"
);
},
{
closed = 1;
nodes = (
"941 442 LINE",
"631 421 LINE",
"631 339 LINE",
"933 328 LINE"
);
}
);
width = 990;
}
);
leftKerningGroup = O;
leftMetricsKey = O;
rightKerningGroup = E;
rightMetricsKey = E;
unicode = 0152;
},
{
glyphname = P;
layers = (
{
layerId = "F446C85F-564E-4F2C-825C-C389DAA66B11";
paths = (
{
closed = 1;
nodes = (
"133 -2 OFFCURVE",
"189 -1 OFFCURVE",
"235 2 CURVE",
"235 261 OFFCURVE",
"228 563 OFFCURVE",
"219 687 CURVE",
"358 687 OFFCURVE",
"445 617 OFFCURVE",
"445 507 CURVE SMOOTH",
"445 400 OFFCURVE",
"364 340 OFFCURVE",
"201 325 CURVE",
"201 247 LINE",
"451 247 OFFCURVE",
"630 364 OFFCURVE",
"630 528 CURVE SMOOTH",
"630 676 OFFCURVE",
"485 766 OFFCURVE",
"249 766 CURVE SMOOTH",
"192 766 OFFCURVE",
"128 761 OFFCURVE",
"50 750 CURVE",
"53 661 OFFCURVE",
"55 365 OFFCURVE",
"55 -2 CURVE"
);
}
);
width = 650;
}
);
leftKerningGroup = H;
rightKerningGroup = P;
unicode = 0050;
},
{
glyphname = Thorn;
layers = (
{
layerId = "F446C85F-564E-4F2C-825C-C389DAA66B11";
paths = (
{
closed = 1;
nodes = (
"468 144 OFFCURVE",
"640 256 OFFCURVE",
"640 423 CURVE SMOOTH",
"640 574 OFFCURVE",
"501 645 OFFCURVE",
"204 645 CURVE",
"199 564 LINE",
"359 564 OFFCURVE",
"455 493 OFFCURVE",
"455 374 CURVE SMOOTH",
"455 270 OFFCURVE",
"382 226 OFFCURVE",
"211 226 CURVE",
"211 144 LINE"
);
},
{
closed = 1;
nodes = (
"90 -2 OFFCURVE",
"165 -1 OFFCURVE",
"227 2 CURVE",
"231 126 OFFCURVE",
"232 523 OFFCURVE",
"232 753 CURVE",
"191 755 OFFCURVE",
"101 757 OFFCURVE",
"50 757 CURVE",
"50 479 OFFCURVE",
"54 141 OFFCURVE",
"59 -2 CURVE"
);
}
);
width = 660;
}
);
leftKerningGroup = H;
unicode = 00DE;
},
{
glyphname = Q;
layers = (
{
layerId = "F446C85F-564E-4F2C-825C-C389DAA66B11";
paths = (
{
closed = 1;
nodes = (
"588 -5 OFFCURVE",
"740 158 OFFCURVE",
"740 380 CURVE SMOOTH",
"740 602 OFFCURVE",
"588 765 OFFCURVE",
"380 765 CURVE SMOOTH",
"172 765 OFFCURVE",
"20 602 OFFCURVE",
"20 380 CURVE SMOOTH",
"20 158 OFFCURVE",
"172 -5 OFFCURVE",
"380 -5 CURVE SMOOTH"
);
},
{
closed = 1;
nodes = (
"603 -41 OFFCURVE",
"683 -13 OFFCURVE",
"730 13 CURVE",
"674 156 OFFCURVE",
"545 259 OFFCURVE",
"422 259 CURVE SMOOTH",
"339 259 OFFCURVE",
"264 212 OFFCURVE",
"213 127 CURVE",
"297 83 LINE",
"321 137 OFFCURVE",
"354 165 OFFCURVE",
"395 165 CURVE SMOOTH",
"457 165 OFFCURVE",
"502 100 OFFCURVE",
"547 -53 CURVE"
);
},
{
closed = 1;
nodes = (
"287 79 OFFCURVE",
"198 226 OFFCURVE",
"198 415 CURVE SMOOTH",
"198 575 OFFCURVE",
"262 681 OFFCURVE",
"359 681 CURVE SMOOTH",
"473 681 OFFCURVE",
"562 534 OFFCURVE",
"562 345 CURVE SMOOTH",
"562 185 OFFCURVE",
"498 79 OFFCURVE",
"401 79 CURVE SMOOTH"
);
}
);
width = 760;
}
);
leftKerningGroup = O;
rightKerningGroup = O;
unicode = 0051;
},
{
glyphname = R;
layers = (
{
layerId = "F446C85F-564E-4F2C-825C-C389DAA66B11";
paths = (
{
closed = 1;
nodes = (
"490 -9 OFFCURVE",
"607 5 OFFCURVE",
"650 13 CURVE",
"619 91 OFFCURVE",
"488 307 OFFCURVE",
"434 370 CURVE",
"540 393 OFFCURVE",
"620 479 OFFCURVE",
"620 569 CURVE SMOOTH",
"620 692 OFFCURVE",
"470 765 OFFCURVE",
"246 765 CURVE SMOOTH",
"187 765 OFFCURVE",
"118 760 OFFCURVE",
"50 750 CURVE",
"53 657 OFFCURVE",
"55 285 OFFCURVE",
"55 2 CURVE",
"103 0 OFFCURVE",
"175 -2 OFFCURVE",
"235 -2 CURVE",
"235 264 OFFCURVE",
"228 568 OFFCURVE",
"219 687 CURVE",
"349 687 OFFCURVE",
"445 621 OFFCURVE",
"445 531 CURVE SMOOTH",
"445 444 OFFCURVE",
"355 390 OFFCURVE",
"211 390 CURVE",
"211 363 LINE",
"282 323 OFFCURVE",
"367 189 OFFCURVE",
"447 -11 CURVE"
);
}
);
width = 665;
}
);
leftKerningGroup = H;
rightKerningGroup = R;
unicode = 0052;
},
{
glyphname = S;
layers = (
{
anchors = (
{
name = top;
position = "{335, 880}";
}
);
layerId = "F446C85F-564E-4F2C-825C-C389DAA66B11";
paths = (
{
closed = 1;
nodes = (
"494 -5 OFFCURVE",
"635 108 OFFCURVE",
"635 241 CURVE SMOOTH",
"635 375 OFFCURVE",
"490 443 OFFCURVE",
"370 499 CURVE SMOOTH",
"284 539 OFFCURVE",
"211 573 OFFCURVE",
"211 621 CURVE SMOOTH",
"211 650 OFFCURVE",
"237 682 OFFCURVE",
"289 682 CURVE SMOOTH",
"360 682 OFFCURVE",
"441 622 OFFCURVE",
"523 545 CURVE",
"561 576 OFFCURVE",
"607 623 OFFCURVE",
"631 668 CURVE",
"557 730 OFFCURVE",
"451 765 OFFCURVE",
"354 765 CURVE SMOOTH",
"183 765 OFFCURVE",
"62 655 OFFCURVE",
"62 546 CURVE SMOOTH",
"62 437 OFFCURVE",
"185 378 OFFCURVE",
"299 324 CURVE SMOOTH",
"397 278 OFFCURVE",
"489 234 OFFCURVE",
"489 164 CURVE SMOOTH",
"489 114 OFFCURVE",
"444 88 OFFCURVE",
"396 88 CURVE SMOOTH",
"316 88 OFFCURVE",
"206 161 OFFCURVE",
"128 245 CURVE",
"83 201 OFFCURVE",
"46 156 OFFCURVE",
"15 112 CURVE",
"87 44 OFFCURVE",
"218 -5 OFFCURVE",
"328 -5 CURVE SMOOTH"
);
}
);
width = 650;
}
);
leftKerningGroup = S;
rightKerningGroup = S;
unicode = 0053;
},
{
glyphname = T;
layers = (
{
layerId = "F446C85F-564E-4F2C-825C-C389DAA66B11";
paths = (
{
closed = 1;
nodes = (
"486 203 OFFCURVE",
"483 576 OFFCURVE",
"479 700 CURVE",
"292 700 LINE",
"288 576 OFFCURVE",
"285 167 OFFCURVE",
"285 2 CURVE",
"341 -1 OFFCURVE",
"435 -2 OFFCURVE",
"486 -2 CURVE"
);
},
{
closed = 1;
nodes = (
"225 658 OFFCURVE",
"568 662 OFFCURVE",
"755 668 CURVE",
"752 752 LINE",
"690 754 OFFCURVE",
"274 758 OFFCURVE",
"19 758 CURVE",
"15 658 LINE"
);
}
);
width = 770;
}
);
leftKerningGroup = T;
rightKerningGroup = T;
unicode = 0054;
},
{
glyphname = U;
layers = (
{
anchors = (
{
name = bottom;
position = "{400, 20}";
},
{
name = top;
position = "{410, 880}";
}
);
layerId = "F446C85F-564E-4F2C-825C-C389DAA66B11";
paths = (
{
closed = 1;
nodes = (
"620 -5 OFFCURVE",
"703 151 OFFCURVE",
"703 614 CURVE SMOOTH",
"703 667 OFFCURVE",
"702 719 OFFCURVE",
"700 758 CURVE",
"581 754 LINE",
"586 636 OFFCURVE",
"588 565 OFFCURVE",
"588 502 CURVE SMOOTH",
"588 203 OFFCURVE",
"544 99 OFFCURVE",
"416 99 CURVE SMOOTH",
"277 99 OFFCURVE",
"229 223 OFFCURVE",
"229 584 CURVE SMOOTH",
"229 636 OFFCURVE",
"230 692 OFFCURVE",
"232 753 CURVE",
"185 756 OFFCURVE",
"120 757 OFFCURVE",
"33 757 CURVE",
"31 728 OFFCURVE",
"30 682 OFFCURVE",
"30 629 CURVE SMOOTH",
"30 159 OFFCURVE",
"119 -5 OFFCURVE",
"372 -5 CURVE SMOOTH"
);
}
);
width = 733;
}
);
leftKerningGroup = U;
rightKerningGroup = U;
unicode = 0055;
},
{
glyphname = V;
layers = (
{
layerId = "F446C85F-564E-4F2C-825C-C389DAA66B11";
paths = (
{
closed = 1;
nodes = (
"463 0 LINE",
"567 240 OFFCURVE",
"661 503 OFFCURVE",
"735 758 CURVE",
"615 766 LINE",
"541 484 OFFCURVE",
"466 226 OFFCURVE",
"422 107 CURVE",
"373 244 OFFCURVE",
"289 531 OFFCURVE",
"229 770 CURVE",
"162 770 OFFCURVE",
"96 764 OFFCURVE",
"15 750 CURVE",
"108 464 OFFCURVE",
"203 197 OFFCURVE",
"287 -10 CURVE"
);
}
);
width = 750;
}
);
leftKerningGroup = V;
rightKerningGroup = V;
unicode = 0056;
},
{
glyphname = W;
layers = (
{
layerId = "F446C85F-564E-4F2C-825C-C389DAA66B11";
paths = (
{
closed = 1;
nodes = (
"430 277 OFFCURVE",
"495 528 OFFCURVE",
"540 750 CURVE",
"408 750 LINE",
"399 639 OFFCURVE",
"361 427 OFFCURVE",
"302 167 CURVE",
"278 301 OFFCURVE",
"247 545 OFFCURVE",
"226 770 CURVE",
"159 770 OFFCURVE",
"87 763 OFFCURVE",
"15 750 CURVE",
"51 488 OFFCURVE",
"103 224 OFFCURVE",
"165 -2 CURVE",
"340 -8 LINE"
);
},
{
closed = 1;
nodes = (
"735 -2 LINE",
"793 222 OFFCURVE",
"848 500 OFFCURVE",
"885 758 CURVE",
"777 766 LINE",
"772 640 OFFCURVE",
"738 382 OFFCURVE",
"696 167 CURVE",
"616 499 OFFCURVE",
"581 657 OFFCURVE",
"566 760 CURVE",
"520 760 OFFCURVE",
"464 756 OFFCURVE",
"408 750 CURVE",
"441 577 OFFCURVE",
"513 274 OFFCURVE",
"589 -8 CURVE"
);
}
);
width = 900;
}
);
leftKerningGroup = W;
rightKerningGroup = W;
unicode = 0057;
},
{
glyphname = X;
layers = (
{
layerId = "F446C85F-564E-4F2C-825C-C389DAA66B11";
paths = (
{
closed = 1;
nodes = (
"576 -6 OFFCURVE",
"655 -1 OFFCURVE",
"715 6 CURVE",
"571 256 OFFCURVE",
"385 546 OFFCURVE",
"230 762 CURVE",
"175 762 OFFCURVE",
"80 756 OFFCURVE",
"15 748 CURVE",
"182 508 OFFCURVE",
"365 230 OFFCURVE",
"510 -6 CURVE"
);
},
{
closed = 1;
nodes = (
"284 202 OFFCURVE",
"458 453 OFFCURVE",
"675 750 CURVE",
"565 760 LINE",
"349 469 OFFCURVE",
"169 212 OFFCURVE",
"35 5 CURVE",
"151 -5 LINE"
);
}
);
width = 730;
}
);
leftKerningGroup = X;
rightKerningGroup = X;
unicode = 0058;
},
{
glyphname = Y;
layers = (
{
anchors = (
{
name = top;
position = "{400, 880}";
}
);
layerId = "F446C85F-564E-4F2C-825C-C389DAA66B11";
paths = (
{
closed = 1;
nodes = (
"488 113 OFFCURVE",
"483 254 OFFCURVE",
"476 352 CURVE",
"363 517 OFFCURVE",
"270 667 OFFCURVE",
"217 770 CURVE",
"132 761 OFFCURVE",
"54 747 OFFCURVE",
"15 734 CURVE",
"68 648 OFFCURVE",
"184 483 OFFCURVE",
"294 340 CURVE",
"289 240 OFFCURVE",
"286 98 OFFCURVE",
"286 2 CURVE",
"334 0 OFFCURVE",
"421 -2 OFFCURVE",
"488 -2 CURVE"
);
},
{
closed = 1;
nodes = (
"567 460 OFFCURVE",
"685 628 OFFCURVE",
"755 743 CURVE",
"643 767 LINE",
"567 623 OFFCURVE",
"479 480 OFFCURVE",
"384 349 CURVE",
"460 323 LINE"
);
}
);
width = 770;
}
);
leftKerningGroup = Y;
rightKerningGroup = Y;
unicode = 0059;
},
{
glyphname = Z;
layers = (
{
anchors = (
{
name = top;
position = "{330, 880}";
}
);
layerId = "F446C85F-564E-4F2C-825C-C389DAA66B11";
paths = (
{
closed = 1;
nodes = (
"626 105 LINE",
"505 94 OFFCURVE",
"366 83 OFFCURVE",
"241 78 CURVE",
"431 374 OFFCURVE",
"532 536 OFFCURVE",
"615 683 CURVE",
"593 754 LINE",
"500 757 OFFCURVE",
"257 758 OFFCURVE",
"45 758 CURVE",
"52 658 LINE",
"163 669 OFFCURVE",
"313 679 OFFCURVE",
"421 683 CURVE",
"329 524 OFFCURVE",
"202 330 OFFCURVE",
"30 89 CURVE",
"52 2 LINE",
"114 0 OFFCURVE",
"447 -2 OFFCURVE",
"630 -2 CURVE"
);
}
);
width = 660;
}
);
leftKerningGroup = Z;
rightKerningGroup = Z;
unicode = 005A;
},
{
glyphname = A.full;
layers = (
{
anchors = (
{
name = top;
position = "{413, 895.4}";
}
);
layerId = "F446C85F-564E-4F2C-825C-C389DAA66B11";
paths = (
{
closed = 1;
nodes = (
"400 149 OFFCURVE",
"472 155 OFFCURVE",
"546 165 CURVE",
"530 249 LINE",
"498 246 OFFCURVE",
"455 245 OFFCURVE",
"413 245 CURVE SMOOTH",
"311 245 OFFCURVE",
"233 251 OFFCURVE",
"151 267 CURVE",
"146 157 LINE",
"205 151 OFFCURVE",
"265 149 OFFCURVE",
"318 149 CURVE SMOOTH"
);
},
{
closed = 1;
nodes = (
"635 -21 OFFCURVE",
"704 -15 OFFCURVE",
"786 -1 CURVE",
"684 307 OFFCURVE",
"585 578 OFFCURVE",
"500 782 CURVE",
"433 782 OFFCURVE",
"367 776 OFFCURVE",
"316 771 CURVE",
"206 521 OFFCURVE",
"108 252 OFFCURVE",
"30 -7 CURVE",
"156 -15 LINE",
"242 304 OFFCURVE",
"316 549 OFFCURVE",
"359 661 CURVE",
"411 517 OFFCURVE",
"499 218 OFFCURVE",
"561 -21 CURVE"
);
}
);
width = 816;
}
);
leftKerningGroup = A;
rightKerningGroup = A;
unicode = FF21;
},
{
glyphname = B.full;
layers = (
{
layerId = "F446C85F-564E-4F2C-825C-C389DAA66B11";
paths = (
{
closed = 1;
nodes = (
"478 -15 OFFCURVE",
"652 85 OFFCURVE",
"652 224 CURVE SMOOTH",
"652 317 OFFCURVE",
"574 397 OFFCURVE",
"456 429 CURVE",
"556 470 OFFCURVE",
"607 526 OFFCURVE",
"607 599 CURVE SMOOTH",
"607 713 OFFCURVE",
"485 778 OFFCURVE",
"275 778 CURVE SMOOTH",
"216 778 OFFCURVE",
"146 772 OFFCURVE",
"70 764 CURVE",
"70 549 OFFCURVE",
"75 91 OFFCURVE",
"79 -5 CURVE",
"133 -12 OFFCURVE",
"187 -15 OFFCURVE",
"230 -15 CURVE SMOOTH"
);
},
{
closed = 1;
nodes = (
"241 210 OFFCURVE",
"235 428 OFFCURVE",
"235 702 CURVE",
"344 702 OFFCURVE",
"437 643 OFFCURVE",
"437 572 CURVE SMOOTH",
"437 501 OFFCURVE",
"345 440 OFFCURVE",
"220 425 CURVE",
"222 371 LINE",
"346 362 OFFCURVE",
"466 273 OFFCURVE",
"466 188 CURVE SMOOTH",
"466 114 OFFCURVE",
"374 58 OFFCURVE",
"254 56 CURVE"
);
}
);
width = 692;
}
);
leftKerningGroup = H;
rightKerningGroup = B;
unicode = FF22;
},
{
glyphname = C.full;
layers = (
{
anchors = (
{
name = bottom;
position = "{397, -11}";
}
);
layerId = "F446C85F-564E-4F2C-825C-C389DAA66B11";
paths = (
{
closed = 1;
nodes = (
"540 -15 OFFCURVE",
"647 33 OFFCURVE",
"733 128 CURVE",
"635 203 LINE",
"595 132 OFFCURVE",
"518 79 OFFCURVE",
"456 79 CURVE SMOOTH",
"341 79 OFFCURVE",
"225 266 OFFCURVE",
"225 451 CURVE SMOOTH",
"225 592 OFFCURVE",
"293 683 OFFCURVE",
"395 683 CURVE SMOOTH",
"472 683 OFFCURVE",
"535 632 OFFCURVE",
"590 527 CURVE",
"635 551 OFFCURVE",
"682 592 OFFCURVE",
"733 650 CURVE",
"671 728 OFFCURVE",
"559 778 OFFCURVE",
"441 778 CURVE SMOOTH",
"213 778 OFFCURVE",
"40 596 OFFCURVE",
"40 359 CURVE SMOOTH",
"40 137 OFFCURVE",
"193 -15 OFFCURVE",
"415 -15 CURVE SMOOTH"
);
}
);
width = 763;
}
);
leftKerningGroup = O;
rightKerningGroup = C;
unicode = FF23;
},
{
glyphname = D.full;
layers = (
{
layerId = "F446C85F-564E-4F2C-825C-C389DAA66B11";
paths = (
{
closed = 1;
nodes = (
"535 -15 OFFCURVE",
"721 127 OFFCURVE",
"721 393 CURVE SMOOTH",
"721 646 OFFCURVE",
"554 778 OFFCURVE",
"232 778 CURVE SMOOTH",
"183 778 OFFCURVE",
"131 774 OFFCURVE",
"77 767 CURVE",
"72 611 OFFCURVE",
"70 289 OFFCURVE",
"70 -10 CURVE",
"112 -13 OFFCURVE",
"157 -15 OFFCURVE",
"198 -15 CURVE SMOOTH"
);
},
{
closed = 1;
nodes = (
"255 236 OFFCURVE",
"259 601 OFFCURVE",
"262 694 CURVE",
"448 677 OFFCURVE",
"535 567 OFFCURVE",
"535 352 CURVE SMOOTH",
"535 149 OFFCURVE",
"455 70 OFFCURVE",
"255 70 CURVE"
);
}
);
width = 761;
}
);
leftKerningGroup = H;
rightKerningGroup = O;
unicode = FF24;
},
{
glyphname = E.full;
layers = (
{
anchors = (
{
name = top;
position = "{361.4, 895.4}";
}
);
layerId = "F446C85F-564E-4F2C-825C-C389DAA66B11";
paths = (
{
closed = 1;
nodes = (
"654 88 LINE",
"287 82 LINE",
"282 232 OFFCURVE",
"280 457 OFFCURVE",
"280 673 CURVE",
"655 668 LINE",
"651 772 LINE",
"522 766 OFFCURVE",
"223 761 OFFCURVE",
"70 761 CURVE",
"70 642 OFFCURVE",
"89 109 OFFCURVE",
"97 -6 CURVE",
"360 -6 OFFCURVE",
"575 -10 OFFCURVE",
"650 -16 CURVE"
);
},
{
closed = 1;
nodes = (
"634 440 LINE",
"214 426 LINE",
"214 344 LINE",
"630 327 LINE"
);
}
);
width = 705;
}
);
leftKerningGroup = H;
rightKerningGroup = E;
unicode = FF25;
},
{
glyphname = F.full;
layers = (
{
layerId = "F446C85F-564E-4F2C-825C-C389DAA66B11";
paths = (
{
closed = 1;
nodes = (
"281 205 OFFCURVE",
"276 440 OFFCURVE",
"268 685 CURVE",
"623 674 LINE",
"628 772 LINE",
"527 766 OFFCURVE",
"271 761 OFFCURVE",
"80 761 CURVE",
"77 668 OFFCURVE",
"70 154 OFFCURVE",
"70 -10 CURVE",
"281 -13 LINE"
);
},
{
closed = 1;
nodes = (
"612 467 LINE",
"219 464 LINE",
"225 387 LINE",
"604 366 LINE"
);
}
);
width = 678;
}
);
leftKerningGroup = H;
rightKerningGroup = F;
unicode = FF26;
},
{
glyphname = G.full;
layers = (
{
layerId = "F446C85F-564E-4F2C-825C-C389DAA66B11";
paths = (
{
closed = 1;
nodes = (
"514 -15 OFFCURVE",
"638 31 OFFCURVE",
"716 103 CURVE",
"716 213 OFFCURVE",
"711 346 OFFCURVE",
"705 389 CURVE",
"524 384 LINE",
"533 315 OFFCURVE",
"544 186 OFFCURVE",
"547 128 CURVE",
"541 98 OFFCURVE",
"501 75 OFFCURVE",
"454 75 CURVE SMOOTH",
"329 75 OFFCURVE",
"224 239 OFFCURVE",
"224 436 CURVE SMOOTH",
"224 594 OFFCURVE",
"293 688 OFFCURVE",
"410 688 CURVE SMOOTH",
"496 688 OFFCURVE",
"565 637 OFFCURVE",
"614 540 CURVE",
"662 572 OFFCURVE",
"707 612 OFFCURVE",
"753 663 CURVE",
"697 733 OFFCURVE",
"585 778 OFFCURVE",
"461 778 CURVE SMOOTH",
"216 778 OFFCURVE",
"40 604 OFFCURVE",
"40 363 CURVE SMOOTH",
"40 141 OFFCURVE",
"189 -15 OFFCURVE",
"399 -15 CURVE SMOOTH"
);
},
{
closed = 1;
nodes = (
"783 418 LINE",
"682 413 OFFCURVE",
"543 410 OFFCURVE",
"396 410 CURVE",
"399 332 LINE",
"461 326 OFFCURVE",
"608 323 OFFCURVE",
"779 323 CURVE"
);
}
);
width = 823;
}
);
leftKerningGroup = O;
rightKerningGroup = G;
unicode = FF27;
},
{
glyphname = H.full;
layers = (
{
layerId = "F446C85F-564E-4F2C-825C-C389DAA66B11";
paths = (
{
closed = 1;
nodes = (
"742 208 OFFCURVE",
"741 542 OFFCURVE",
"733 771 CURVE",
"671 771 OFFCURVE",
"609 768 OFFCURVE",
"548 764 CURVE",
"548 434 OFFCURVE",
"547 133 OFFCURVE",
"541 -8 CURVE",
"606 -11 OFFCURVE",
"669 -12 OFFCURVE",
"742 -12 CURVE"
);
},
{
closed = 1;
nodes = (
"146 -12 OFFCURVE",
"208 -11 OFFCURVE",
"270 -8 CURVE",
"261 202 OFFCURVE",
"257 465 OFFCURVE",
"257 764 CURVE",
"212 767 OFFCURVE",
"158 768 OFFCURVE",
"77 768 CURVE",
"71 588 OFFCURVE",
"70 277 OFFCURVE",
"70 -12 CURVE"
);
},
{
closed = 1;
nodes = (
"583 439 LINE",
"464 431 OFFCURVE",
"345 426 OFFCURVE",
"229 426 CURVE",
"238 337 LINE",
"315 332 OFFCURVE",
"413 330 OFFCURVE",
"575 330 CURVE"
);
}
);
width = 812;
}
);
leftKerningGroup = H;
rightKerningGroup = H;
unicode = FF28;
},
{
glyphname = I.full;
layers = (
{
anchors = (
{
name = top;
position = "{215, 895.4}";
}
);
layerId = "F446C85F-564E-4F2C-825C-C389DAA66B11";
paths = (
{
closed = 1;
nodes = (
"176 -11 OFFCURVE",
"254 -10 OFFCURVE",
"331 -8 CURVE",
"321 97 OFFCURVE",
"316 230 OFFCURVE",
"316 417 CURVE SMOOTH",
"316 502 OFFCURVE",
"317 641 OFFCURVE",
"321 765 CURVE",
"294 768 OFFCURVE",
"255 770 OFFCURVE",
"217 770 CURVE SMOOTH",
"170 770 OFFCURVE",
"126 767 OFFCURVE",
"109 765 CURVE",
"111 710 OFFCURVE",
"112 584 OFFCURVE",
"112 497 CURVE SMOOTH",
"112 324 OFFCURVE",
"108 155 OFFCURVE",
"100 -11 CURVE"
);
}
);
width = 431;
}
);
leftKerningGroup = I;
rightKerningGroup = I;
unicode = FF29;
},
{
glyphname = J.full;
layers = (
{
layerId = "F446C85F-564E-4F2C-825C-C389DAA66B11";
paths = (
{
closed = 1;
nodes = (
"521 -16 OFFCURVE",
"582 99 OFFCURVE",
"582 589 CURVE SMOOTH",
"582 654 OFFCURVE",
"581 741 OFFCURVE",
"580 770 CURVE",
"510 770 OFFCURVE",
"439 768 OFFCURVE",
"369 764 CURVE",
"372 671 OFFCURVE",
"374 570 OFFCURVE",
"374 482 CURVE SMOOTH",
"374 150 OFFCURVE",
"345 71 OFFCURVE",
"258 71 CURVE SMOOTH",
"222 71 OFFCURVE",
"172 85 OFFCURVE",
"52 126 CURVE",
"30 46 LINE",
"110 7 OFFCURVE",
"206 -16 OFFCURVE",
"302 -16 CURVE SMOOTH"
);
}
);
width = 652;
}
);
leftKerningGroup = J;
rightKerningGroup = U;
unicode = FF2A;
},
{
glyphname = K.full;
layers = (
{
layerId = "F446C85F-564E-4F2C-825C-C389DAA66B11";
paths = (
{
closed = 1;
nodes = (
"415 395 OFFCURVE",
"586 577 OFFCURVE",
"717 749 CURVE",
"574 780 LINE",
"438 577 OFFCURVE",
"310 416 OFFCURVE",
"166 268 CURVE",
"214 215 LINE"
);
},
{
closed = 1;
nodes = (
"255 -11 LINE",
"255 212 OFFCURVE",
"257 550 OFFCURVE",
"264 762 CURVE",
"75 768 LINE",
"71 661 OFFCURVE",
"70 143 OFFCURVE",
"70 -17 CURVE"
);
},
{
closed = 1;
nodes = (
"601 -18 OFFCURVE",
"672 -12 OFFCURVE",
"747 0 CURVE",
"675 180 OFFCURVE",
"580 373 OFFCURVE",
"494 515 CURVE",
"342 430 LINE",
"412 287 OFFCURVE",
"485 109 OFFCURVE",
"523 -18 CURVE"
);
}
);
width = 777;
}
);
leftKerningGroup = H;
rightKerningGroup = K;
unicode = FF2B;
},
{
glyphname = L.full;
layers = (
{
layerId = "F446C85F-564E-4F2C-825C-C389DAA66B11";
paths = (
{
closed = 1;
nodes = (
"671 76 LINE",
"567 70 OFFCURVE",
"423 66 OFFCURVE",
"278 66 CURVE",
"286 269 OFFCURVE",
"289 566 OFFCURVE",
"289 768 CURVE",
"189 768 OFFCURVE",
"101 767 OFFCURVE",
"70 766 CURVE",
"70 524 OFFCURVE",
"76 273 OFFCURVE",
"88 -10 CURVE",
"360 -10 OFFCURVE",
"609 -13 OFFCURVE",
"674 -16 CURVE"
);
}
);
width = 704;
}
);
leftKerningGroup = H;
rightKerningGroup = L;
unicode = FF2C;
},
{
glyphname = M.full;
layers = (
{
layerId = "F446C85F-564E-4F2C-825C-C389DAA66B11";
paths = (
{
closed = 1;
nodes = (
"96 649 OFFCURVE",
"82 209 OFFCURVE",
"70 -9 CURVE",
"189 -13 LINE",
"166 586 LINE",
"219 451 OFFCURVE",
"288 293 OFFCURVE",
"368 123 CURVE",
"530 133 LINE",
"599 275 OFFCURVE",
"661 420 OFFCURVE",
"720 582 CURVE",
"720 412 OFFCURVE",
"716 195 OFFCURVE",
"708 -13 CURVE",
"774 -13 OFFCURVE",
"862 -11 OFFCURVE",
"910 -9 CURVE",
"904 178 OFFCURVE",
"902 584 OFFCURVE",
"902 771 CURVE",
"849 777 OFFCURVE",
"770 782 OFFCURVE",
"695 782 CURVE",
"630 600 OFFCURVE",
"565 441 OFFCURVE",
"492 287 CURVE",
"419 446 OFFCURVE",
"346 629 OFFCURVE",
"298 784 CURVE",
"240 784 OFFCURVE",
"174 778 OFFCURVE",
"96 770 CURVE"
);
}
);
width = 980;
}
);
leftKerningGroup = M;
rightKerningGroup = H;
unicode = FF2D;
},
{
glyphname = N.full;
layers = (
{
anchors = (
{
name = top;
position = "{407.6, 895.4}";
}
);
layerId = "F446C85F-564E-4F2C-825C-C389DAA66B11";
paths = (
{
closed = 1;
nodes = (
"112 -12 OFFCURVE",
"154 -14 OFFCURVE",
"192 -14 CURVE",
"164 559 LINE",
"302 366 OFFCURVE",
"442 164 OFFCURVE",
"552 -13 CURVE",
"599 -13 OFFCURVE",
"704 -11 OFFCURVE",
"748 -9 CURVE",
"755 48 OFFCURVE",
"762 477 OFFCURVE",
"762 764 CURVE",
"721 767 OFFCURVE",
"676 769 OFFCURVE",
"640 769 CURVE",
"663 203 LINE",
"533 415 OFFCURVE",
"407 602 OFFCURVE",
"292 768 CURVE",
"193 768 OFFCURVE",
"127 767 OFFCURVE",
"91 764 CURVE",
"83 648 OFFCURVE",
"70 176 OFFCURVE",
"70 -8 CURVE"
);
}
);
width = 832;
}
);
leftKerningGroup = M;
rightKerningGroup = N;
unicode = FF2E;
},
{
glyphname = O.full;
layers = (
{
anchors = (
{
name = top;
position = "{418, 895.4}";
}
);
layerId = "F446C85F-564E-4F2C-825C-C389DAA66B11";
paths = (
{
closed = 1;
nodes = (
"636 -16 OFFCURVE",
"796 152 OFFCURVE",
"796 380 CURVE SMOOTH",
"796 609 OFFCURVE",
"636 777 OFFCURVE",
"418 777 CURVE SMOOTH",
"200 777 OFFCURVE",
"40 609 OFFCURVE",
"40 380 CURVE SMOOTH",
"40 152 OFFCURVE",
"200 -16 OFFCURVE",
"418 -16 CURVE SMOOTH"
);
},
{
closed = 1;
nodes = (
"320 70 OFFCURVE",
"227 222 OFFCURVE",
"227 416 CURVE SMOOTH",
"227 581 OFFCURVE",
"294 690 OFFCURVE",
"396 690 CURVE SMOOTH",
"516 690 OFFCURVE",
"609 539 OFFCURVE",
"609 344 CURVE SMOOTH",
"609 180 OFFCURVE",
"542 70 OFFCURVE",
"440 70 CURVE SMOOTH"
);
}
);
width = 836;
}
);
leftKerningGroup = O;
rightKerningGroup = O;
unicode = FF2F;
},
{
glyphname = P.full;
layers = (
{
layerId = "F446C85F-564E-4F2C-825C-C389DAA66B11";
paths = (
{
closed = 1;
nodes = (
"157 -12 OFFCURVE",
"215 -10 OFFCURVE",
"264 -7 CURVE",
"264 259 OFFCURVE",
"256 570 OFFCURVE",
"247 698 CURVE",
"393 698 OFFCURVE",
"484 626 OFFCURVE",
"484 513 CURVE SMOOTH",
"484 403 OFFCURVE",
"399 341 OFFCURVE",
"228 325 CURVE",
"228 245 LINE",
"491 245 OFFCURVE",
"679 365 OFFCURVE",
"679 534 CURVE SMOOTH",
"679 687 OFFCURVE",
"526 779 OFFCURVE",
"278 779 CURVE SMOOTH",
"219 779 OFFCURVE",
"151 774 OFFCURVE",
"70 763 CURVE",
"73 671 OFFCURVE",
"75 366 OFFCURVE",
"75 -12 CURVE"
);
}
);
width = 709;
}
);
leftKerningGroup = H;
rightKerningGroup = P;
unicode = FF30;
},
{
glyphname = Q.full;
layers = (
{
layerId = "F446C85F-564E-4F2C-825C-C389DAA66B11";
paths = (
{
closed = 1;
nodes = (
"636 -16 OFFCURVE",
"796 152 OFFCURVE",
"796 380 CURVE SMOOTH",
"796 609 OFFCURVE",
"636 777 OFFCURVE",
"418 777 CURVE SMOOTH",
"200 777 OFFCURVE",
"40 609 OFFCURVE",
"40 380 CURVE SMOOTH",
"40 152 OFFCURVE",
"200 -16 OFFCURVE",
"418 -16 CURVE SMOOTH"
);
},
{
closed = 1;
nodes = (
"652 -53 OFFCURVE",
"736 -24 OFFCURVE",
"786 2 CURVE",
"727 150 OFFCURVE",
"591 256 OFFCURVE",
"462 256 CURVE SMOOTH",
"375 256 OFFCURVE",
"296 207 OFFCURVE",
"243 120 CURVE",
"331 74 LINE",
"356 130 OFFCURVE",
"391 159 OFFCURVE",
"434 159 CURVE SMOOTH",
"499 159 OFFCURVE",
"546 92 OFFCURVE",
"593 -66 CURVE"
);
},
{
closed = 1;
nodes = (
"320 70 OFFCURVE",
"227 222 OFFCURVE",
"227 416 CURVE SMOOTH",
"227 581 OFFCURVE",
"294 690 OFFCURVE",
"396 690 CURVE SMOOTH",
"516 690 OFFCURVE",
"609 539 OFFCURVE",
"609 344 CURVE SMOOTH",
"609 180 OFFCURVE",
"542 70 OFFCURVE",
"440 70 CURVE SMOOTH"
);
}
);
width = 836;
}
);
leftKerningGroup = O;
rightKerningGroup = Q;
unicode = FF31;
},
{
glyphname = R.full;
layers = (
{
layerId = "F446C85F-564E-4F2C-825C-C389DAA66B11";
paths = (
{
closed = 1;
nodes = (
"532 -20 OFFCURVE",
"655 -6 OFFCURVE",
"700 3 CURVE",
"667 83 OFFCURVE",
"530 305 OFFCURVE",
"473 370 CURVE",
"585 393 OFFCURVE",
"669 482 OFFCURVE",
"669 574 CURVE SMOOTH",
"669 701 OFFCURVE",
"511 776 OFFCURVE",
"276 776 CURVE SMOOTH",
"214 776 OFFCURVE",
"141 771 OFFCURVE",
"70 761 CURVE",
"73 668 OFFCURVE",
"75 282 OFFCURVE",
"75 -9 CURVE",
"126 -11 OFFCURVE",
"201 -13 OFFCURVE",
"264 -13 CURVE",
"264 261 OFFCURVE",
"257 573 OFFCURVE",
"247 696 CURVE",
"384 696 OFFCURVE",
"485 628 OFFCURVE",
"485 535 CURVE SMOOTH",
"485 446 OFFCURVE",
"390 390 OFFCURVE",
"239 390 CURVE",
"239 363 LINE",
"314 321 OFFCURVE",
"403 184 OFFCURVE",
"487 -22 CURVE"
);
}
);
width = 730;
}
);
leftKerningGroup = H;
rightKerningGroup = R;
unicode = FF32;
},
{
glyphname = S.full;
layers = (
{
layerId = "F446C85F-564E-4F2C-825C-C389DAA66B11";
paths = (
{
closed = 1;
nodes = (
"533 -16 OFFCURVE",
"681 100 OFFCURVE",
"681 237 CURVE SMOOTH",
"681 375 OFFCURVE",
"529 447 OFFCURVE",
"403 503 CURVE SMOOTH",
"313 543 OFFCURVE",
"236 579 OFFCURVE",
"236 629 CURVE SMOOTH",
"236 659 OFFCURVE",
"263 691 OFFCURVE",
"317 691 CURVE SMOOTH",
"392 691 OFFCURVE",
"477 630 OFFCURVE",
"563 550 CURVE",
"603 582 OFFCURVE",
"651 631 OFFCURVE",
"677 677 CURVE",
"599 741 OFFCURVE",
"488 777 OFFCURVE",
"386 777 CURVE SMOOTH",
"206 777 OFFCURVE",
"79 664 OFFCURVE",
"79 551 CURVE SMOOTH",
"79 438 OFFCURVE",
"208 377 OFFCURVE",
"328 323 CURVE SMOOTH",
"432 276 OFFCURVE",
"527 230 OFFCURVE",
"527 158 CURVE SMOOTH",
"527 106 OFFCURVE",
"480 80 OFFCURVE",
"430 80 CURVE SMOOTH",
"346 80 OFFCURVE",
"230 155 OFFCURVE",
"148 241 CURVE",
"101 196 OFFCURVE",
"62 150 OFFCURVE",
"30 104 CURVE",
"105 34 OFFCURVE",
"243 -16 OFFCURVE",
"358 -16 CURVE SMOOTH"
);
}
);
width = 711;
}
);
leftKerningGroup = S;
rightKerningGroup = S;
unicode = FF33;
},
{
glyphname = T.full;
layers = (
{
layerId = "F446C85F-564E-4F2C-825C-C389DAA66B11";
paths = (
{
closed = 1;
nodes = (
"525 201 OFFCURVE",
"522 588 OFFCURVE",
"518 712 CURVE",
"321 712 LINE",
"317 588 OFFCURVE",
"314 164 OFFCURVE",
"314 -6 CURVE",
"373 -9 OFFCURVE",
"472 -10 OFFCURVE",
"525 -10 CURVE"
);
},
{
closed = 1;
nodes = (
"251 669 OFFCURVE",
"611 673 OFFCURVE",
"808 679 CURVE",
"804 766 LINE",
"739 768 OFFCURVE",
"302 772 OFFCURVE",
"35 772 CURVE",
"30 669 LINE"
);
}
);
width = 838;
}
);
leftKerningGroup = T;
rightKerningGroup = T;
unicode = FF34;
},
{
glyphname = U.full;
layers = (
{
anchors = (
{
name = top;
position = "{450, 895}";
}
);
layerId = "F446C85F-564E-4F2C-825C-C389DAA66B11";
paths = (
{
closed = 1;
nodes = (
"669 -16 OFFCURVE",
"757 145 OFFCURVE",
"757 622 CURVE SMOOTH",
"757 677 OFFCURVE",
"755 730 OFFCURVE",
"753 771 CURVE",
"629 766 LINE",
"634 645 OFFCURVE",
"636 572 OFFCURVE",
"636 507 CURVE SMOOTH",
"636 199 OFFCURVE",
"590 92 OFFCURVE",
"455 92 CURVE SMOOTH",
"310 92 OFFCURVE",
"259 219 OFFCURVE",
"259 591 CURVE SMOOTH",
"259 645 OFFCURVE",
"260 703 OFFCURVE",
"262 765 CURVE",
"213 768 OFFCURVE",
"145 769 OFFCURVE",
"54 769 CURVE",
"52 740 OFFCURVE",
"50 692 OFFCURVE",
"50 638 CURVE SMOOTH",
"50 153 OFFCURVE",
"144 -16 OFFCURVE",
"409 -16 CURVE SMOOTH"
);
}
);
width = 807;
}
);
leftKerningGroup = U;
rightKerningGroup = U;
unicode = FF35;
},
{
glyphname = V.full;
layers = (
{
layerId = "F446C85F-564E-4F2C-825C-C389DAA66B11";
paths = (
{
closed = 1;
nodes = (
"500 -11 LINE",
"609 236 OFFCURVE",
"708 507 OFFCURVE",
"786 770 CURVE",
"660 778 LINE",
"582 488 OFFCURVE",
"503 222 OFFCURVE",
"457 99 CURVE",
"406 240 OFFCURVE",
"317 536 OFFCURVE",
"254 782 CURVE",
"184 782 OFFCURVE",
"115 776 OFFCURVE",
"30 762 CURVE",
"127 467 OFFCURVE",
"227 192 OFFCURVE",
"315 -21 CURVE"
);
}
);
width = 816;
}
);
leftKerningGroup = V;
rightKerningGroup = V;
unicode = FF36;
},
{
glyphname = W.full;
layers = (
{
layerId = "F446C85F-564E-4F2C-825C-C389DAA66B11";
paths = (
{
closed = 1;
nodes = (
"466 274 OFFCURVE",
"534 534 OFFCURVE",
"581 762 CURVE",
"442 762 LINE",
"433 647 OFFCURVE",
"393 429 OFFCURVE",
"331 161 CURVE",
"306 299 OFFCURVE",
"273 550 OFFCURVE",
"251 782 CURVE",
"181 782 OFFCURVE",
"105 775 OFFCURVE",
"30 762 CURVE",
"68 492 OFFCURVE",
"122 220 OFFCURVE",
"187 -13 CURVE",
"371 -19 LINE"
);
},
{
closed = 1;
nodes = (
"786 -13 LINE",
"847 218 OFFCURVE",
"904 504 OFFCURVE",
"943 770 CURVE",
"830 778 LINE",
"825 648 OFFCURVE",
"789 382 OFFCURVE",
"745 161 CURVE",
"661 503 OFFCURVE",
"624 666 OFFCURVE",
"608 772 CURVE",
"560 772 OFFCURVE",
"501 768 OFFCURVE",
"442 762 CURVE",
"477 583 OFFCURVE",
"553 271 OFFCURVE",
"632 -19 CURVE"
);
}
);
width = 973;
}
);
leftKerningGroup = W;
rightKerningGroup = W;
unicode = FF37;
},
{
glyphname = X.full;
layers = (
{
layerId = "F446C85F-564E-4F2C-825C-C389DAA66B11";
paths = (
{
closed = 1;
nodes = (
"619 -17 OFFCURVE",
"702 -12 OFFCURVE",
"765 -5 CURVE",
"614 253 OFFCURVE",
"418 551 OFFCURVE",
"256 774 CURVE",
"198 774 OFFCURVE",
"98 768 OFFCURVE",
"30 759 CURVE",
"205 512 OFFCURVE",
"397 226 OFFCURVE",
"550 -17 CURVE"
);
},
{
closed = 1;
nodes = (
"312 197 OFFCURVE",
"495 456 OFFCURVE",
"723 762 CURVE",
"607 772 LINE",
"380 472 OFFCURVE",
"191 207 OFFCURVE",
"51 -6 CURVE",
"173 -16 LINE"
);
}
);
width = 795;
}
);
leftKerningGroup = X;
rightKerningGroup = X;
unicode = FF38;
},
{
glyphname = Y.full;
layers = (
{
anchors = (
{
name = top;
position = "{434, 895.4}";
}
);
layerId = "F446C85F-564E-4F2C-825C-C389DAA66B11";
paths = (
{
closed = 1;
nodes = (
"526 105 OFFCURVE",
"521 251 OFFCURVE",
"514 352 CURVE",
"395 522 OFFCURVE",
"298 676 OFFCURVE",
"242 782 CURVE",
"153 773 OFFCURVE",
"71 758 OFFCURVE",
"30 745 CURVE",
"85 656 OFFCURVE",
"207 486 OFFCURVE",
"323 339 CURVE",
"317 236 OFFCURVE",
"314 90 OFFCURVE",
"314 -9 CURVE",
"365 -11 OFFCURVE",
"456 -13 OFFCURVE",
"526 -13 CURVE"
);
},
{
closed = 1;
nodes = (
"609 463 OFFCURVE",
"733 636 OFFCURVE",
"807 754 CURVE",
"689 779 LINE",
"609 631 OFFCURVE",
"517 483 OFFCURVE",
"417 348 CURVE",
"497 322 LINE"
);
}
);
width = 837;
}
);
leftKerningGroup = V;
rightKerningGroup = V;
unicode = FF39;
},
{
glyphname = Z.full;
layers = (
{
layerId = "F446C85F-564E-4F2C-825C-C389DAA66B11";
paths = (
{
closed = 1;
nodes = (
"674 97 LINE",
"547 86 OFFCURVE",
"402 74 OFFCURVE",
"271 69 CURVE",
"470 374 OFFCURVE",
"576 541 OFFCURVE",
"663 692 CURVE",
"640 765 LINE",
"542 768 OFFCURVE",
"287 769 OFFCURVE",
"65 769 CURVE",
"73 666 LINE",
"189 677 OFFCURVE",
"346 688 OFFCURVE",
"459 692 CURVE",
"363 528 OFFCURVE",
"230 329 OFFCURVE",
"50 81 CURVE",
"73 -9 LINE",
"138 -11 OFFCURVE",
"487 -13 OFFCURVE",
"679 -13 CURVE"
);
}
);
width = 729;
}
);
leftKerningGroup = Z;
rightKerningGroup = Z;
unicode = FF3A;
},
{
color = 3;
glyphname = A.rotat;
layers = (
{
anchors = (
{
name = top;
position = "{1000, 500}";
}
);
layerId = "F446C85F-564E-4F2C-825C-C389DAA66B11";
paths = (
{
closed = 1;
nodes = (
"276 513 OFFCURVE",
"281 444 OFFCURVE",
"291 374 CURVE",
"373 389 LINE",
"370 419 OFFCURVE",
"369 460 OFFCURVE",
"369 500 CURVE SMOOTH",
"369 597 OFFCURVE",
"375 672 OFFCURVE",
"390 750 CURVE",
"283 755 LINE",
"278 698 OFFCURVE",
"276 641 OFFCURVE",
"276 591 CURVE SMOOTH"
);
},
{
closed = 1;
nodes = (
"110 289 OFFCURVE",
"116 223 OFFCURVE",
"130 145 CURVE",
"429 242 OFFCURVE",
"692 336 OFFCURVE",
"890 417 CURVE",
"890 481 OFFCURVE",
"885 544 OFFCURVE",
"880 593 CURVE",
"637 697 OFFCURVE",
"376 791 OFFCURVE",
"124 865 CURVE",
"116 745 LINE",
"426 663 OFFCURVE",
"664 593 OFFCURVE",
"773 552 CURVE",
"633 502 OFFCURVE",
"343 418 OFFCURVE",
"110 359 CURVE"
);
}
);
vertWidth = 750;
width = 1000;
}
);
},
{
color = 3;
glyphname = Aacute.rotat;
layers = (
{
anchors = (
{
name = top;
position = "{1000, 500}";
}
);
layerId = "F446C85F-564E-4F2C-825C-C389DAA66B11";
paths = (
{
closed = 1;
nodes = (
"130 145 LINE"
);
},
{
closed = 1;
nodes = (
"1007 350 LINE",
"1103 412 LINE",
"957 650 LINE",
"917 634 LINE"
);
},
{
closed = 1;
nodes = (
"276 513 OFFCURVE",
"281 444 OFFCURVE",
"291 374 CURVE",
"373 389 LINE",
"370 419 OFFCURVE",
"369 460 OFFCURVE",
"369 500 CURVE SMOOTH",
"369 597 OFFCURVE",
"375 672 OFFCURVE",
"390 750 CURVE",
"283 755 LINE",
"278 698 OFFCURVE",
"276 641 OFFCURVE",
"276 591 CURVE SMOOTH"
);
},
{
closed = 1;
nodes = (
"110 289 OFFCURVE",
"116 223 OFFCURVE",
"130 145 CURVE",
"429 242 OFFCURVE",
"692 336 OFFCURVE",
"890 417 CURVE",
"890 481 OFFCURVE",
"885 544 OFFCURVE",
"880 593 CURVE",
"637 697 OFFCURVE",
"376 791 OFFCURVE",
"124 865 CURVE",
"116 745 LINE",
"426 663 OFFCURVE",
"664 593 OFFCURVE",
"773 552 CURVE",
"633 502 OFFCURVE",
"343 418 OFFCURVE",
"110 359 CURVE"
);
}
);
vertWidth = 750;
width = 1000;
}
);
},
{
color = 3;
glyphname = Acircumflex.rotat;
layers = (
{
anchors = (
{
name = top;
position = "{1000, 500}";
}
);
layerId = "F446C85F-564E-4F2C-825C-C389DAA66B11";
paths = (
{
closed = 1;
nodes = (
"1002 500 LINE",
"909 343 LINE",
"939 309 LINE",
"1117 500 LINE",
"939 691 LINE",
"909 657 LINE"
);
},
{
closed = 1;
nodes = (
"276 513 OFFCURVE",
"281 444 OFFCURVE",
"291 374 CURVE",
"373 389 LINE",
"370 419 OFFCURVE",
"369 460 OFFCURVE",
"369 500 CURVE SMOOTH",
"369 597 OFFCURVE",
"375 672 OFFCURVE",
"390 750 CURVE",
"283 755 LINE",
"278 698 OFFCURVE",
"276 641 OFFCURVE",
"276 591 CURVE SMOOTH"
);
},
{
closed = 1;
nodes = (
"110 289 OFFCURVE",
"116 223 OFFCURVE",
"130 145 CURVE",
"429 242 OFFCURVE",
"692 336 OFFCURVE",
"890 417 CURVE",
"890 481 OFFCURVE",
"885 544 OFFCURVE",
"880 593 CURVE",
"637 697 OFFCURVE",
"376 791 OFFCURVE",
"124 865 CURVE",
"116 745 LINE",
"426 663 OFFCURVE",
"664 593 OFFCURVE",
"773 552 CURVE",
"633 502 OFFCURVE",
"343 418 OFFCURVE",
"110 359 CURVE"
);
}
);
vertWidth = 750;
width = 1000;
}
);
},
{
color = 3;
glyphname = Adieresis.rotat;
layers = (
{
anchors = (
{
name = top;
position = "{1000, 500}";
}
);
layerId = "F446C85F-564E-4F2C-825C-C389DAA66B11";
paths = (
{
closed = 1;
nodes = (
"933 335 LINE",
"1077 335 LINE",
"1077 455 LINE",
"933 455 LINE"
);
},
{
closed = 1;
nodes = (
"933 545 LINE",
"1077 545 LINE",
"1077 665 LINE",
"933 665 LINE"
);
},
{
closed = 1;
nodes = (
"276 513 OFFCURVE",
"281 444 OFFCURVE",
"291 374 CURVE",
"373 389 LINE",
"370 419 OFFCURVE",
"369 460 OFFCURVE",
"369 500 CURVE SMOOTH",
"369 597 OFFCURVE",
"375 672 OFFCURVE",
"390 750 CURVE",
"283 755 LINE",
"278 698 OFFCURVE",
"276 641 OFFCURVE",
"276 591 CURVE SMOOTH"
);
},
{
closed = 1;
nodes = (
"110 289 OFFCURVE",
"116 223 OFFCURVE",
"130 145 CURVE",
"429 242 OFFCURVE",
"692 336 OFFCURVE",
"890 417 CURVE",
"890 481 OFFCURVE",
"885 544 OFFCURVE",
"880 593 CURVE",
"637 697 OFFCURVE",
"376 791 OFFCURVE",
"124 865 CURVE",
"116 745 LINE",
"426 663 OFFCURVE",
"664 593 OFFCURVE",
"773 552 CURVE",
"633 502 OFFCURVE",
"343 418 OFFCURVE",
"110 359 CURVE"
);
}
);
vertWidth = 750;
width = 1000;
}
);
},
{
color = 3;
glyphname = Agrave.rotat;
layers = (
{
anchors = (
{
name = top;
position = "{1000, 500}";
}
);
layerId = "F446C85F-564E-4F2C-825C-C389DAA66B11";
paths = (
{
closed = 1;
nodes = (
"957 350 LINE",
"1103 588 LINE",
"1007 650 LINE",
"917 366 LINE"
);
},
{
closed = 1;
nodes = (
"276 513 OFFCURVE",
"281 444 OFFCURVE",
"291 374 CURVE",
"373 389 LINE",
"370 419 OFFCURVE",
"369 460 OFFCURVE",
"369 500 CURVE SMOOTH",
"369 597 OFFCURVE",
"375 672 OFFCURVE",
"390 750 CURVE",
"283 755 LINE",
"278 698 OFFCURVE",
"276 641 OFFCURVE",
"276 591 CURVE SMOOTH"
);
},
{
closed = 1;
nodes = (
"110 289 OFFCURVE",
"116 223 OFFCURVE",
"130 145 CURVE",
"429 242 OFFCURVE",
"692 336 OFFCURVE",
"890 417 CURVE",
"890 481 OFFCURVE",
"885 544 OFFCURVE",
"880 593 CURVE",
"637 697 OFFCURVE",
"376 791 OFFCURVE",
"124 865 CURVE",
"116 745 LINE",
"426 663 OFFCURVE",
"664 593 OFFCURVE",
"773 552 CURVE",
"633 502 OFFCURVE",
"343 418 OFFCURVE",
"110 359 CURVE"
);
}
);
vertWidth = 750;
width = 1000;
}
);
},
{
color = 3;
glyphname = Aring.rotat;
layers = (
{
anchors = (
{
name = top;
position = "{1000, 500}";
}
);
layerId = "F446C85F-564E-4F2C-825C-C389DAA66B11";
paths = (
{
closed = 1;
nodes = (
"868 428 OFFCURVE",
"912 382 OFFCURVE",
"978 382 CURVE SMOOTH",
"1046 382 OFFCURVE",
"1092 430 OFFCURVE",
"1092 502 CURVE SMOOTH",
"1092 572 OFFCURVE",
"1048 618 OFFCURVE",
"982 618 CURVE SMOOTH",
"914 618 OFFCURVE",
"868 570 OFFCURVE",
"868 498 CURVE SMOOTH"
);
},
{
closed = 1;
nodes = (
"906 516 OFFCURVE",
"942 532 OFFCURVE",
"992 532 CURVE SMOOTH",
"1032 532 OFFCURVE",
"1054 523 OFFCURVE",
"1054 506 CURVE SMOOTH",
"1054 484 OFFCURVE",
"1018 468 OFFCURVE",
"968 468 CURVE SMOOTH",
"928 468 OFFCURVE",
"906 477 OFFCURVE",
"906 494 CURVE SMOOTH"
);
},
{
closed = 1;
nodes = (
"276 513 OFFCURVE",
"281 444 OFFCURVE",
"291 374 CURVE",
"373 389 LINE",
"370 419 OFFCURVE",
"369 460 OFFCURVE",
"369 500 CURVE SMOOTH",
"369 597 OFFCURVE",
"375 672 OFFCURVE",
"390 750 CURVE",
"283 755 LINE",
"278 698 OFFCURVE",
"276 641 OFFCURVE",
"276 591 CURVE SMOOTH"
);
},
{
closed = 1;
nodes = (
"110 289 OFFCURVE",
"116 223 OFFCURVE",
"130 145 CURVE",
"429 242 OFFCURVE",
"692 336 OFFCURVE",
"890 417 CURVE",
"890 481 OFFCURVE",
"885 544 OFFCURVE",
"880 593 CURVE",
"637 697 OFFCURVE",
"376 791 OFFCURVE",
"124 865 CURVE",
"116 745 LINE",
"426 663 OFFCURVE",
"664 593 OFFCURVE",
"773 552 CURVE",
"633 502 OFFCURVE",
"343 418 OFFCURVE",
"110 359 CURVE"
);
}
);
vertWidth = 750;
width = 1000;
}
);
},
{
color = 3;
glyphname = Atilde.rotat;
layers = (
{
anchors = (
{
name = top;
position = "{1000, 500}";
}
);
layerId = "F446C85F-564E-4F2C-825C-C389DAA66B11";
paths = (
{
closed = 1;
nodes = (
"927 396 OFFCURVE",
"953 361 OFFCURVE",
"1006 326 CURVE",
"1050 351 LINE",
"1017 382 OFFCURVE",
"1008 395 OFFCURVE",
"1008 412 CURVE SMOOTH",
"1008 432 OFFCURVE",
"1022 457 OFFCURVE",
"1047 482 CURVE SMOOTH",
"1076 511 OFFCURVE",
"1089 538 OFFCURVE",
"1089 566 CURVE SMOOTH",
"1089 605 OFFCURVE",
"1063 640 OFFCURVE",
"1010 674 CURVE",
"966 649 LINE",
"999 618 OFFCURVE",
"1008 606 OFFCURVE",
"1008 589 CURVE SMOOTH",
"1008 568 OFFCURVE",
"994 543 OFFCURVE",
"969 518 CURVE SMOOTH",
"940 489 OFFCURVE",
"927 463 OFFCURVE",
"927 435 CURVE SMOOTH"
);
},
{
closed = 1;
nodes = (
"276 513 OFFCURVE",
"281 444 OFFCURVE",
"291 374 CURVE",
"373 389 LINE",
"370 419 OFFCURVE",
"369 460 OFFCURVE",
"369 500 CURVE SMOOTH",
"369 597 OFFCURVE",
"375 672 OFFCURVE",
"390 750 CURVE",
"283 755 LINE",
"278 698 OFFCURVE",
"276 641 OFFCURVE",
"276 591 CURVE SMOOTH"
);
},
{
closed = 1;
nodes = (
"110 289 OFFCURVE",
"116 223 OFFCURVE",
"130 145 CURVE",
"429 242 OFFCURVE",
"692 336 OFFCURVE",
"890 417 CURVE",
"890 481 OFFCURVE",
"885 544 OFFCURVE",
"880 593 CURVE",
"637 697 OFFCURVE",
"376 791 OFFCURVE",
"124 865 CURVE",
"116 745 LINE",
"426 663 OFFCURVE",
"664 593 OFFCURVE",
"773 552 CURVE",
"633 502 OFFCURVE",
"343 418 OFFCURVE",
"110 359 CURVE"
);
}
);
vertWidth = 750;
width = 1000;
}
);
},
{
color = 3;
glyphname = AE.rotat;
layers = (
{
layerId = "F446C85F-564E-4F2C-825C-C389DAA66B11";
paths = (
{
closed = 1;
nodes = (
"303 651 OFFCURVE",
"614 496 OFFCURVE",
"783 400 CURVE",
"782 411 LINE",
"637 397 OFFCURVE",
"385 388 OFFCURVE",
"125 388 CURVE",
"125 186 OFFCURVE",
"121 25 OFFCURVE",
"115 -69 CURVE",
"218 -74 LINE",
"205 198 LINE",
"293 201 OFFCURVE",
"547 203 OFFCURVE",
"791 203 CURVE",
"778 -75 LINE",
"878 -71 LINE",
"876 -9 OFFCURVE",
"874 278 OFFCURVE",
"874 424 CURVE",
"660 572 OFFCURVE",
"365 746 OFFCURVE",
"128 865 CURVE",
"112 735 LINE"
);
},
{
closed = 1;
nodes = (
"263 462 OFFCURVE",
"267 410 OFFCURVE",
"276 334 CURVE",
"350 320 LINE",
"358 452 OFFCURVE",
"371 541 OFFCURVE",
"397 638 CURVE",
"268 673 LINE",
"264 602 OFFCURVE",
"263 561 OFFCURVE",
"263 528 CURVE SMOOTH"
);
},
{
closed = 1;
nodes = (
"562 -56 LINE",
"541 254 LINE",
"459 254 LINE",
"448 -48 LINE"
);
}
);
vertWidth = 985;
width = 1000;
}
);
},
{
color = 3;
glyphname = B.rotat;
layers = (
{
layerId = "F446C85F-564E-4F2C-825C-C389DAA66B11";
paths = (
{
closed = 1;
nodes = (
"115 442 OFFCURVE",
"213 276 OFFCURVE",
"348 276 CURVE SMOOTH",
"438 276 OFFCURVE",
"516 350 OFFCURVE",
"547 463 CURVE",
"586 367 OFFCURVE",
"641 319 OFFCURVE",
"712 319 CURVE SMOOTH",
"822 319 OFFCURVE",
"885 435 OFFCURVE",
"885 635 CURVE SMOOTH",
"885 691 OFFCURVE",
"880 758 OFFCURVE",
"872 830 CURVE",
"663 830 OFFCURVE",
"218 825 OFFCURVE",
"125 821 CURVE",
"118 770 OFFCURVE",
"115 719 OFFCURVE",
"115 678 CURVE SMOOTH"
);
},
{
closed = 1;
nodes = (
"336 667 OFFCURVE",
"546 673 OFFCURVE",
"812 673 CURVE",
"812 569 OFFCURVE",
"754 481 OFFCURVE",
"685 481 CURVE SMOOTH",
"617 481 OFFCURVE",
"557 568 OFFCURVE",
"543 687 CURVE",
"490 685 LINE",
"482 567 OFFCURVE",
"395 453 OFFCURVE",
"313 453 CURVE SMOOTH",
"241 453 OFFCURVE",
"186 548 OFFCURVE",
"186 655 CURVE"
);
}
);
vertWidth = 624;
width = 1000;
}
);
},
{
color = 3;
glyphname = C.rotat;
layers = (
{
anchors = (
{
name = bottom;
position = "{120, 520}";
}
);
layerId = "F446C85F-564E-4F2C-825C-C389DAA66B11";
paths = (
{
closed = 1;
nodes = (
"115 383 OFFCURVE",
"162 281 OFFCURVE",
"254 200 CURVE",
"327 293 LINE",
"258 331 OFFCURVE",
"207 404 OFFCURVE",
"207 463 CURVE SMOOTH",
"207 573 OFFCURVE",
"388 683 OFFCURVE",
"568 683 CURVE SMOOTH",
"705 683 OFFCURVE",
"793 619 OFFCURVE",
"793 521 CURVE SMOOTH",
"793 448 OFFCURVE",
"744 388 OFFCURVE",
"642 336 CURVE",
"665 293 OFFCURVE",
"705 248 OFFCURVE",
"761 200 CURVE",
"837 259 OFFCURVE",
"885 365 OFFCURVE",
"885 478 CURVE SMOOTH",
"885 695 OFFCURVE",
"709 860 OFFCURVE",
"479 860 CURVE SMOOTH",
"263 860 OFFCURVE",
"115 714 OFFCURVE",
"115 502 CURVE SMOOTH"
);
}
);
vertWidth = 690;
width = 1000;
}
);
},
{
color = 3;
glyphname = Ccedilla.rotat;
layers = (
{
anchors = (
{
name = bottom;
position = "{120, 520}";
}
);
layerId = "F446C85F-564E-4F2C-825C-C389DAA66B11";
paths = (
{
closed = 1;
nodes = (
"115 383 OFFCURVE",
"162 281 OFFCURVE",
"254 200 CURVE",
"327 293 LINE",
"258 331 OFFCURVE",
"207 404 OFFCURVE",
"207 463 CURVE SMOOTH",
"207 573 OFFCURVE",
"388 683 OFFCURVE",
"568 683 CURVE SMOOTH",
"705 683 OFFCURVE",
"793 619 OFFCURVE",
"793 521 CURVE SMOOTH",
"793 448 OFFCURVE",
"744 388 OFFCURVE",
"642 336 CURVE",
"665 293 OFFCURVE",
"705 248 OFFCURVE",
"761 200 CURVE",
"837 259 OFFCURVE",
"885 365 OFFCURVE",
"885 478 CURVE SMOOTH",
"885 695 OFFCURVE",
"709 860 OFFCURVE",
"479 860 CURVE SMOOTH",
"263 860 OFFCURVE",
"115 714 OFFCURVE",
"115 502 CURVE SMOOTH"
);
},
{
closed = 1;
nodes = (
"-86 463 OFFCURVE",
"-45 408 OFFCURVE",
"2 408 CURVE SMOOTH",
"39 408 OFFCURVE",
"76 442 OFFCURVE",
"101 498 CURVE",
"147 471 LINE",
"167 511 LINE",
"130 550 OFFCURVE",
"83 592 OFFCURVE",
"55 610 CURVE",
"43 550 OFFCURVE",
"15 503 OFFCURVE",
"-10 503 CURVE SMOOTH",
"-28 503 OFFCURVE",
"-50 529 OFFCURVE",
"-70 574 CURVE",
"-112 560 LINE"
);
}
);
vertWidth = 690;
width = 1000;
}
);
},
{
color = 3;
glyphname = D.rotat;
layers = (
{
layerId = "F446C85F-564E-4F2C-825C-C389DAA66B11";
paths = (
{
closed = 1;
nodes = (
"115 387 OFFCURVE",
"253 210 OFFCURVE",
"512 210 CURVE SMOOTH",
"757 210 OFFCURVE",
"885 369 OFFCURVE",
"885 675 CURVE SMOOTH",
"885 722 OFFCURVE",
"882 771 OFFCURVE",
"875 823 CURVE",
"723 828 OFFCURVE",
"411 830 OFFCURVE",
"120 830 CURVE",
"117 790 OFFCURVE",
"115 747 OFFCURVE",
"115 708 CURVE SMOOTH"
);
},
{
closed = 1;
nodes = (
"359 653 OFFCURVE",
"714 650 OFFCURVE",
"804 647 CURVE",
"787 470 OFFCURVE",
"681 387 OFFCURVE",
"472 387 CURVE SMOOTH",
"275 387 OFFCURVE",
"198 463 OFFCURVE",
"198 653 CURVE"
);
}
);
vertWidth = 690;
width = 1000;
}
);
},
{
color = 3;
glyphname = Eth.rotat;
layers = (
{
layerId = "F446C85F-564E-4F2C-825C-C389DAA66B11";
paths = (
{
closed = 1;
nodes = (
"466 471 LINE",
"546 474 LINE",
"559 866 LINE",
"453 870 LINE"
);
},
{
closed = 1;
nodes = (
"115 328 OFFCURVE",
"253 151 OFFCURVE",
"512 151 CURVE SMOOTH",
"757 151 OFFCURVE",
"885 310 OFFCURVE",
"885 616 CURVE SMOOTH",
"885 663 OFFCURVE",
"882 712 OFFCURVE",
"875 764 CURVE",
"723 769 OFFCURVE",
"411 771 OFFCURVE",
"120 771 CURVE",
"117 731 OFFCURVE",
"115 688 OFFCURVE",
"115 649 CURVE SMOOTH"
);
},
{
closed = 1;
nodes = (
"359 594 OFFCURVE",
"714 591 OFFCURVE",
"804 588 CURVE",
"787 411 OFFCURVE",
"681 328 OFFCURVE",
"472 328 CURVE SMOOTH",
"275 328 OFFCURVE",
"198 404 OFFCURVE",
"198 594 CURVE"
);
}
);
vertWidth = 749;
width = 1000;
}
);
},
{
color = 3;
glyphname = E.rotat;
layers = (
{
anchors = (
{
name = top;
position = "{1000, 552}";
}
);
layerId = "F446C85F-564E-4F2C-825C-C389DAA66B11";
paths = (
{
closed = 1;
nodes = (
"223 274 LINE",
"211 623 LINE",
"356 628 OFFCURVE",
"576 630 OFFCURVE",
"785 630 CURVE",
"773 273 LINE",
"880 277 LINE",
"875 400 OFFCURVE",
"870 684 OFFCURVE",
"870 830 CURVE",
"754 830 OFFCURVE",
"237 812 OFFCURVE",
"125 804 CURVE",
"125 554 OFFCURVE",
"121 349 OFFCURVE",
"115 278 CURVE"
);
},
{
closed = 1;
nodes = (
"558 293 LINE",
"545 693 LINE",
"465 693 LINE",
"448 297 LINE"
);
}
);
vertWidth = 637;
width = 1000;
}
);
},
{
color = 3;
glyphname = Eacute.rotat;
layers = (
{
anchors = (
{
name = top;
position = "{1000, 552}";
}
);
layerId = "F446C85F-564E-4F2C-825C-C389DAA66B11";
paths = (
{
closed = 1;
nodes = (
"1007 402 LINE",
"1103 464 LINE",
"957 702 LINE",
"917 686 LINE"
);
},
{
closed = 1;
nodes = (
"223 274 LINE",
"211 623 LINE",
"356 628 OFFCURVE",
"576 630 OFFCURVE",
"785 630 CURVE",
"773 273 LINE",
"880 277 LINE",
"875 400 OFFCURVE",
"870 684 OFFCURVE",
"870 830 CURVE",
"754 830 OFFCURVE",
"237 812 OFFCURVE",
"125 804 CURVE",
"125 554 OFFCURVE",
"121 349 OFFCURVE",
"115 278 CURVE"
);
},
{
closed = 1;
nodes = (
"558 293 LINE",
"545 693 LINE",
"465 693 LINE",
"448 297 LINE"
);
}
);
vertWidth = 637;
width = 1000;
}
);
},
{
color = 3;
glyphname = Ecircumflex.rotat;
layers = (
{
anchors = (
{
name = top;
position = "{1000, 552}";
}
);
layerId = "F446C85F-564E-4F2C-825C-C389DAA66B11";
paths = (
{
closed = 1;
nodes = (
"1002 552 LINE",
"909 395 LINE",
"939 361 LINE",
"1117 552 LINE",
"939 743 LINE",
"909 709 LINE"
);
},
{
closed = 1;
nodes = (
"223 274 LINE",
"211 623 LINE",
"356 628 OFFCURVE",
"576 630 OFFCURVE",
"785 630 CURVE",
"773 273 LINE",
"880 277 LINE",
"875 400 OFFCURVE",
"870 684 OFFCURVE",
"870 830 CURVE",
"754 830 OFFCURVE",
"237 812 OFFCURVE",
"125 804 CURVE",
"125 554 OFFCURVE",
"121 349 OFFCURVE",
"115 278 CURVE"
);
},
{
closed = 1;
nodes = (
"558 293 LINE",
"545 693 LINE",
"465 693 LINE",
"448 297 LINE"
);
}
);
vertWidth = 637;
width = 1000;
}
);
},
{
color = 3;
glyphname = Edieresis.rotat;
layers = (
{
anchors = (
{
name = top;
position = "{1000, 552}";
}
);
layerId = "F446C85F-564E-4F2C-825C-C389DAA66B11";
paths = (
{
closed = 1;
nodes = (
"933 387 LINE",
"1077 387 LINE",
"1077 507 LINE",
"933 507 LINE"
);
},
{
closed = 1;
nodes = (
"933 597 LINE",
"1077 597 LINE",
"1077 717 LINE",
"933 717 LINE"
);
},
{
closed = 1;
nodes = (
"223 274 LINE",
"211 623 LINE",
"356 628 OFFCURVE",
"576 630 OFFCURVE",
"785 630 CURVE",
"773 273 LINE",
"880 277 LINE",
"875 400 OFFCURVE",
"870 684 OFFCURVE",
"870 830 CURVE",
"754 830 OFFCURVE",
"237 812 OFFCURVE",
"125 804 CURVE",
"125 554 OFFCURVE",
"121 349 OFFCURVE",
"115 278 CURVE"
);
},
{
closed = 1;
nodes = (
"558 293 LINE",
"545 693 LINE",
"465 693 LINE",
"448 297 LINE"
);
}
);
vertWidth = 637;
width = 1000;
}
);
},
{
color = 3;
glyphname = Egrave.rotat;
layers = (
{
anchors = (
{
name = top;
position = "{1000, 552}";
}
);
layerId = "F446C85F-564E-4F2C-825C-C389DAA66B11";
paths = (
{
closed = 1;
nodes = (
"957 402 LINE",
"1103 640 LINE",
"1007 702 LINE",
"917 418 LINE"
);
},
{
closed = 1;
nodes = (
"223 274 LINE",
"211 623 LINE",
"356 628 OFFCURVE",
"576 630 OFFCURVE",
"785 630 CURVE",
"773 273 LINE",
"880 277 LINE",
"875 400 OFFCURVE",
"870 684 OFFCURVE",
"870 830 CURVE",
"754 830 OFFCURVE",
"237 812 OFFCURVE",
"125 804 CURVE",
"125 554 OFFCURVE",
"121 349 OFFCURVE",
"115 278 CURVE"
);
},
{
closed = 1;
nodes = (
"558 293 LINE",
"545 693 LINE",
"465 693 LINE",
"448 297 LINE"
);
}
);
vertWidth = 637;
width = 1000;
}
);
},
{
color = 3;
glyphname = F.rotat;
layers = (
{
layerId = "F446C85F-564E-4F2C-825C-C389DAA66B11";
paths = (
{
closed = 1;
nodes = (
"326 630 OFFCURVE",
"558 634 OFFCURVE",
"796 642 CURVE",
"782 304 LINE",
"880 300 LINE",
"875 396 OFFCURVE",
"870 639 OFFCURVE",
"870 821 CURVE",
"777 824 OFFCURVE",
"283 830 OFFCURVE",
"122 830 CURVE",
"115 630 LINE"
);
},
{
closed = 1;
nodes = (
"594 315 LINE",
"582 689 LINE",
"507 683 LINE",
"486 322 LINE"
);
}
);
vertWidth = 610;
width = 1000;
}
);
},
{
color = 3;
glyphname = G.rotat;
layers = (
{
layerId = "F446C85F-564E-4F2C-825C-C389DAA66B11";
paths = (
{
closed = 1;
nodes = (
"115 408 OFFCURVE",
"160 290 OFFCURVE",
"230 215 CURVE",
"337 215 OFFCURVE",
"461 220 OFFCURVE",
"503 226 CURVE",
"503 398 LINE",
"436 390 OFFCURVE",
"311 379 OFFCURVE",
"254 376 CURVE",
"225 382 OFFCURVE",
"203 420 OFFCURVE",
"203 465 CURVE SMOOTH",
"203 584 OFFCURVE",
"362 684 OFFCURVE",
"553 684 CURVE SMOOTH",
"707 684 OFFCURVE",
"798 618 OFFCURVE",
"798 507 CURVE SMOOTH",
"798 425 OFFCURVE",
"749 359 OFFCURVE",
"654 313 CURVE",
"685 267 OFFCURVE",
"724 224 OFFCURVE",
"774 180 CURVE",
"842 233 OFFCURVE",
"885 340 OFFCURVE",
"885 458 CURVE SMOOTH",
"885 692 OFFCURVE",
"717 860 OFFCURVE",
"483 860 CURVE SMOOTH",
"267 860 OFFCURVE",
"115 718 OFFCURVE",
"115 517 CURVE SMOOTH"
);
},
{
closed = 1;
nodes = (
"536 152 LINE",
"531 248 OFFCURVE",
"528 380 OFFCURVE",
"528 520 CURVE",
"452 517 LINE",
"447 458 OFFCURVE",
"444 318 OFFCURVE",
"444 155 CURVE"
);
}
);
vertWidth = 748;
width = 1000;
}
);
},
{
color = 3;
glyphname = H.rotat;
layers = (
{
layerId = "F446C85F-564E-4F2C-825C-C389DAA66B11";
paths = (
{
closed = 1;
nodes = (
"332 190 OFFCURVE",
"656 191 OFFCURVE",
"878 199 CURVE",
"878 258 OFFCURVE",
"876 317 OFFCURVE",
"872 375 CURVE",
"551 375 OFFCURVE",
"259 376 OFFCURVE",
"122 381 CURVE",
"119 320 OFFCURVE",
"118 260 OFFCURVE",
"118 190 CURVE"
);
},
{
closed = 1;
nodes = (
"118 758 OFFCURVE",
"119 699 OFFCURVE",
"122 640 CURVE",
"326 648 OFFCURVE",
"581 652 OFFCURVE",
"872 652 CURVE",
"875 695 OFFCURVE",
"876 746 OFFCURVE",
"876 823 CURVE",
"701 829 OFFCURVE",
"399 830 OFFCURVE",
"118 830 CURVE"
);
},
{
closed = 1;
nodes = (
"556 341 LINE",
"548 455 OFFCURVE",
"544 568 OFFCURVE",
"544 679 CURVE",
"457 670 LINE",
"452 597 OFFCURVE",
"450 503 OFFCURVE",
"450 349 CURVE"
);
}
);
vertWidth = 740;
width = 1000;
}
);
},
{
color = 3;
glyphname = I.rotat;
layers = (
{
anchors = (
{
name = top;
position = "{1000, 700}";
}
);
layerId = "F446C85F-564E-4F2C-825C-C389DAA66B11";
paths = (
{
closed = 1;
nodes = (
"119 737 OFFCURVE",
"119 662 OFFCURVE",
"122 590 CURVE",
"224 599 OFFCURVE",
"353 604 OFFCURVE",
"535 604 CURVE SMOOTH",
"617 604 OFFCURVE",
"749 603 OFFCURVE",
"873 599 CURVE",
"876 625 OFFCURVE",
"877 662 OFFCURVE",
"877 698 CURVE SMOOTH",
"877 743 OFFCURVE",
"875 785 OFFCURVE",
"873 801 CURVE",
"819 799 OFFCURVE",
"697 798 OFFCURVE",
"613 798 CURVE SMOOTH",
"445 798 OFFCURVE",
"281 802 OFFCURVE",
"119 810 CURVE"
);
}
);
vertWidth = 360;
width = 1000;
}
);
},
{
color = 3;
glyphname = Iacute.rotat;
layers = (
{
anchors = (
{
name = top;
position = "{1000, 700}";
}
);
layerId = "F446C85F-564E-4F2C-825C-C389DAA66B11";
paths = (
{
closed = 1;
nodes = (
"1007 550 LINE",
"1103 612 LINE",
"957 850 LINE",
"917 834 LINE"
);
},
{
closed = 1;
nodes = (
"119 737 OFFCURVE",
"119 662 OFFCURVE",
"122 590 CURVE",
"224 599 OFFCURVE",
"353 604 OFFCURVE",
"535 604 CURVE SMOOTH",
"617 604 OFFCURVE",
"749 603 OFFCURVE",
"873 599 CURVE",
"876 625 OFFCURVE",
"877 662 OFFCURVE",
"877 698 CURVE SMOOTH",
"877 743 OFFCURVE",
"875 785 OFFCURVE",
"873 801 CURVE",
"819 799 OFFCURVE",
"697 798 OFFCURVE",
"613 798 CURVE SMOOTH",
"445 798 OFFCURVE",
"281 802 OFFCURVE",
"119 810 CURVE"
);
}
);
vertWidth = 360;
width = 1000;
}
);
},
{
color = 3;
glyphname = Icircumflex.rotat;
layers = (
{
anchors = (
{
name = top;
position = "{1000, 700}";
}
);
layerId = "F446C85F-564E-4F2C-825C-C389DAA66B11";
paths = (
{
closed = 1;
nodes = (
"1002 700 LINE",
"909 543 LINE",
"939 509 LINE",
"1117 700 LINE",
"939 891 LINE",
"909 857 LINE"
);
},
{
closed = 1;
nodes = (
"119 737 OFFCURVE",
"119 662 OFFCURVE",
"122 590 CURVE",
"224 599 OFFCURVE",
"353 604 OFFCURVE",
"535 604 CURVE SMOOTH",
"617 604 OFFCURVE",
"749 603 OFFCURVE",
"873 599 CURVE",
"876 625 OFFCURVE",
"877 662 OFFCURVE",
"877 698 CURVE SMOOTH",
"877 743 OFFCURVE",
"875 785 OFFCURVE",
"873 801 CURVE",
"819 799 OFFCURVE",
"697 798 OFFCURVE",
"613 798 CURVE SMOOTH",
"445 798 OFFCURVE",
"281 802 OFFCURVE",
"119 810 CURVE"
);
}
);
vertWidth = 360;
width = 1000;
}
);
},
{
color = 3;
glyphname = Idieresis.rotat;
layers = (
{
anchors = (
{
name = top;
position = "{1000, 700}";
}
);
layerId = "F446C85F-564E-4F2C-825C-C389DAA66B11";
paths = (
{
closed = 1;
nodes = (
"933 535 LINE",
"1077 535 LINE",
"1077 655 LINE",
"933 655 LINE"
);
},
{
closed = 1;
nodes = (
"933 745 LINE",
"1077 745 LINE",
"1077 865 LINE",
"933 865 LINE"
);
},
{
closed = 1;
nodes = (
"119 737 OFFCURVE",
"119 662 OFFCURVE",
"122 590 CURVE",
"224 599 OFFCURVE",
"353 604 OFFCURVE",
"535 604 CURVE SMOOTH",
"617 604 OFFCURVE",
"749 603 OFFCURVE",
"873 599 CURVE",
"876 625 OFFCURVE",
"877 662 OFFCURVE",
"877 698 CURVE SMOOTH",
"877 743 OFFCURVE",
"875 785 OFFCURVE",
"873 801 CURVE",
"819 799 OFFCURVE",
"697 798 OFFCURVE",
"613 798 CURVE SMOOTH",
"445 798 OFFCURVE",
"281 802 OFFCURVE",
"119 810 CURVE"
);
}
);
vertWidth = 360;
width = 1000;
}
);
},
{
color = 3;
glyphname = Igrave.rotat;
layers = (
{
anchors = (
{
name = top;
position = "{1000, 700}";
}
);
layerId = "F446C85F-564E-4F2C-825C-C389DAA66B11";
paths = (
{
closed = 1;
nodes = (
"957 550 LINE",
"1103 788 LINE",
"1007 850 LINE",
"917 566 LINE"
);
},
{
closed = 1;
nodes = (
"119 737 OFFCURVE",
"119 662 OFFCURVE",
"122 590 CURVE",
"224 599 OFFCURVE",
"353 604 OFFCURVE",
"535 604 CURVE SMOOTH",
"617 604 OFFCURVE",
"749 603 OFFCURVE",
"873 599 CURVE",
"876 625 OFFCURVE",
"877 662 OFFCURVE",
"877 698 CURVE SMOOTH",
"877 743 OFFCURVE",
"875 785 OFFCURVE",
"873 801 CURVE",
"819 799 OFFCURVE",
"697 798 OFFCURVE",
"613 798 CURVE SMOOTH",
"445 798 OFFCURVE",
"281 802 OFFCURVE",
"119 810 CURVE"
);
}
);
vertWidth = 360;
width = 1000;
}
);
},
{
color = 3;
glyphname = J.rotat;
layers = (
{
layerId = "F446C85F-564E-4F2C-825C-C389DAA66B11";
paths = (
{
closed = 1;
nodes = (
"116 402 OFFCURVE",
"227 344 OFFCURVE",
"703 344 CURVE SMOOTH",
"766 344 OFFCURVE",
"851 345 OFFCURVE",
"879 346 CURVE",
"879 413 OFFCURVE",
"877 480 OFFCURVE",
"873 547 CURVE",
"780 544 OFFCURVE",
"685 542 OFFCURVE",
"599 542 CURVE SMOOTH",
"276 542 OFFCURVE",
"200 570 OFFCURVE",
"200 653 CURVE SMOOTH",
"200 687 OFFCURVE",
"213 735 OFFCURVE",
"253 849 CURVE",
"174 870 LINE",
"136 794 OFFCURVE",
"116 702 OFFCURVE",
"116 611 CURVE SMOOTH"
);
}
);
vertWidth = 586;
width = 1000;
}
);
},
{
color = 3;
glyphname = K.rotat;
layers = (
{
layerId = "F446C85F-564E-4F2C-825C-C389DAA66B11";
paths = (
{
closed = 1;
nodes = (
"517 501 OFFCURVE",
"693 338 OFFCURVE",
"860 214 CURVE",
"890 350 LINE",
"693 479 OFFCURVE",
"537 601 OFFCURVE",
"393 739 CURVE",
"342 693 LINE"
);
},
{
closed = 1;
nodes = (
"122 654 LINE",
"339 654 OFFCURVE",
"667 652 OFFCURVE",
"873 645 CURVE",
"879 825 LINE",
"775 829 OFFCURVE",
"272 830 OFFCURVE",
"116 830 CURVE"
);
},
{
closed = 1;
nodes = (
"115 324 OFFCURVE",
"121 256 OFFCURVE",
"133 185 CURVE",
"308 254 OFFCURVE",
"495 344 OFFCURVE",
"633 426 CURVE",
"551 571 LINE",
"412 504 OFFCURVE",
"238 435 OFFCURVE",
"115 398 CURVE"
);
}
);
vertWidth = 710;
width = 1000;
}
);
},
{
color = 3;
glyphname = L.rotat;
layers = (
{
layerId = "F446C85F-564E-4F2C-825C-C389DAA66B11";
paths = (
{
closed = 1;
nodes = (
"203 258 LINE",
"198 357 OFFCURVE",
"194 494 OFFCURVE",
"194 632 CURVE",
"391 625 OFFCURVE",
"680 622 OFFCURVE",
"876 622 CURVE",
"876 717 OFFCURVE",
"875 799 OFFCURVE",
"874 830 CURVE",
"639 830 OFFCURVE",
"395 825 OFFCURVE",
"120 813 CURVE",
"120 554 OFFCURVE",
"118 316 OFFCURVE",
"115 255 CURVE"
);
}
);
vertWidth = 640;
width = 1000;
}
);
},
{
color = 3;
glyphname = Lslash.rotat;
layers = (
{
layerId = "F446C85F-564E-4F2C-825C-C389DAA66B11";
paths = (
{
closed = 1;
nodes = (
"585 390 LINE",
"665 432 LINE",
"435 870 LINE",
"355 828 LINE"
);
},
{
closed = 1;
nodes = (
"203 176 LINE",
"198 275 OFFCURVE",
"194 412 OFFCURVE",
"194 550 CURVE",
"391 543 OFFCURVE",
"680 540 OFFCURVE",
"876 540 CURVE",
"876 635 OFFCURVE",
"875 717 OFFCURVE",
"874 748 CURVE",
"639 748 OFFCURVE",
"395 743 OFFCURVE",
"120 731 CURVE",
"120 472 OFFCURVE",
"118 234 OFFCURVE",
"115 173 CURVE"
);
}
);
vertWidth = 722;
width = 1000;
}
);
},
{
color = 3;
glyphname = M.rotat;
layers = (
{
layerId = "F446C85F-564E-4F2C-825C-C389DAA66B11";
paths = (
{
closed = 1;
nodes = (
"761 805 OFFCURVE",
"334 819 OFFCURVE",
"122 830 CURVE",
"118 717 LINE",
"700 739 LINE",
"569 688 OFFCURVE",
"416 622 OFFCURVE",
"251 546 CURVE",
"260 392 LINE",
"398 326 OFFCURVE",
"539 267 OFFCURVE",
"696 211 CURVE",
"531 211 OFFCURVE",
"320 215 OFFCURVE",
"118 222 CURVE",
"118 160 OFFCURVE",
"120 76 OFFCURVE",
"122 30 CURVE",
"305 36 OFFCURVE",
"698 38 OFFCURVE",
"880 38 CURVE",
"886 88 OFFCURVE",
"891 163 OFFCURVE",
"891 235 CURVE",
"714 297 OFFCURVE",
"559 359 OFFCURVE",
"410 428 CURVE",
"564 498 OFFCURVE",
"742 567 OFFCURVE",
"892 613 CURVE",
"892 668 OFFCURVE",
"887 731 OFFCURVE",
"879 805 CURVE"
);
}
);
vertWidth = 900;
width = 1000;
}
);
},
{
color = 3;
glyphname = N.rotat;
layers = (
{
anchors = (
{
name = top;
position = "{1000, 508}";
}
);
layerId = "F446C85F-564E-4F2C-825C-C389DAA66B11";
paths = (
{
closed = 1;
nodes = (
"119 790 OFFCURVE",
"117 750 OFFCURVE",
"117 714 CURVE",
"674 740 LINE",
"486 609 OFFCURVE",
"290 475 OFFCURVE",
"118 370 CURVE",
"118 325 OFFCURVE",
"120 225 OFFCURVE",
"122 183 CURVE",
"177 177 OFFCURVE",
"594 170 OFFCURVE",
"873 170 CURVE",
"876 209 OFFCURVE",
"878 252 OFFCURVE",
"878 286 CURVE",
"328 264 LINE",
"534 388 OFFCURVE",
"716 509 OFFCURVE",
"877 618 CURVE",
"877 713 OFFCURVE",
"876 776 OFFCURVE",
"873 810 CURVE",
"760 818 OFFCURVE",
"302 830 OFFCURVE",
"123 830 CURVE"
);
}
);
vertWidth = 760;
width = 1000;
}
);
},
{
color = 3;
glyphname = Ntilde.rotat;
layers = (
{
anchors = (
{
name = top;
position = "{1000, 508}";
}
);
layerId = "F446C85F-564E-4F2C-825C-C389DAA66B11";
paths = (
{
closed = 1;
nodes = (
"927 404 OFFCURVE",
"953 369 OFFCURVE",
"1006 334 CURVE",
"1050 360 LINE",
"1017 390 OFFCURVE",
"1008 403 OFFCURVE",
"1008 420 CURVE SMOOTH",
"1008 440 OFFCURVE",
"1022 465 OFFCURVE",
"1047 490 CURVE SMOOTH",
"1076 519 OFFCURVE",
"1089 546 OFFCURVE",
"1089 574 CURVE SMOOTH",
"1089 613 OFFCURVE",
"1063 648 OFFCURVE",
"1010 683 CURVE",
"966 657 LINE",
"999 626 OFFCURVE",
"1008 614 OFFCURVE",
"1008 597 CURVE SMOOTH",
"1008 576 OFFCURVE",
"994 551 OFFCURVE",
"969 526 CURVE SMOOTH",
"940 497 OFFCURVE",
"927 471 OFFCURVE",
"927 443 CURVE SMOOTH"
);
},
{
closed = 1;
nodes = (
"119 790 OFFCURVE",
"117 750 OFFCURVE",
"117 714 CURVE",
"674 740 LINE",
"486 609 OFFCURVE",
"290 475 OFFCURVE",
"118 370 CURVE",
"118 325 OFFCURVE",
"120 225 OFFCURVE",
"122 183 CURVE",
"177 177 OFFCURVE",
"594 170 OFFCURVE",
"873 170 CURVE",
"876 209 OFFCURVE",
"878 252 OFFCURVE",
"878 286 CURVE",
"328 264 LINE",
"534 388 OFFCURVE",
"716 509 OFFCURVE",
"877 618 CURVE",
"877 713 OFFCURVE",
"876 776 OFFCURVE",
"873 810 CURVE",
"760 818 OFFCURVE",
"302 830 OFFCURVE",
"123 830 CURVE"
);
}
);
vertWidth = 760;
width = 1000;
}
);
},
{
color = 3;
glyphname = O.rotat;
layers = (
{
anchors = (
{
name = top;
position = "{1000, 500}";
}
);
layerId = "F446C85F-564E-4F2C-825C-C389DAA66B11";
paths = (
{
closed = 1;
nodes = (
"115 292 OFFCURVE",
"278 140 OFFCURVE",
"500 140 CURVE SMOOTH",
"722 140 OFFCURVE",
"885 292 OFFCURVE",
"885 500 CURVE SMOOTH",
"885 708 OFFCURVE",
"722 860 OFFCURVE",
"500 860 CURVE SMOOTH",
"278 860 OFFCURVE",
"115 708 OFFCURVE",
"115 500 CURVE SMOOTH"
);
},
{
closed = 1;
nodes = (
"199 593 OFFCURVE",
"346 682 OFFCURVE",
"535 682 CURVE SMOOTH",
"695 682 OFFCURVE",
"801 618 OFFCURVE",
"801 521 CURVE SMOOTH",
"801 407 OFFCURVE",
"654 318 OFFCURVE",
"465 318 CURVE SMOOTH",
"305 318 OFFCURVE",
"199 382 OFFCURVE",
"199 479 CURVE SMOOTH"
);
}
);
vertWidth = 760;
width = 1000;
}
);
},
{
color = 3;
glyphname = Oacute.rotat;
layers = (
{
anchors = (
{
name = top;
position = "{1000, 500}";
}
);
layerId = "F446C85F-564E-4F2C-825C-C389DAA66B11";
paths = (
{
closed = 1;
nodes = (
"115 292 OFFCURVE",
"278 140 OFFCURVE",
"500 140 CURVE SMOOTH",
"722 140 OFFCURVE",
"885 292 OFFCURVE",
"885 500 CURVE SMOOTH",
"885 708 OFFCURVE",
"722 860 OFFCURVE",
"500 860 CURVE SMOOTH",
"278 860 OFFCURVE",
"115 708 OFFCURVE",
"115 500 CURVE SMOOTH"
);
},
{
closed = 1;
nodes = (
"199 593 OFFCURVE",
"346 682 OFFCURVE",
"535 682 CURVE SMOOTH",
"695 682 OFFCURVE",
"801 618 OFFCURVE",
"801 521 CURVE SMOOTH",
"801 407 OFFCURVE",
"654 318 OFFCURVE",
"465 318 CURVE SMOOTH",
"305 318 OFFCURVE",
"199 382 OFFCURVE",
"199 479 CURVE SMOOTH"
);
},
{
closed = 1;
nodes = (
"1007 350 LINE",
"1103 412 LINE",
"957 650 LINE",
"917 634 LINE"
);
}
);
vertWidth = 760;
width = 1000;
}
);
},
{
color = 3;
glyphname = Ocircumflex.rotat;
layers = (
{
anchors = (
{
name = top;
position = "{1000, 500}";
}
);
layerId = "F446C85F-564E-4F2C-825C-C389DAA66B11";
paths = (
{
closed = 1;
nodes = (
"115 292 OFFCURVE",
"278 140 OFFCURVE",
"500 140 CURVE SMOOTH",
"722 140 OFFCURVE",
"885 292 OFFCURVE",
"885 500 CURVE SMOOTH",
"885 708 OFFCURVE",
"722 860 OFFCURVE",
"500 860 CURVE SMOOTH",
"278 860 OFFCURVE",
"115 708 OFFCURVE",
"115 500 CURVE SMOOTH"
);
},
{
closed = 1;
nodes = (
"199 593 OFFCURVE",
"346 682 OFFCURVE",
"535 682 CURVE SMOOTH",
"695 682 OFFCURVE",
"801 618 OFFCURVE",
"801 521 CURVE SMOOTH",
"801 407 OFFCURVE",
"654 318 OFFCURVE",
"465 318 CURVE SMOOTH",
"305 318 OFFCURVE",
"199 382 OFFCURVE",
"199 479 CURVE SMOOTH"
);
},
{
closed = 1;
nodes = (
"1002 500 LINE",
"909 343 LINE",
"939 309 LINE",
"1117 500 LINE",
"939 692 LINE",
"909 658 LINE"
);
}
);
vertWidth = 760;
width = 1000;
}
);
},
{
color = 3;
glyphname = Odieresis.rotat;
layers = (
{
anchors = (
{
name = top;
position = "{1000, 500}";
}
);
layerId = "F446C85F-564E-4F2C-825C-C389DAA66B11";
paths = (
{
closed = 1;
nodes = (
"115 292 OFFCURVE",
"278 140 OFFCURVE",
"500 140 CURVE SMOOTH",
"722 140 OFFCURVE",
"885 292 OFFCURVE",
"885 500 CURVE SMOOTH",
"885 708 OFFCURVE",
"722 860 OFFCURVE",
"500 860 CURVE SMOOTH",
"278 860 OFFCURVE",
"115 708 OFFCURVE",
"115 500 CURVE SMOOTH"
);
},
{
closed = 1;
nodes = (
"199 593 OFFCURVE",
"346 682 OFFCURVE",
"535 682 CURVE SMOOTH",
"695 682 OFFCURVE",
"801 618 OFFCURVE",
"801 521 CURVE SMOOTH",
"801 407 OFFCURVE",
"654 318 OFFCURVE",
"465 318 CURVE SMOOTH",
"305 318 OFFCURVE",
"199 382 OFFCURVE",
"199 479 CURVE SMOOTH"
);
},
{
closed = 1;
nodes = (
"933 335 LINE",
"1077 335 LINE",
"1077 455 LINE",
"933 455 LINE"
);
},
{
closed = 1;
nodes = (
"933 545 LINE",
"1077 545 LINE",
"1077 665 LINE",
"933 665 LINE"
);
}
);
vertWidth = 760;
width = 1000;
}
);
},
{
color = 3;
glyphname = Ograve.rotat;
layers = (
{
anchors = (
{
name = top;
position = "{1000, 500}";
}
);
layerId = "F446C85F-564E-4F2C-825C-C389DAA66B11";
paths = (
{
closed = 1;
nodes = (
"115 292 OFFCURVE",
"278 140 OFFCURVE",
"500 140 CURVE SMOOTH",
"722 140 OFFCURVE",
"885 292 OFFCURVE",
"885 500 CURVE SMOOTH",
"885 708 OFFCURVE",
"722 860 OFFCURVE",
"500 860 CURVE SMOOTH",
"278 860 OFFCURVE",
"115 708 OFFCURVE",
"115 500 CURVE SMOOTH"
);
},
{
closed = 1;
nodes = (
"199 593 OFFCURVE",
"346 682 OFFCURVE",
"535 682 CURVE SMOOTH",
"695 682 OFFCURVE",
"801 618 OFFCURVE",
"801 521 CURVE SMOOTH",
"801 407 OFFCURVE",
"654 318 OFFCURVE",
"465 318 CURVE SMOOTH",
"305 318 OFFCURVE",
"199 382 OFFCURVE",
"199 479 CURVE SMOOTH"
);
},
{
closed = 1;
nodes = (
"957 350 LINE",
"1103 588 LINE",
"1007 650 LINE",
"917 366 LINE"
);
}
);
vertWidth = 760;
width = 1000;
}
);
},
{
color = 3;
glyphname = Oslash.rotat;
layers = (
{
anchors = (
{
name = top;
position = "{1000, 500}";
}
);
layerId = "F446C85F-564E-4F2C-825C-C389DAA66B11";
paths = (
{
closed = 1;
nodes = (
"855 175 LINE",
"910 255 LINE",
"145 825 LINE",
"90 745 LINE"
);
},
{
closed = 1;
nodes = (
"115 292 OFFCURVE",
"278 140 OFFCURVE",
"500 140 CURVE SMOOTH",
"722 140 OFFCURVE",
"885 292 OFFCURVE",
"885 500 CURVE SMOOTH",
"885 708 OFFCURVE",
"722 860 OFFCURVE",
"500 860 CURVE SMOOTH",
"278 860 OFFCURVE",
"115 708 OFFCURVE",
"115 500 CURVE SMOOTH"
);
},
{
closed = 1;
nodes = (
"199 593 OFFCURVE",
"346 682 OFFCURVE",
"535 682 CURVE SMOOTH",
"695 682 OFFCURVE",
"801 618 OFFCURVE",
"801 521 CURVE SMOOTH",
"801 407 OFFCURVE",
"654 318 OFFCURVE",
"465 318 CURVE SMOOTH",
"305 318 OFFCURVE",
"199 382 OFFCURVE",
"199 479 CURVE SMOOTH"
);
}
);
vertWidth = 760;
width = 1000;
}
);
},
{
color = 3;
glyphname = Otilde.rotat;
layers = (
{
anchors = (
{
name = top;
position = "{1000, 500}";
}
);
layerId = "F446C85F-564E-4F2C-825C-C389DAA66B11";
paths = (
{
closed = 1;
nodes = (
"115 292 OFFCURVE",
"278 140 OFFCURVE",
"500 140 CURVE SMOOTH",
"722 140 OFFCURVE",
"885 292 OFFCURVE",
"885 500 CURVE SMOOTH",
"885 708 OFFCURVE",
"722 860 OFFCURVE",
"500 860 CURVE SMOOTH",
"278 860 OFFCURVE",
"115 708 OFFCURVE",
"115 500 CURVE SMOOTH"
);
},
{
closed = 1;
nodes = (
"199 593 OFFCURVE",
"346 682 OFFCURVE",
"535 682 CURVE SMOOTH",
"695 682 OFFCURVE",
"801 618 OFFCURVE",
"801 521 CURVE SMOOTH",
"801 407 OFFCURVE",
"654 318 OFFCURVE",
"465 318 CURVE SMOOTH",
"305 318 OFFCURVE",
"199 382 OFFCURVE",
"199 479 CURVE SMOOTH"
);
},
{
closed = 1;
nodes = (
"927 396 OFFCURVE",
"953 361 OFFCURVE",
"1006 326 CURVE",
"1050 352 LINE",
"1017 382 OFFCURVE",
"1008 395 OFFCURVE",
"1008 412 CURVE SMOOTH",
"1008 432 OFFCURVE",
"1022 457 OFFCURVE",
"1047 482 CURVE SMOOTH",
"1076 511 OFFCURVE",
"1089 538 OFFCURVE",
"1089 566 CURVE SMOOTH",
"1089 605 OFFCURVE",
"1063 640 OFFCURVE",
"1010 675 CURVE",
"966 649 LINE",
"999 618 OFFCURVE",
"1008 606 OFFCURVE",
"1008 589 CURVE SMOOTH",
"1008 568 OFFCURVE",
"994 543 OFFCURVE",
"969 518 CURVE SMOOTH",
"940 489 OFFCURVE",
"927 463 OFFCURVE",
"927 435 CURVE SMOOTH"
);
}
);
vertWidth = 760;
width = 1000;
}
);
},
{
color = 3;
glyphname = OE.rotat;
layers = (
{
layerId = "F446C85F-564E-4F2C-825C-C389DAA66B11";
paths = (
{
closed = 1;
nodes = (
"115 333 OFFCURVE",
"257 230 OFFCURVE",
"511 230 CURVE SMOOTH",
"756 230 OFFCURVE",
"885 326 OFFCURVE",
"885 510 CURVE SMOOTH",
"885 715 OFFCURVE",
"725 860 OFFCURVE",
"499 860 CURVE SMOOTH",
"275 860 OFFCURVE",
"115 718 OFFCURVE",
"115 520 CURVE SMOOTH"
);
},
{
closed = 1;
nodes = (
"202 608 OFFCURVE",
"342 684 OFFCURVE",
"539 684 CURVE SMOOTH",
"703 684 OFFCURVE",
"798 631 OFFCURVE",
"798 541 CURVE SMOOTH",
"798 432 OFFCURVE",
"658 356 OFFCURVE",
"461 356 CURVE SMOOTH",
"297 356 OFFCURVE",
"202 409 OFFCURVE",
"202 499 CURVE SMOOTH"
);
},
{
closed = 1;
nodes = (
"218 -79 LINE",
"205 193 LINE",
"293 196 OFFCURVE",
"547 198 OFFCURVE",
"791 198 CURVE",
"778 -80 LINE",
"890 -76 LINE",
"884 68 OFFCURVE",
"875 412 OFFCURVE",
"875 505 CURVE",
"806 411 OFFCURVE",
"626 343 OFFCURVE",
"450 343 CURVE SMOOTH",
"297 343 OFFCURVE",
"209 394 OFFCURVE",
"125 530 CURVE",
"125 375 OFFCURVE",
"118 102 OFFCURVE",
"110 -74 CURVE"
);
},
{
closed = 1;
nodes = (
"562 -61 LINE",
"541 249 LINE",
"459 249 LINE",
"448 -53 LINE"
);
}
);
vertWidth = 990;
width = 1000;
}
);
},
{
color = 3;
glyphname = P.rotat;
layers = (
{
layerId = "F446C85F-564E-4F2C-825C-C389DAA66B11";
paths = (
{
closed = 1;
nodes = (
"118 747 OFFCURVE",
"119 691 OFFCURVE",
"122 645 CURVE",
"381 645 OFFCURVE",
"683 652 OFFCURVE",
"807 661 CURVE",
"807 522 OFFCURVE",
"737 435 OFFCURVE",
"627 435 CURVE SMOOTH",
"520 435 OFFCURVE",
"460 516 OFFCURVE",
"445 679 CURVE",
"367 679 LINE",
"367 429 OFFCURVE",
"484 250 OFFCURVE",
"648 250 CURVE SMOOTH",
"796 250 OFFCURVE",
"886 395 OFFCURVE",
"886 631 CURVE SMOOTH",
"886 688 OFFCURVE",
"881 752 OFFCURVE",
"870 830 CURVE",
"781 827 OFFCURVE",
"485 825 OFFCURVE",
"118 825 CURVE"
);
}
);
vertWidth = 650;
width = 1000;
}
);
},
{
color = 3;
glyphname = Thorn.rotat;
layers = (
{
layerId = "F446C85F-564E-4F2C-825C-C389DAA66B11";
paths = (
{
closed = 1;
nodes = (
"264 412 OFFCURVE",
"376 240 OFFCURVE",
"543 240 CURVE SMOOTH",
"694 240 OFFCURVE",
"765 379 OFFCURVE",
"765 676 CURVE",
"684 681 LINE",
"684 521 OFFCURVE",
"613 425 OFFCURVE",
"494 425 CURVE SMOOTH",
"390 425 OFFCURVE",
"346 498 OFFCURVE",
"346 669 CURVE",
"264 669 LINE"
);
},
{
closed = 1;
nodes = (
"118 790 OFFCURVE",
"119 714 OFFCURVE",
"122 652 CURVE",
"265 650 OFFCURVE",
"643 648 OFFCURVE",
"873 648 CURVE",
"875 689 OFFCURVE",
"877 779 OFFCURVE",
"877 830 CURVE",
"599 830 OFFCURVE",
"261 826 OFFCURVE",
"118 821 CURVE"
);
}
);
vertWidth = 660;
width = 1000;
}
);
},
{
color = 3;
glyphname = Q.rotat;
layers = (
{
layerId = "F446C85F-564E-4F2C-825C-C389DAA66B11";
paths = (
{
closed = 1;
nodes = (
"115 292 OFFCURVE",
"278 140 OFFCURVE",
"500 140 CURVE SMOOTH",
"722 140 OFFCURVE",
"885 292 OFFCURVE",
"885 500 CURVE SMOOTH",
"885 708 OFFCURVE",
"722 860 OFFCURVE",
"500 860 CURVE SMOOTH",
"278 860 OFFCURVE",
"115 708 OFFCURVE",
"115 500 CURVE SMOOTH"
);
},
{
closed = 1;
nodes = (
"79 277 OFFCURVE",
"107 197 OFFCURVE",
"133 150 CURVE",
"276 206 OFFCURVE",
"379 335 OFFCURVE",
"379 458 CURVE SMOOTH",
"379 541 OFFCURVE",
"332 616 OFFCURVE",
"247 667 CURVE",
"203 583 LINE",
"257 559 OFFCURVE",
"285 526 OFFCURVE",
"285 485 CURVE SMOOTH",
"285 423 OFFCURVE",
"220 378 OFFCURVE",
"67 333 CURVE"
);
},
{
closed = 1;
nodes = (
"199 593 OFFCURVE",
"346 682 OFFCURVE",
"535 682 CURVE SMOOTH",
"695 682 OFFCURVE",
"801 618 OFFCURVE",
"801 521 CURVE SMOOTH",
"801 407 OFFCURVE",
"654 318 OFFCURVE",
"465 318 CURVE SMOOTH",
"305 318 OFFCURVE",
"199 382 OFFCURVE",
"199 479 CURVE SMOOTH"
);
}
);
vertWidth = 760;
width = 1000;
}
);
},
{
color = 3;
glyphname = R.rotat;
layers = (
{
layerId = "F446C85F-564E-4F2C-825C-C389DAA66B11";
paths = (
{
closed = 1;
nodes = (
"112 390 OFFCURVE",
"126 273 OFFCURVE",
"134 230 CURVE",
"212 261 OFFCURVE",
"428 392 OFFCURVE",
"490 446 CURVE",
"513 340 OFFCURVE",
"599 260 OFFCURVE",
"689 260 CURVE SMOOTH",
"812 260 OFFCURVE",
"885 410 OFFCURVE",
"885 634 CURVE SMOOTH",
"885 693 OFFCURVE",
"880 762 OFFCURVE",
"870 830 CURVE",
"777 827 OFFCURVE",
"405 825 OFFCURVE",
"122 825 CURVE",
"120 777 OFFCURVE",
"118 705 OFFCURVE",
"118 645 CURVE",
"384 645 OFFCURVE",
"688 652 OFFCURVE",
"807 661 CURVE",
"807 531 OFFCURVE",
"741 435 OFFCURVE",
"651 435 CURVE SMOOTH",
"564 435 OFFCURVE",
"510 525 OFFCURVE",
"510 669 CURVE",
"483 669 LINE",
"443 598 OFFCURVE",
"309 513 OFFCURVE",
"110 433 CURVE"
);
}
);
vertWidth = 665;
width = 1000;
}
);
},
{
color = 3;
glyphname = S.rotat;
layers = (
{
layerId = "F446C85F-564E-4F2C-825C-C389DAA66B11";
paths = (
{
closed = 1;
nodes = (
"115 386 OFFCURVE",
"228 245 OFFCURVE",
"361 245 CURVE SMOOTH",
"495 245 OFFCURVE",
"563 390 OFFCURVE",
"619 510 CURVE SMOOTH",
"659 596 OFFCURVE",
"693 669 OFFCURVE",
"741 669 CURVE SMOOTH",
"770 669 OFFCURVE",
"802 643 OFFCURVE",
"802 591 CURVE SMOOTH",
"802 520 OFFCURVE",
"742 439 OFFCURVE",
"665 357 CURVE",
"696 319 OFFCURVE",
"743 273 OFFCURVE",
"788 249 CURVE",
"850 323 OFFCURVE",
"885 429 OFFCURVE",
"885 526 CURVE SMOOTH",
"885 697 OFFCURVE",
"775 818 OFFCURVE",
"666 818 CURVE SMOOTH",
"557 818 OFFCURVE",
"498 695 OFFCURVE",
"444 581 CURVE SMOOTH",
"398 483 OFFCURVE",
"354 391 OFFCURVE",
"284 391 CURVE SMOOTH",
"234 391 OFFCURVE",
"208 436 OFFCURVE",
"208 484 CURVE SMOOTH",
"208 564 OFFCURVE",
"281 674 OFFCURVE",
"365 752 CURVE",
"321 797 OFFCURVE",
"276 834 OFFCURVE",
"232 865 CURVE",
"164 793 OFFCURVE",
"115 662 OFFCURVE",
"115 552 CURVE SMOOTH"
);
}
);
vertWidth = 650;
width = 1000;
}
);
},
{
color = 3;
glyphname = Scaron.rotat;
layers = (
{
anchors = (
{
name = top;
position = "{1000, 545}";
}
);
layerId = "F446C85F-564E-4F2C-825C-C389DAA66B11";
paths = (
{
closed = 1;
nodes = (
"115 386 OFFCURVE",
"228 245 OFFCURVE",
"361 245 CURVE SMOOTH",
"495 245 OFFCURVE",
"563 390 OFFCURVE",
"619 510 CURVE SMOOTH",
"659 596 OFFCURVE",
"693 669 OFFCURVE",
"741 669 CURVE SMOOTH",
"770 669 OFFCURVE",
"802 643 OFFCURVE",
"802 591 CURVE SMOOTH",
"802 520 OFFCURVE",
"742 439 OFFCURVE",
"665 357 CURVE",
"696 319 OFFCURVE",
"743 273 OFFCURVE",
"788 249 CURVE",
"850 323 OFFCURVE",
"885 429 OFFCURVE",
"885 526 CURVE SMOOTH",
"885 697 OFFCURVE",
"775 818 OFFCURVE",
"666 818 CURVE SMOOTH",
"557 818 OFFCURVE",
"498 695 OFFCURVE",
"444 581 CURVE SMOOTH",
"398 483 OFFCURVE",
"354 391 OFFCURVE",
"284 391 CURVE SMOOTH",
"234 391 OFFCURVE",
"208 436 OFFCURVE",
"208 484 CURVE SMOOTH",
"208 564 OFFCURVE",
"281 674 OFFCURVE",
"365 752 CURVE",
"321 797 OFFCURVE",
"276 834 OFFCURVE",
"232 865 CURVE",
"164 793 OFFCURVE",
"115 662 OFFCURVE",
"115 552 CURVE SMOOTH"
);
},
{
closed = 1;
nodes = (
"1087 354 LINE",
"1117 388 LINE",
"1024 545 LINE",
"1117 702 LINE",
"1087 736 LINE",
"909 545 LINE"
);
}
);
vertWidth = 650;
width = 1000;
}
);
},
{
color = 3;
glyphname = T.rotat;
layers = (
{
layerId = "F446C85F-564E-4F2C-825C-C389DAA66B11";
paths = (
{
closed = 1;
nodes = (
"323 394 OFFCURVE",
"695 397 OFFCURVE",
"819 401 CURVE",
"819 588 LINE",
"695 592 OFFCURVE",
"286 595 OFFCURVE",
"122 595 CURVE",
"119 539 OFFCURVE",
"118 445 OFFCURVE",
"118 394 CURVE"
);
},
{
closed = 1;
nodes = (
"777 655 OFFCURVE",
"781 312 OFFCURVE",
"787 125 CURVE",
"871 128 LINE",
"873 190 OFFCURVE",
"877 606 OFFCURVE",
"877 861 CURVE",
"777 865 LINE"
);
}
);
vertWidth = 770;
width = 1000;
}
);
},
{
color = 3;
glyphname = U.rotat;
layers = (
{
anchors = (
{
name = top;
position = "{1000, 470}";
}
);
layerId = "F446C85F-564E-4F2C-825C-C389DAA66B11";
paths = (
{
closed = 1;
nodes = (
"115 260 OFFCURVE",
"271 177 OFFCURVE",
"734 177 CURVE SMOOTH",
"787 177 OFFCURVE",
"839 178 OFFCURVE",
"878 180 CURVE",
"874 299 LINE",
"756 294 OFFCURVE",
"685 292 OFFCURVE",
"622 292 CURVE SMOOTH",
"323 292 OFFCURVE",
"219 336 OFFCURVE",
"219 464 CURVE SMOOTH",
"219 603 OFFCURVE",
"343 651 OFFCURVE",
"704 651 CURVE SMOOTH",
"756 651 OFFCURVE",
"812 650 OFFCURVE",
"873 648 CURVE",
"876 695 OFFCURVE",
"877 760 OFFCURVE",
"877 847 CURVE",
"848 849 OFFCURVE",
"802 850 OFFCURVE",
"749 850 CURVE SMOOTH",
"279 850 OFFCURVE",
"115 761 OFFCURVE",
"115 508 CURVE SMOOTH"
);
}
);
vertWidth = 733;
width = 1000;
}
);
},
{
color = 3;
glyphname = Uacute.rotat;
layers = (
{
anchors = (
{
name = top;
position = "{1000, 470}";
}
);
layerId = "F446C85F-564E-4F2C-825C-C389DAA66B11";
paths = (
{
closed = 1;
nodes = (
"115 260 OFFCURVE",
"271 177 OFFCURVE",
"734 177 CURVE SMOOTH",
"787 177 OFFCURVE",
"839 178 OFFCURVE",
"878 180 CURVE",
"874 299 LINE",
"756 294 OFFCURVE",
"685 292 OFFCURVE",
"622 292 CURVE SMOOTH",
"323 292 OFFCURVE",
"219 336 OFFCURVE",
"219 464 CURVE SMOOTH",
"219 603 OFFCURVE",
"343 651 OFFCURVE",
"704 651 CURVE SMOOTH",
"756 651 OFFCURVE",
"812 650 OFFCURVE",
"873 648 CURVE",
"876 695 OFFCURVE",
"877 760 OFFCURVE",
"877 847 CURVE",
"848 849 OFFCURVE",
"802 850 OFFCURVE",
"749 850 CURVE SMOOTH",
"279 850 OFFCURVE",
"115 761 OFFCURVE",
"115 508 CURVE SMOOTH"
);
},
{
closed = 1;
nodes = (
"1007 320 LINE",
"1103 382 LINE",
"957 620 LINE",
"917 604 LINE"
);
}
);
vertWidth = 733;
width = 1000;
}
);
},
{
color = 3;
glyphname = Ucircumflex.rotat;
layers = (
{
anchors = (
{
name = top;
position = "{1000, 470}";
}
);
layerId = "F446C85F-564E-4F2C-825C-C389DAA66B11";
paths = (
{
closed = 1;
nodes = (
"115 260 OFFCURVE",
"271 177 OFFCURVE",
"734 177 CURVE SMOOTH",
"787 177 OFFCURVE",
"839 178 OFFCURVE",
"878 180 CURVE",
"874 299 LINE",
"756 294 OFFCURVE",
"685 292 OFFCURVE",
"622 292 CURVE SMOOTH",
"323 292 OFFCURVE",
"219 336 OFFCURVE",
"219 464 CURVE SMOOTH",
"219 603 OFFCURVE",
"343 651 OFFCURVE",
"704 651 CURVE SMOOTH",
"756 651 OFFCURVE",
"812 650 OFFCURVE",
"873 648 CURVE",
"876 695 OFFCURVE",
"877 760 OFFCURVE",
"877 847 CURVE",
"848 849 OFFCURVE",
"802 850 OFFCURVE",
"749 850 CURVE SMOOTH",
"279 850 OFFCURVE",
"115 761 OFFCURVE",
"115 508 CURVE SMOOTH"
);
},
{
closed = 1;
nodes = (
"1002 470 LINE",
"909 313 LINE",
"939 279 LINE",
"1117 470 LINE",
"939 661 LINE",
"909 627 LINE"
);
}
);
vertWidth = 733;
width = 1000;
}
);
},
{
color = 3;
glyphname = Udieresis.rotat;
layers = (
{
anchors = (
{
name = top;
position = "{1000, 470}";
}
);
layerId = "F446C85F-564E-4F2C-825C-C389DAA66B11";
paths = (
{
closed = 1;
nodes = (
"115 260 OFFCURVE",
"271 177 OFFCURVE",
"734 177 CURVE SMOOTH",
"787 177 OFFCURVE",
"839 178 OFFCURVE",
"878 180 CURVE",
"874 299 LINE",
"756 294 OFFCURVE",
"685 292 OFFCURVE",
"622 292 CURVE SMOOTH",
"323 292 OFFCURVE",
"219 336 OFFCURVE",
"219 464 CURVE SMOOTH",
"219 603 OFFCURVE",
"343 651 OFFCURVE",
"704 651 CURVE SMOOTH",
"756 651 OFFCURVE",
"812 650 OFFCURVE",
"873 648 CURVE",
"876 695 OFFCURVE",
"877 760 OFFCURVE",
"877 847 CURVE",
"848 849 OFFCURVE",
"802 850 OFFCURVE",
"749 850 CURVE SMOOTH",
"279 850 OFFCURVE",
"115 761 OFFCURVE",
"115 508 CURVE SMOOTH"
);
},
{
closed = 1;
nodes = (
"933 305 LINE",
"1077 305 LINE",
"1077 425 LINE",
"933 425 LINE"
);
},
{
closed = 1;
nodes = (
"933 515 LINE",
"1077 515 LINE",
"1077 635 LINE",
"933 635 LINE"
);
}
);
vertWidth = 733;
width = 1000;
}
);
},
{
color = 3;
glyphname = Ugrave.rotat;
layers = (
{
anchors = (
{
name = top;
position = "{1000, 470}";
}
);
layerId = "F446C85F-564E-4F2C-825C-C389DAA66B11";
paths = (
{
closed = 1;
nodes = (
"115 260 OFFCURVE",
"271 177 OFFCURVE",
"734 177 CURVE SMOOTH",
"787 177 OFFCURVE",
"839 178 OFFCURVE",
"878 180 CURVE",
"874 299 LINE",
"756 294 OFFCURVE",
"685 292 OFFCURVE",
"622 292 CURVE SMOOTH",
"323 292 OFFCURVE",
"219 336 OFFCURVE",
"219 464 CURVE SMOOTH",
"219 603 OFFCURVE",
"343 651 OFFCURVE",
"704 651 CURVE SMOOTH",
"756 651 OFFCURVE",
"812 650 OFFCURVE",
"873 648 CURVE",
"876 695 OFFCURVE",
"877 760 OFFCURVE",
"877 847 CURVE",
"848 849 OFFCURVE",
"802 850 OFFCURVE",
"749 850 CURVE SMOOTH",
"279 850 OFFCURVE",
"115 761 OFFCURVE",
"115 508 CURVE SMOOTH"
);
},
{
closed = 1;
nodes = (
"957 320 LINE",
"1103 558 LINE",
"1007 620 LINE",
"917 336 LINE"
);
}
);
vertWidth = 733;
width = 1000;
}
);
},
{
color = 3;
glyphname = V.rotat;
layers = (
{
layerId = "F446C85F-564E-4F2C-825C-C389DAA66B11";
paths = (
{
closed = 1;
nodes = (
"120 417 LINE",
"360 313 OFFCURVE",
"623 219 OFFCURVE",
"878 145 CURVE",
"886 265 LINE",
"604 339 OFFCURVE",
"346 414 OFFCURVE",
"227 458 CURVE",
"364 507 OFFCURVE",
"651 591 OFFCURVE",
"890 651 CURVE",
"890 718 OFFCURVE",
"884 784 OFFCURVE",
"870 865 CURVE",
"584 772 OFFCURVE",
"317 677 OFFCURVE",
"110 593 CURVE"
);
}
);
vertWidth = 750;
width = 1000;
}
);
},
{
color = 3;
glyphname = W.rotat;
layers = (
{
layerId = "F446C85F-564E-4F2C-825C-C389DAA66B11";
paths = (
{
closed = 1;
nodes = (
"397 450 OFFCURVE",
"648 385 OFFCURVE",
"870 340 CURVE",
"870 472 LINE",
"759 481 OFFCURVE",
"547 519 OFFCURVE",
"287 578 CURVE",
"421 602 OFFCURVE",
"665 633 OFFCURVE",
"890 654 CURVE",
"890 721 OFFCURVE",
"883 793 OFFCURVE",
"870 865 CURVE",
"608 829 OFFCURVE",
"344 777 OFFCURVE",
"118 715 CURVE",
"112 540 LINE"
);
},
{
closed = 1;
nodes = (
"118 145 LINE",
"342 87 OFFCURVE",
"620 32 OFFCURVE",
"878 -5 CURVE",
"886 103 LINE",
"760 108 OFFCURVE",
"502 142 OFFCURVE",
"287 184 CURVE",
"619 264 OFFCURVE",
"777 299 OFFCURVE",
"880 314 CURVE",
"880 360 OFFCURVE",
"876 416 OFFCURVE",
"870 472 CURVE",
"697 439 OFFCURVE",
"394 367 OFFCURVE",
"112 291 CURVE"
);
}
);
vertWidth = 900;
width = 1000;
}
);
},
{
color = 3;
glyphname = X.rotat;
layers = (
{
layerId = "F446C85F-564E-4F2C-825C-C389DAA66B11";
paths = (
{
closed = 1;
nodes = (
"114 304 OFFCURVE",
"119 225 OFFCURVE",
"126 165 CURVE",
"376 309 OFFCURVE",
"666 495 OFFCURVE",
"882 650 CURVE",
"882 705 OFFCURVE",
"876 800 OFFCURVE",
"868 865 CURVE",
"628 698 OFFCURVE",
"350 515 OFFCURVE",
"114 370 CURVE"
);
},
{
closed = 1;
nodes = (
"322 596 OFFCURVE",
"573 422 OFFCURVE",
"870 205 CURVE",
"880 315 LINE",
"589 531 OFFCURVE",
"332 711 OFFCURVE",
"125 845 CURVE",
"115 729 LINE"
);
}
);
vertWidth = 730;
width = 1000;
}
);
},
{
color = 3;
glyphname = Y.rotat;
layers = (
{
anchors = (
{
name = top;
position = "{1000, 480}";
}
);
layerId = "F446C85F-564E-4F2C-825C-C389DAA66B11";
paths = (
{
closed = 1;
nodes = (
"233 392 OFFCURVE",
"374 397 OFFCURVE",
"472 404 CURVE",
"637 517 OFFCURVE",
"787 610 OFFCURVE",
"890 663 CURVE",
"881 748 OFFCURVE",
"867 826 OFFCURVE",
"854 865 CURVE",
"768 812 OFFCURVE",
"603 696 OFFCURVE",
"460 586 CURVE",
"360 591 OFFCURVE",
"218 594 OFFCURVE",
"122 594 CURVE",
"120 546 OFFCURVE",
"118 459 OFFCURVE",
"118 392 CURVE"
);
},
{
closed = 1;
nodes = (
"580 313 OFFCURVE",
"748 195 OFFCURVE",
"863 125 CURVE",
"887 237 LINE",
"743 313 OFFCURVE",
"600 401 OFFCURVE",
"469 496 CURVE",
"443 420 LINE"
);
}
);
vertWidth = 770;
width = 1000;
}
);
},
{
color = 3;
glyphname = Yacute.rotat;
layers = (
{
anchors = (
{
name = top;
position = "{1000, 480}";
}
);
layerId = "F446C85F-564E-4F2C-825C-C389DAA66B11";
paths = (
{
closed = 1;
nodes = (
"233 392 OFFCURVE",
"374 397 OFFCURVE",
"472 404 CURVE",
"637 517 OFFCURVE",
"787 610 OFFCURVE",
"890 663 CURVE",
"881 748 OFFCURVE",
"867 826 OFFCURVE",
"854 865 CURVE",
"768 812 OFFCURVE",
"603 696 OFFCURVE",
"460 586 CURVE",
"360 591 OFFCURVE",
"218 594 OFFCURVE",
"122 594 CURVE",
"120 546 OFFCURVE",
"118 459 OFFCURVE",
"118 392 CURVE"
);
},
{
closed = 1;
nodes = (
"580 313 OFFCURVE",
"748 195 OFFCURVE",
"863 125 CURVE",
"887 237 LINE",
"743 313 OFFCURVE",
"600 401 OFFCURVE",
"469 496 CURVE",
"443 420 LINE"
);
},
{
closed = 1;
nodes = (
"1007 330 LINE",
"1103 392 LINE",
"957 630 LINE",
"917 614 LINE"
);
}
);
vertWidth = 770;
width = 1000;
}
);
},
{
color = 3;
glyphname = Ydieresis.rotat;
layers = (
{
anchors = (
{
name = top;
position = "{1000, 480}";
}
);
layerId = "F446C85F-564E-4F2C-825C-C389DAA66B11";
paths = (
{
closed = 1;
nodes = (
"233 392 OFFCURVE",
"374 397 OFFCURVE",
"472 404 CURVE",
"637 517 OFFCURVE",
"787 610 OFFCURVE",
"890 663 CURVE",
"881 748 OFFCURVE",
"867 826 OFFCURVE",
"854 865 CURVE",
"768 812 OFFCURVE",
"603 696 OFFCURVE",
"460 586 CURVE",
"360 591 OFFCURVE",
"218 594 OFFCURVE",
"122 594 CURVE",
"120 546 OFFCURVE",
"118 459 OFFCURVE",
"118 392 CURVE"
);
},
{
closed = 1;
nodes = (
"580 313 OFFCURVE",
"748 195 OFFCURVE",
"863 125 CURVE",
"887 237 LINE",
"743 313 OFFCURVE",
"600 401 OFFCURVE",
"469 496 CURVE",
"443 420 LINE"
);
},
{
closed = 1;
nodes = (
"933 315 LINE",
"1077 315 LINE",
"1077 435 LINE",
"933 435 LINE"
);
},
{
closed = 1;
nodes = (
"933 525 LINE",
"1077 525 LINE",
"1077 645 LINE",
"933 645 LINE"
);
}
);
vertWidth = 770;
width = 1000;
}
);
},
{
color = 3;
glyphname = Z.rotat;
layers = (
{
layerId = "F446C85F-564E-4F2C-825C-C389DAA66B11";
paths = (
{
closed = 1;
nodes = (
"224 254 LINE",
"213 375 OFFCURVE",
"203 514 OFFCURVE",
"198 639 CURVE",
"493 449 OFFCURVE",
"655 348 OFFCURVE",
"802 265 CURVE",
"873 287 LINE",
"876 380 OFFCURVE",
"877 623 OFFCURVE",
"877 835 CURVE",
"777 828 LINE",
"788 717 OFFCURVE",
"798 567 OFFCURVE",
"802 459 CURVE",
"643 551 OFFCURVE",
"449 678 OFFCURVE",
"208 850 CURVE",
"121 828 LINE",
"119 766 OFFCURVE",
"118 433 OFFCURVE",
"118 250 CURVE"
);
}
);
vertWidth = 660;
width = 1000;
}
);
},
{
color = 3;
glyphname = Zcaron.rotat;
layers = (
{
anchors = (
{
name = top;
position = "{1000, 550}";
}
);
layerId = "F446C85F-564E-4F2C-825C-C389DAA66B11";
paths = (
{
closed = 1;
nodes = (
"225 254 LINE",
"214 375 OFFCURVE",
"203 514 OFFCURVE",
"198 639 CURVE",
"494 449 OFFCURVE",
"656 348 OFFCURVE",
"803 265 CURVE",
"874 287 LINE",
"877 380 OFFCURVE",
"878 623 OFFCURVE",
"878 835 CURVE",
"778 828 LINE",
"789 717 OFFCURVE",
"799 567 OFFCURVE",
"803 459 CURVE",
"644 551 OFFCURVE",
"450 678 OFFCURVE",
"209 850 CURVE",
"122 828 LINE",
"120 766 OFFCURVE",
"118 433 OFFCURVE",
"118 250 CURVE"
);
},
{
closed = 1;
nodes = (
"1087 359 LINE",
"1117 393 LINE",
"1024 550 LINE",
"1117 707 LINE",
"1087 741 LINE",
"909 550 LINE"
);
}
);
vertWidth = 660;
width = 1000;
}
);
},
{
glyphname = a;
layers = (
{
anchors = (
{
name = bottom;
position = "{535, 20}";
},
{
name = top;
position = "{315, 680}";
}
);
layerId = "F446C85F-564E-4F2C-825C-C389DAA66B11";
paths = (
{
closed = 1;
nodes = (
"503 -2 OFFCURVE",
"574 0 OFFCURVE",
"600 2 CURVE",
"600 407 OFFCURVE",
"519 565 OFFCURVE",
"312 565 CURVE SMOOTH",
"224 565 OFFCURVE",
"128 536 OFFCURVE",
"30 480 CURVE",
"60 380 LINE",
"142 443 OFFCURVE",
"229 485 OFFCURVE",
"280 485 CURVE SMOOTH",
"379 485 OFFCURVE",
"428 324 OFFCURVE",
"428 -2 CURVE"
);
},
{
closed = 1;
nodes = (
"310 -5 OFFCURVE",
"398 31 OFFCURVE",
"488 105 CURVE",
"437 159 LINE",
"387 109 OFFCURVE",
"338 85 OFFCURVE",
"285 85 CURVE SMOOTH",
"230 85 OFFCURVE",
"195 111 OFFCURVE",
"195 152 CURVE SMOOTH",
"195 228 OFFCURVE",
"317 321 OFFCURVE",
"429 330 CURVE",
"405 400 LINE",
"186 377 OFFCURVE",
"30 271 OFFCURVE",
"30 145 CURVE SMOOTH",
"30 56 OFFCURVE",
"108 -5 OFFCURVE",
"222 -5 CURVE SMOOTH"
);
}
);
width = 630;
}
);
leftKerningGroup = a;
rightKerningGroup = a;
unicode = 0061;
},
{
glyphname = ae;
layers = (
{
layerId = "F446C85F-564E-4F2C-825C-C389DAA66B11";
paths = (
{
closed = 1;
nodes = (
"773 -5 OFFCURVE",
"862 42 OFFCURVE",
"930 133 CURVE",
"858 193 LINE",
"820 120 OFFCURVE",
"763 77 OFFCURVE",
"703 77 CURVE SMOOTH",
"615 77 OFFCURVE",
"550 171 OFFCURVE",
"550 297 CURVE SMOOTH",
"550 404 OFFCURVE",
"597 485 OFFCURVE",
"659 485 CURVE SMOOTH",
"714 485 OFFCURVE",
"763 421 OFFCURVE",
"767 343 CURVE",
"509 305 LINE",
"519 215 LINE",
"930 297 LINE",
"930 456 OFFCURVE",
"832 565 OFFCURVE",
"688 565 CURVE SMOOTH",
"528 565 OFFCURVE",
"399 430 OFFCURVE",
"399 261 CURVE SMOOTH",
"399 105 OFFCURVE",
"511 -5 OFFCURVE",
"669 -5 CURVE SMOOTH"
);
},
{
closed = 1;
nodes = (
"312 -5 OFFCURVE",
"413 36 OFFCURVE",
"488 105 CURVE",
"427 199 LINE",
"371 120 OFFCURVE",
"316 80 OFFCURVE",
"265 80 CURVE SMOOTH",
"217 80 OFFCURVE",
"180 116 OFFCURVE",
"180 164 CURVE SMOOTH",
"180 242 OFFCURVE",
"279 321 OFFCURVE",
"389 330 CURVE",
"365 400 LINE",
"166 379 OFFCURVE",
"30 277 OFFCURVE",
"30 148 CURVE SMOOTH",
"30 54 OFFCURVE",
"102 -5 OFFCURVE",
"217 -5 CURVE SMOOTH"
);
},
{
closed = 1;
nodes = (
"560 120 LINE",
"560 415 OFFCURVE",
"463 565 OFFCURVE",
"272 565 CURVE SMOOTH",
"195 565 OFFCURVE",
"127 541 OFFCURVE",
"30 480 CURVE",
"80 380 LINE",
"133 444 OFFCURVE",
"199 485 OFFCURVE",
"250 485 CURVE SMOOTH",
"343 485 OFFCURVE",
"400 347 OFFCURVE",
"400 120 CURVE"
);
}
);
width = 960;
}
);
leftKerningGroup = a;
leftMetricsKey = a;
rightKerningGroup = e;
rightMetricsKey = e;
unicode = 00E6;
},
{
glyphname = b;
layers = (
{
layerId = "F446C85F-564E-4F2C-825C-C389DAA66B11";
paths = (
{
closed = 1;
nodes = (
"469 -5 OFFCURVE",
"570 125 OFFCURVE",
"570 288 CURVE SMOOTH",
"570 447 OFFCURVE",
"475 565 OFFCURVE",
"348 565 CURVE SMOOTH",
"261 565 OFFCURVE",
"179 509 OFFCURVE",
"115 407 CURVE",
"186 367 LINE",
"213 439 OFFCURVE",
"257 483 OFFCURVE",
"302 483 CURVE SMOOTH",
"369 483 OFFCURVE",
"419 386 OFFCURVE",
"419 256 CURVE SMOOTH",
"419 142 OFFCURVE",
"382 75 OFFCURVE",
"319 75 CURVE SMOOTH",
"268 75 OFFCURVE",
"223 119 OFFCURVE",
"205 187 CURVE",
"110 113 LINE",
"179 40 OFFCURVE",
"268 -5 OFFCURVE",
"342 -5 CURVE SMOOTH"
);
},
{
closed = 1;
nodes = (
"220 91 OFFCURVE",
"222 550 OFFCURVE",
"222 753 CURVE",
"177 755 OFFCURVE",
"95 757 OFFCURVE",
"50 757 CURVE",
"50 555 OFFCURVE",
"52 95 OFFCURVE",
"55 2 CURVE",
"94 0 OFFCURVE",
"159 -2 OFFCURVE",
"217 -2 CURVE"
);
}
);
width = 600;
}
);
leftKerningGroup = b;
rightKerningGroup = o;
unicode = 0062;
},
{
glyphname = c;
layers = (
{
anchors = (
{
name = bottom;
position = "{305, 0}";
}
);
layerId = "F446C85F-564E-4F2C-825C-C389DAA66B11";
paths = (
{
closed = 1;
nodes = (
"410 -5 OFFCURVE",
"498 36 OFFCURVE",
"575 113 CURVE",
"514 173 LINE",
"478 114 OFFCURVE",
"420 77 OFFCURVE",
"365 77 CURVE SMOOTH",
"270 77 OFFCURVE",
"191 189 OFFCURVE",
"191 323 CURVE SMOOTH",
"191 422 OFFCURVE",
"236 485 OFFCURVE",
"306 485 CURVE SMOOTH",
"370 485 OFFCURVE",
"442 432 OFFCURVE",
"485 353 CURVE",
"580 457 LINE",
"501 529 OFFCURVE",
"418 565 OFFCURVE",
"332 565 CURVE SMOOTH",
"167 565 OFFCURVE",
"30 434 OFFCURVE",
"30 278 CURVE SMOOTH",
"30 125 OFFCURVE",
"163 -5 OFFCURVE",
"321 -5 CURVE SMOOTH"
);
}
);
width = 590;
}
);
leftKerningGroup = o;
rightKerningGroup = c;
unicode = 0063;
},
{
glyphname = d;
layers = (
{
layerId = "F446C85F-564E-4F2C-825C-C389DAA66B11";
paths = (
{
closed = 1;
nodes = (
"339 -5 OFFCURVE",
"421 51 OFFCURVE",
"485 153 CURVE",
"414 193 LINE",
"387 121 OFFCURVE",
"343 77 OFFCURVE",
"298 77 CURVE SMOOTH",
"231 77 OFFCURVE",
"181 174 OFFCURVE",
"181 304 CURVE SMOOTH",
"181 418 OFFCURVE",
"218 485 OFFCURVE",
"281 485 CURVE SMOOTH",
"332 485 OFFCURVE",
"377 441 OFFCURVE",
"395 373 CURVE",
"490 447 LINE",
"421 520 OFFCURVE",
"332 565 OFFCURVE",
"258 565 CURVE SMOOTH",
"131 565 OFFCURVE",
"30 435 OFFCURVE",
"30 272 CURVE SMOOTH",
"30 113 OFFCURVE",
"125 -5 OFFCURVE",
"252 -5 CURVE SMOOTH"
);
},
{
closed = 1;
nodes = (
"547 60 OFFCURVE",
"550 550 OFFCURVE",
"550 753 CURVE",
"505 755 OFFCURVE",
"423 757 OFFCURVE",
"378 757 CURVE",
"378 555 OFFCURVE",
"380 95 OFFCURVE",
"383 2 CURVE",
"422 0 OFFCURVE",
"487 -2 OFFCURVE",
"545 -2 CURVE"
);
}
);
width = 600;
}
);
leftKerningGroup = o;
rightKerningGroup = d;
unicode = 0064;
},
{
glyphname = eth;
layers = (
{
layerId = "F446C85F-564E-4F2C-825C-C389DAA66B11";
paths = (
{
closed = 1;
nodes = (
"452 -5 OFFCURVE",
"570 112 OFFCURVE",
"570 274 CURVE SMOOTH",
"570 419 OFFCURVE",
"476 597 OFFCURVE",
"305 775 CURVE",
"204 735 LINE",
"352 514 OFFCURVE",
"415 364 OFFCURVE",
"415 231 CURVE SMOOTH",
"415 133 OFFCURVE",
"381 77 OFFCURVE",
"323 77 CURVE SMOOTH",
"245 77 OFFCURVE",
"181 179 OFFCURVE",
"181 304 CURVE SMOOTH",
"181 396 OFFCURVE",
"216 445 OFFCURVE",
"280 445 CURVE SMOOTH",
"342 445 OFFCURVE",
"398 400 OFFCURVE",
"413 338 CURVE",
"508 412 LINE",
"443 486 OFFCURVE",
"363 525 OFFCURVE",
"277 525 CURVE SMOOTH",
"132 525 OFFCURVE",
"30 414 OFFCURVE",
"30 258 CURVE SMOOTH",
"30 100 OFFCURVE",
"134 -5 OFFCURVE",
"289 -5 CURVE SMOOTH"
);
},
{
closed = 1;
nodes = (
"528 618 LINE",
"491 729 LINE",
"53 627 LINE",
"64 567 LINE"
);
}
);
width = 600;
}
);
leftKerningGroup = eth;
rightKerningGroup = eth;
unicode = 00F0;
},
{
glyphname = e;
layers = (
{
anchors = (
{
name = bottom;
position = "{345, 20}";
},
{
name = top;
position = "{310, 680}";
}
);
layerId = "F446C85F-564E-4F2C-825C-C389DAA66B11";
paths = (
{
closed = 1;
nodes = (
"419 -5 OFFCURVE",
"515 45 OFFCURVE",
"580 133 CURVE",
"509 193 LINE",
"475 125 OFFCURVE",
"407 77 OFFCURVE",
"345 77 CURVE SMOOTH",
"253 77 OFFCURVE",
"180 184 OFFCURVE",
"180 321 CURVE SMOOTH",
"180 424 OFFCURVE",
"221 485 OFFCURVE",
"289 485 CURVE SMOOTH",
"354 485 OFFCURVE",
"404 428 OFFCURVE",
"413 343 CURVE",
"140 305 LINE",
"150 215 LINE",
"590 297 LINE",
"575 458 OFFCURVE",
"463 565 OFFCURVE",
"311 565 CURVE SMOOTH",
"150 565 OFFCURVE",
"30 444 OFFCURVE",
"30 281 CURVE SMOOTH",
"30 117 OFFCURVE",
"152 -5 OFFCURVE",
"315 -5 CURVE SMOOTH"
);
}
);
width = 620;
}
);
leftKerningGroup = o;
rightKerningGroup = e;
unicode = 0065;
},
{
glyphname = f;
layers = (
{
layerId = "F446C85F-564E-4F2C-825C-C389DAA66B11";
paths = (
{
closed = 1;
nodes = (
"157 -2 OFFCURVE",
"224 0 OFFCURVE",
"280 2 CURVE",
"277 77 OFFCURVE",
"276 154 OFFCURVE",
"276 240 CURVE SMOOTH",
"276 616 OFFCURVE",
"295 685 OFFCURVE",
"401 685 CURVE",
"405 770 LINE",
"137 757 OFFCURVE",
"105 675 OFFCURVE",
"105 -2 CURVE"
);
},
{
closed = 1;
nodes = (
"404 474 LINE",
"410 566 LINE",
"30 566 LINE",
"36 474 LINE"
);
}
);
width = 440;
}
);
leftKerningGroup = f;
rightKerningGroup = f;
unicode = 0066;
},
{
glyphname = g;
layers = (
{
layerId = "F446C85F-564E-4F2C-825C-C389DAA66B11";
paths = (
{
closed = 1;
nodes = (
"486 -130 OFFCURVE",
"570 -30 OFFCURVE",
"570 405 CURVE SMOOTH",
"570 451 OFFCURVE",
"569 500 OFFCURVE",
"567 557 CURVE",
"501 557 OFFCURVE",
"454 556 OFFCURVE",
"395 553 CURVE",
"406 415 OFFCURVE",
"410 334 OFFCURVE",
"410 266 CURVE SMOOTH",
"410 20 OFFCURVE",
"356 -38 OFFCURVE",
"116 -50 CURVE",
"119 -130 LINE"
);
},
{
closed = 1;
nodes = (
"345 35 OFFCURVE",
"435 94 OFFCURVE",
"485 193 CURVE",
"414 233 LINE",
"398 166 OFFCURVE",
"360 130 OFFCURVE",
"306 130 CURVE SMOOTH",
"230 130 OFFCURVE",
"181 202 OFFCURVE",
"181 315 CURVE SMOOTH",
"181 417 OFFCURVE",
"221 480 OFFCURVE",
"286 480 CURVE SMOOTH",
"341 480 OFFCURVE",
"394 436 OFFCURVE",
"415 373 CURVE",
"510 447 LINE",
"440 517 OFFCURVE",
"337 565 OFFCURVE",
"258 565 CURVE SMOOTH",
"131 565 OFFCURVE",
"30 439 OFFCURVE",
"30 281 CURVE SMOOTH",
"30 134 OFFCURVE",
"117 35 OFFCURVE",
"246 35 CURVE SMOOTH"
);
}
);
width = 620;
}
);
leftKerningGroup = g;
rightKerningGroup = g;
unicode = 0067;
},
{
glyphname = h;
layers = (
{
layerId = "F446C85F-564E-4F2C-825C-C389DAA66B11";
paths = (
{
closed = 1;
nodes = (
"520 -2 OFFCURVE",
"566 -1 OFFCURVE",
"600 2 CURVE",
"600 387 OFFCURVE",
"527 565 OFFCURVE",
"370 565 CURVE SMOOTH",
"277 565 OFFCURVE",
"174 502 OFFCURVE",
"116 408 CURVE",
"204 352 LINE",
"230 428 OFFCURVE",
"281 485 OFFCURVE",
"323 485 CURVE SMOOTH",
"393 485 OFFCURVE",
"428 323 OFFCURVE",
"428 -2 CURVE"
);
},
{
closed = 1;
nodes = (
"219 60 OFFCURVE",
"222 546 OFFCURVE",
"222 757 CURVE",
"175 757 OFFCURVE",
"93 755 OFFCURVE",
"50 753 CURVE",
"50 543 OFFCURVE",
"52 95 OFFCURVE",
"55 2 CURVE",
"97 0 OFFCURVE",
"167 -2 OFFCURVE",
"217 -2 CURVE"
);
}
);
width = 630;
}
);
leftKerningGroup = b;
rightKerningGroup = m;
unicode = 0068;
},
{
glyphname = i;
layers = (
{
components = (
{
name = idotless;
}
);
layerId = "F446C85F-564E-4F2C-825C-C389DAA66B11";
paths = (
{
closed = 1;
nodes = (
"221 625 LINE",
"221 760 LINE",
"51 760 LINE",
"51 625 LINE"
);
}
);
width = 272;
}
);
leftKerningGroup = i;
rightKerningGroup = i;
unicode = 0069;
},
{
glyphname = idotless;
layers = (
{
anchors = (
{
name = bottom;
position = "{150, 20}";
},
{
name = top;
position = "{136, 680}";
}
);
layerId = "F446C85F-564E-4F2C-825C-C389DAA66B11";
paths = (
{
closed = 1;
nodes = (
"98 -2 OFFCURVE",
"156 -1 OFFCURVE",
"217 2 CURVE",
"220 95 OFFCURVE",
"222 348 OFFCURVE",
"222 543 CURVE",
"184 545 OFFCURVE",
"110 547 OFFCURVE",
"50 547 CURVE",
"50 312 OFFCURVE",
"52 86 OFFCURVE",
"55 -2 CURVE"
);
}
);
width = 272;
}
);
leftKerningGroup = i;
rightKerningGroup = i;
unicode = 0131;
},
{
glyphname = j;
layers = (
{
layerId = "F446C85F-564E-4F2C-825C-C389DAA66B11";
paths = (
{
closed = 1;
nodes = (
"232 -95 OFFCURVE",
"305 52 OFFCURVE",
"305 363 CURVE SMOOTH",
"305 414 OFFCURVE",
"303 476 OFFCURVE",
"299 547 CURVE",
"233 547 OFFCURVE",
"176 546 OFFCURVE",
"127 543 CURVE",
"134 443 OFFCURVE",
"137 363 OFFCURVE",
"137 307 CURVE SMOOTH",
"137 104 OFFCURVE",
"98 -2 OFFCURVE",
"10 -40 CURVE",
"60 -130 LINE"
);
},
{
closed = 1;
nodes = (
"296 625 LINE",
"296 760 LINE",
"126 760 LINE",
"126 625 LINE"
);
}
);
width = 355;
}
);
leftKerningGroup = j;
rightKerningGroup = j;
unicode = 006A;
},
{
glyphname = k;
layers = (
{
layerId = "F446C85F-564E-4F2C-825C-C389DAA66B11";
paths = (
{
closed = 1;
nodes = (
"349 336 OFFCURVE",
"497 450 OFFCURVE",
"587 535 CURVE",
"498 595 LINE",
"431 522 OFFCURVE",
"293 399 OFFCURVE",
"170 304 CURVE",
"205 240 LINE"
);
},
{
closed = 1;
nodes = (
"135 -2 OFFCURVE",
"182 -1 OFFCURVE",
"217 2 CURVE",
"220 95 OFFCURVE",
"222 577 OFFCURVE",
"222 753 CURVE",
"177 755 OFFCURVE",
"109 757 OFFCURVE",
"50 757 CURVE",
"50 587 OFFCURVE",
"52 91 OFFCURVE",
"55 -2 CURVE"
);
},
{
closed = 1;
nodes = (
"620 10 LINE",
"566 130 OFFCURVE",
"474 313 OFFCURVE",
"421 406 CURVE",
"279 353 LINE",
"326 259 OFFCURVE",
"381 125 OFFCURVE",
"428 -10 CURVE"
);
}
);
width = 630;
}
);
leftKerningGroup = b;
rightKerningGroup = k;
unicode = 006B;
},
{
glyphname = l;
layers = (
{
layerId = "F446C85F-564E-4F2C-825C-C389DAA66B11";
paths = (
{
closed = 1;
nodes = (
"145 757 OFFCURVE",
"94 756 OFFCURVE",
"55 753 CURVE",
"52 660 OFFCURVE",
"50 567 OFFCURVE",
"50 491 CURVE SMOOTH",
"50 125 OFFCURVE",
"97 -3 OFFCURVE",
"240 -20 CURVE",
"310 60 LINE",
"244 94 OFFCURVE",
"218 226 OFFCURVE",
"218 543 CURVE SMOOTH",
"218 605 OFFCURVE",
"219 681 OFFCURVE",
"222 757 CURVE"
);
}
);
width = 320;
}
);
leftKerningGroup = l;
rightKerningGroup = l;
unicode = 006C;
},
{
glyphname = lslash;
layers = (
{
components = (
{
name = l;
transform = "{1, 0, 0, 1, 80, 0}";
}
);
layerId = "F446C85F-564E-4F2C-825C-C389DAA66B11";
paths = (
{
closed = 1;
nodes = (
"434 439 LINE",
"392 519 LINE",
"10 331 LINE",
"52 251 LINE"
);
}
);
width = 444;
}
);
leftKerningGroup = l;
rightKerningGroup = l;
unicode = 0142;
},
{
glyphname = m;
layers = (
{
layerId = "F446C85F-564E-4F2C-825C-C389DAA66B11";
paths = (
{
closed = 1;
nodes = (
"752 -4 OFFCURVE",
"819 -1 OFFCURVE",
"857 4 CURVE",
"859 44 OFFCURVE",
"860 76 OFFCURVE",
"860 112 CURVE SMOOTH",
"860 420 OFFCURVE",
"793 565 OFFCURVE",
"650 565 CURVE SMOOTH",
"561 565 OFFCURVE",
"476 509 OFFCURVE",
"414 408 CURVE",
"502 352 LINE",
"523 424 OFFCURVE",
"576 485 OFFCURVE",
"616 485 CURVE SMOOTH",
"667 485 OFFCURVE",
"691 388 OFFCURVE",
"691 181 CURVE SMOOTH",
"691 118 OFFCURVE",
"689 52 OFFCURVE",
"685 -4 CURVE"
);
},
{
closed = 1;
nodes = (
"192 253 OFFCURVE",
"190 478 OFFCURVE",
"187 553 CURVE",
"141 555 OFFCURVE",
"77 557 OFFCURVE",
"35 557 CURVE",
"32 474 OFFCURVE",
"30 252 OFFCURVE",
"30 2 CURVE",
"63 0 OFFCURVE",
"147 -2 OFFCURVE",
"192 -2 CURVE"
);
},
{
closed = 1;
nodes = (
"402 -2 OFFCURVE",
"483 0 OFFCURVE",
"523 2 CURVE",
"525 44 OFFCURVE",
"526 85 OFFCURVE",
"526 131 CURVE SMOOTH",
"526 450 OFFCURVE",
"480 565 OFFCURVE",
"353 565 CURVE SMOOTH",
"268 565 OFFCURVE",
"185 511 OFFCURVE",
"94 398 CURVE",
"182 352 LINE",
"207 426 OFFCURVE",
"259 485 OFFCURVE",
"299 485 CURVE SMOOTH",
"342 485 OFFCURVE",
"357 418 OFFCURVE",
"357 228 CURVE SMOOTH",
"357 154 OFFCURVE",
"355 69 OFFCURVE",
"351 -2 CURVE"
);
}
);
width = 890;
}
);
leftKerningGroup = m;
rightKerningGroup = m;
unicode = 006D;
},
{
glyphname = n;
layers = (
{
anchors = (
{
name = top;
position = "{315, 680}";
}
);
layerId = "F446C85F-564E-4F2C-825C-C389DAA66B11";
paths = (
{
closed = 1;
nodes = (
"601 404 OFFCURVE",
"537 565 OFFCURVE",
"375 565 CURVE SMOOTH",
"276 565 OFFCURVE",
"177 504 OFFCURVE",
"90 388 CURVE",
"178 332 LINE",
"207 420 OFFCURVE",
"269 485 OFFCURVE",
"324 485 CURVE SMOOTH",
"401 485 OFFCURVE",
"429 356 OFFCURVE",
"429 2 CURVE",
"474 0 OFFCURVE",
"554 -2 OFFCURVE",
"601 -2 CURVE"
);
},
{
closed = 1;
nodes = (
"91 -2 OFFCURVE",
"155 0 OFFCURVE",
"197 2 CURVE",
"200 85 OFFCURVE",
"202 324 OFFCURVE",
"202 553 CURVE",
"159 555 OFFCURVE",
"74 557 OFFCURVE",
"30 557 CURVE",
"30 312 OFFCURVE",
"32 83 OFFCURVE",
"35 -2 CURVE"
);
}
);
width = 631;
}
);
leftKerningGroup = m;
rightKerningGroup = m;
unicode = 006E;
},
{
glyphname = o;
layers = (
{
anchors = (
{
name = bottom;
position = "{330, 20}";
},
{
name = top;
position = "{320, 680}";
}
);
layerId = "F446C85F-564E-4F2C-825C-C389DAA66B11";
paths = (
{
closed = 1;
nodes = (
"476 -5 OFFCURVE",
"610 126 OFFCURVE",
"610 288 CURVE SMOOTH",
"610 443 OFFCURVE",
"486 565 OFFCURVE",
"328 565 CURVE SMOOTH",
"164 565 OFFCURVE",
"30 434 OFFCURVE",
"30 272 CURVE SMOOTH",
"30 117 OFFCURVE",
"154 -5 OFFCURVE",
"312 -5 CURVE SMOOTH"
);
},
{
closed = 1;
nodes = (
"252 76 OFFCURVE",
"186 177 OFFCURVE",
"186 312 CURVE SMOOTH",
"186 420 OFFCURVE",
"228 484 OFFCURVE",
"299 484 CURVE SMOOTH",
"388 484 OFFCURVE",
"454 383 OFFCURVE",
"454 248 CURVE SMOOTH",
"454 140 OFFCURVE",
"412 76 OFFCURVE",
"341 76 CURVE SMOOTH"
);
}
);
width = 640;
}
);
leftKerningGroup = o;
rightKerningGroup = o;
unicode = 006F;
},
{
glyphname = oslash;
layers = (
{
components = (
{
name = o;
}
);
layerId = "F446C85F-564E-4F2C-825C-C389DAA66B11";
paths = (
{
closed = 1;
nodes = (
"575 540 LINE",
"495 595 LINE",
"65 20 LINE",
"145 -35 LINE"
);
}
);
width = 640;
}
);
leftKerningGroup = o;
rightKerningGroup = o;
unicode = 00F8;
},
{
glyphname = oe;
layers = (
{
layerId = "F446C85F-564E-4F2C-825C-C389DAA66B11";
paths = (
{
closed = 1;
nodes = (
"458 -5 OFFCURVE",
"590 131 OFFCURVE",
"590 302 CURVE SMOOTH",
"590 454 OFFCURVE",
"479 565 OFFCURVE",
"328 565 CURVE SMOOTH",
"163 565 OFFCURVE",
"30 429 OFFCURVE",
"30 259 CURVE SMOOTH",
"30 106 OFFCURVE",
"141 -5 OFFCURVE",
"292 -5 CURVE SMOOTH"
);
},
{
closed = 1;
nodes = (
"245 76 OFFCURVE",
"181 176 OFFCURVE",
"181 304 CURVE SMOOTH",
"181 412 OFFCURVE",
"226 484 OFFCURVE",
"294 484 CURVE SMOOTH",
"375 484 OFFCURVE",
"439 384 OFFCURVE",
"439 256 CURVE SMOOTH",
"439 148 OFFCURVE",
"394 76 OFFCURVE",
"326 76 CURVE SMOOTH"
);
},
{
closed = 1;
nodes = (
"807 -5 OFFCURVE",
"892 41 OFFCURVE",
"960 133 CURVE",
"888 193 LINE",
"850 119 OFFCURVE",
"796 77 OFFCURVE",
"738 77 CURVE SMOOTH",
"651 77 OFFCURVE",
"590 169 OFFCURVE",
"590 302 CURVE SMOOTH",
"590 411 OFFCURVE",
"630 485 OFFCURVE",
"689 485 CURVE SMOOTH",
"744 485 OFFCURVE",
"793 421 OFFCURVE",
"797 343 CURVE",
"539 305 LINE",
"549 215 LINE",
"960 297 LINE",
"960 455 OFFCURVE",
"864 565 OFFCURVE",
"726 565 CURVE SMOOTH",
"570 565 OFFCURVE",
"439 424 OFFCURVE",
"439 256 CURVE SMOOTH",
"439 102 OFFCURVE",
"547 -5 OFFCURVE",
"704 -5 CURVE SMOOTH"
);
}
);
width = 990;
}
);
leftKerningGroup = o;
leftMetricsKey = o;
rightKerningGroup = e;
rightMetricsKey = e;
unicode = 0153;
},
{
glyphname = p;
layers = (
{
layerId = "F446C85F-564E-4F2C-825C-C389DAA66B11";
paths = (
{
closed = 1;
nodes = (
"469 -5 OFFCURVE",
"570 125 OFFCURVE",
"570 288 CURVE SMOOTH",
"570 447 OFFCURVE",
"475 565 OFFCURVE",
"348 565 CURVE SMOOTH",
"261 565 OFFCURVE",
"179 509 OFFCURVE",
"115 407 CURVE",
"186 367 LINE",
"213 439 OFFCURVE",
"257 483 OFFCURVE",
"302 483 CURVE SMOOTH",
"369 483 OFFCURVE",
"419 386 OFFCURVE",
"419 256 CURVE SMOOTH",
"419 142 OFFCURVE",
"382 75 OFFCURVE",
"319 75 CURVE SMOOTH",
"268 75 OFFCURVE",
"223 119 OFFCURVE",
"205 187 CURVE",
"110 113 LINE",
"179 40 OFFCURVE",
"268 -5 OFFCURVE",
"342 -5 CURVE SMOOTH"
);
},
{
closed = 1;
nodes = (
"220 -24 OFFCURVE",
"222 346 OFFCURVE",
"222 557 CURVE",
"175 557 OFFCURVE",
"93 555 OFFCURVE",
"50 553 CURVE",
"50 343 OFFCURVE",
"52 -20 OFFCURVE",
"55 -113 CURVE",
"97 -115 OFFCURVE",
"167 -117 OFFCURVE",
"217 -117 CURVE"
);
}
);
width = 600;
}
);
leftKerningGroup = p;
rightKerningGroup = o;
unicode = 0070;
},
{
glyphname = thorn;
layers = (
{
layerId = "F446C85F-564E-4F2C-825C-C389DAA66B11";
paths = (
{
closed = 1;
nodes = (
"469 -5 OFFCURVE",
"570 125 OFFCURVE",
"570 288 CURVE SMOOTH",
"570 447 OFFCURVE",
"475 565 OFFCURVE",
"348 565 CURVE SMOOTH",
"261 565 OFFCURVE",
"179 509 OFFCURVE",
"115 407 CURVE",
"186 367 LINE",
"213 439 OFFCURVE",
"257 483 OFFCURVE",
"302 483 CURVE SMOOTH",
"369 483 OFFCURVE",
"419 386 OFFCURVE",
"419 256 CURVE SMOOTH",
"419 142 OFFCURVE",
"382 75 OFFCURVE",
"319 75 CURVE SMOOTH",
"268 75 OFFCURVE",
"223 119 OFFCURVE",
"205 187 CURVE",
"110 113 LINE",
"179 40 OFFCURVE",
"268 -5 OFFCURVE",
"342 -5 CURVE SMOOTH"
);
},
{
closed = 1;
nodes = (
"222 179 OFFCURVE",
"220 681 OFFCURVE",
"217 757 CURVE",
"148 757 OFFCURVE",
"95 756 OFFCURVE",
"55 753 CURVE",
"52 678 OFFCURVE",
"50 173 OFFCURVE",
"50 -113 CURVE",
"106 -115 OFFCURVE",
"180 -117 OFFCURVE",
"222 -117 CURVE"
);
}
);
width = 600;
}
);
leftKerningGroup = thn;
rightKerningGroup = o;
unicode = 00FE;
},
{
glyphname = q;
layers = (
{
layerId = "F446C85F-564E-4F2C-825C-C389DAA66B11";
paths = (
{
closed = 1;
nodes = (
"339 -5 OFFCURVE",
"421 51 OFFCURVE",
"485 153 CURVE",
"414 193 LINE",
"387 121 OFFCURVE",
"343 77 OFFCURVE",
"298 77 CURVE SMOOTH",
"231 77 OFFCURVE",
"181 174 OFFCURVE",
"181 304 CURVE SMOOTH",
"181 418 OFFCURVE",
"218 485 OFFCURVE",
"281 485 CURVE SMOOTH",
"332 485 OFFCURVE",
"377 441 OFFCURVE",
"395 373 CURVE",
"490 447 LINE",
"421 520 OFFCURVE",
"332 565 OFFCURVE",
"258 565 CURVE SMOOTH",
"131 565 OFFCURVE",
"30 435 OFFCURVE",
"30 272 CURVE SMOOTH",
"30 113 OFFCURVE",
"125 -5 OFFCURVE",
"252 -5 CURVE SMOOTH"
);
},
{
closed = 1;
nodes = (
"423 -117 OFFCURVE",
"505 -115 OFFCURVE",
"550 -113 CURVE",
"550 73 OFFCURVE",
"548 460 OFFCURVE",
"545 553 CURVE",
"497 555 OFFCURVE",
"428 557 OFFCURVE",
"383 557 CURVE",
"380 464 OFFCURVE",
"378 68 OFFCURVE",
"378 -117 CURVE"
);
}
);
width = 600;
}
);
leftKerningGroup = o;
rightKerningGroup = q;
unicode = 0071;
},
{
glyphname = r;
layers = (
{
layerId = "F446C85F-564E-4F2C-825C-C389DAA66B11";
paths = (
{
closed = 1;
nodes = (
"447 326 OFFCURVE",
"502 340 OFFCURVE",
"555 357 CURVE",
"547 475 OFFCURVE",
"464 565 OFFCURVE",
"363 565 CURVE SMOOTH",
"274 565 OFFCURVE",
"171 494 OFFCURVE",
"106 388 CURVE",
"194 352 LINE",
"219 424 OFFCURVE",
"275 485 OFFCURVE",
"315 485 CURVE SMOOTH",
"360 485 OFFCURVE",
"399 408 OFFCURVE",
"399 318 CURVE"
);
},
{
closed = 1;
nodes = (
"200 82 OFFCURVE",
"202 309 OFFCURVE",
"202 557 CURVE",
"159 557 OFFCURVE",
"74 555 OFFCURVE",
"30 553 CURVE",
"30 315 OFFCURVE",
"32 82 OFFCURVE",
"35 2 CURVE",
"86 0 OFFCURVE",
"150 -2 OFFCURVE",
"197 -2 CURVE"
);
}
);
width = 585;
}
);
leftKerningGroup = m;
rightKerningGroup = r;
unicode = 0072;
},
{
glyphname = s;
layers = (
{
anchors = (
{
name = top;
position = "{305, 680}";
}
);
layerId = "F446C85F-564E-4F2C-825C-C389DAA66B11";
paths = (
{
closed = 1;
nodes = (
"469 -5 OFFCURVE",
"580 73 OFFCURVE",
"580 181 CURVE SMOOTH",
"580 298 OFFCURVE",
"452 331 OFFCURVE",
"347 356 CURVE SMOOTH",
"276 373 OFFCURVE",
"215 389 OFFCURVE",
"215 427 CURVE SMOOTH",
"215 454 OFFCURVE",
"246 485 OFFCURVE",
"305 485 CURVE SMOOTH",
"366 485 OFFCURVE",
"435 451 OFFCURVE",
"509 405 CURVE",
"565 500 LINE",
"490 541 OFFCURVE",
"396 565 OFFCURVE",
"308 565 CURVE SMOOTH",
"146 565 OFFCURVE",
"45 484 OFFCURVE",
"45 395 CURVE SMOOTH",
"45 302 OFFCURVE",
"155 268 OFFCURVE",
"254 238 CURVE SMOOTH",
"336 213 OFFCURVE",
"410 189 OFFCURVE",
"410 138 CURVE SMOOTH",
"410 108 OFFCURVE",
"384 77 OFFCURVE",
"327 77 CURVE SMOOTH",
"262 77 OFFCURVE",
"149 117 OFFCURVE",
"74 162 CURVE",
"30 41 LINE",
"108 17 OFFCURVE",
"234 -5 OFFCURVE",
"316 -5 CURVE SMOOTH"
);
}
);
width = 610;
}
);
leftKerningGroup = s;
rightKerningGroup = s;
unicode = 0073;
},
{
glyphname = germandbls;
layers = (
{
layerId = "F446C85F-564E-4F2C-825C-C389DAA66B11";
paths = (
{
closed = 1;
nodes = (
"449 -10 OFFCURVE",
"580 121 OFFCURVE",
"580 256 CURVE SMOOTH",
"580 359 OFFCURVE",
"503 443 OFFCURVE",
"395 460 CURVE",
"502 494 OFFCURVE",
"555 546 OFFCURVE",
"555 619 CURVE SMOOTH",
"555 710 OFFCURVE",
"472 765 OFFCURVE",
"335 765 CURVE SMOOTH",
"125 765 OFFCURVE",
"50 634 OFFCURVE",
"50 268 CURVE SMOOTH",
"50 195 OFFCURVE",
"53 112 OFFCURVE",
"60 -3 CURVE",
"114 -3 OFFCURVE",
"171 -1 OFFCURVE",
"222 3 CURVE",
"215 131 OFFCURVE",
"210 273 OFFCURVE",
"210 376 CURVE SMOOTH",
"210 606 OFFCURVE",
"235 685 OFFCURVE",
"308 685 CURVE SMOOTH",
"362 685 OFFCURVE",
"410 641 OFFCURVE",
"410 593 CURVE SMOOTH",
"410 534 OFFCURVE",
"337 489 OFFCURVE",
"185 454 CURVE",
"185 386 LINE",
"338 386 OFFCURVE",
"425 323 OFFCURVE",
"425 212 CURVE SMOOTH",
"425 130 OFFCURVE",
"377 74 OFFCURVE",
"296 60 CURVE",
"313 -10 LINE"
);
}
);
width = 610;
}
);
leftKerningGroup = sz;
rightKerningGroup = sz;
unicode = 00DF;
},
{
glyphname = t;
layers = (
{
layerId = "F446C85F-564E-4F2C-825C-C389DAA66B11";
paths = (
{
closed = 1;
nodes = (
"210 -2 OFFCURVE",
"266 -1 OFFCURVE",
"311 2 CURVE",
"314 85 OFFCURVE",
"316 491 OFFCURVE",
"316 753 CURVE",
"268 755 OFFCURVE",
"193 757 OFFCURVE",
"144 757 CURVE",
"144 479 OFFCURVE",
"146 80 OFFCURVE",
"149 -2 CURVE"
);
},
{
closed = 1;
nodes = (
"424 474 LINE",
"430 566 LINE",
"30 566 LINE",
"36 474 LINE"
);
}
);
width = 460;
}
);
leftKerningGroup = t;
rightKerningGroup = t;
unicode = 0074;
},
{
glyphname = u;
layers = (
{
anchors = (
{
name = bottom;
position = "{530, 20}";
},
{
name = top;
position = "{318, 680}";
}
);
layerId = "F446C85F-564E-4F2C-825C-C389DAA66B11";
paths = (
{
closed = 1;
nodes = (
"354 -5 OFFCURVE",
"453 56 OFFCURVE",
"540 172 CURVE",
"452 228 LINE",
"423 140 OFFCURVE",
"359 75 OFFCURVE",
"302 75 CURVE SMOOTH",
"234 75 OFFCURVE",
"202 168 OFFCURVE",
"202 374 CURVE SMOOTH",
"202 426 OFFCURVE",
"204 485 OFFCURVE",
"208 552 CURVE",
"121 552 OFFCURVE",
"68 551 OFFCURVE",
"36 548 CURVE",
"32 496 OFFCURVE",
"30 447 OFFCURVE",
"30 402 CURVE SMOOTH",
"30 129 OFFCURVE",
"104 -5 OFFCURVE",
"253 -5 CURVE SMOOTH"
);
},
{
closed = 1;
nodes = (
"485 -2 OFFCURVE",
"543 -1 OFFCURVE",
"595 2 CURVE",
"598 90 OFFCURVE",
"600 338 OFFCURVE",
"600 553 CURVE",
"557 555 OFFCURVE",
"482 557 OFFCURVE",
"428 557 CURVE",
"428 316 OFFCURVE",
"430 84 OFFCURVE",
"433 -2 CURVE"
);
}
);
width = 630;
}
);
leftKerningGroup = u;
rightKerningGroup = u;
unicode = 0075;
},
{
glyphname = v;
layers = (
{
layerId = "F446C85F-564E-4F2C-825C-C389DAA66B11";
paths = (
{
closed = 1;
nodes = (
"280 -9 OFFCURVE",
"338 -6 OFFCURVE",
"389 -1 CURVE",
"465 166 OFFCURVE",
"541 355 OFFCURVE",
"610 548 CURVE",
"504 562 LINE",
"467 418 OFFCURVE",
"415 261 OFFCURVE",
"355 114 CURVE",
"296 265 OFFCURVE",
"244 422 OFFCURVE",
"206 566 CURVE",
"158 563 OFFCURVE",
"90 556 OFFCURVE",
"10 544 CURVE",
"75 367 OFFCURVE",
"155 167 OFFCURVE",
"231 -9 CURVE"
);
}
);
width = 620;
}
);
leftKerningGroup = v;
rightKerningGroup = v;
unicode = 0076;
},
{
glyphname = w;
layers = (
{
layerId = "F446C85F-564E-4F2C-825C-C389DAA66B11";
paths = (
{
closed = 1;
nodes = (
"357 136 OFFCURVE",
"413 340 OFFCURVE",
"460 547 CURVE",
"364 553 LINE",
"343 437 OFFCURVE",
"314 294 OFFCURVE",
"275 124 CURVE",
"243 256 OFFCURVE",
"210 417 OFFCURVE",
"186 561 CURVE",
"147 561 OFFCURVE",
"89 557 OFFCURVE",
"10 549 CURVE",
"48 380 OFFCURVE",
"112 149 OFFCURVE",
"161 3 CURVE",
"209 -1 OFFCURVE",
"259 -3 OFFCURVE",
"309 -3 CURVE"
);
},
{
closed = 1;
nodes = (
"581 -3 OFFCURVE",
"630 -1 OFFCURVE",
"663 3 CURVE",
"710 144 OFFCURVE",
"767 351 OFFCURVE",
"814 552 CURVE",
"718 558 LINE",
"696 433 OFFCURVE",
"665 283 OFFCURVE",
"629 124 CURVE",
"597 254 OFFCURVE",
"565 410 OFFCURVE",
"540 557 CURVE",
"501 557 OFFCURVE",
"413 555 OFFCURVE",
"364 553 CURVE",
"401 385 OFFCURVE",
"464 153 OFFCURVE",
"515 -3 CURVE"
);
}
);
width = 824;
}
);
leftKerningGroup = v;
rightKerningGroup = v;
unicode = 0077;
},
{
glyphname = x;
layers = (
{
layerId = "F446C85F-564E-4F2C-825C-C389DAA66B11";
paths = (
{
closed = 1;
nodes = (
"492 -8 OFFCURVE",
"567 -2 OFFCURVE",
"620 8 CURVE",
"565 102 OFFCURVE",
"327 430 OFFCURVE",
"216 566 CURVE",
"167 564 OFFCURVE",
"67 554 OFFCURVE",
"10 544 CURVE",
"147 380 OFFCURVE",
"304 175 OFFCURVE",
"431 -8 CURVE"
);
},
{
closed = 1;
nodes = (
"257 152 OFFCURVE",
"476 421 OFFCURVE",
"590 549 CURVE",
"471 561 LINE",
"336 404 OFFCURVE",
"118 129 OFFCURVE",
"30 3 CURVE",
"140 -3 LINE"
);
}
);
width = 630;
}
);
leftKerningGroup = x;
rightKerningGroup = x;
unicode = 0078;
},
{
glyphname = y;
layers = (
{
anchors = (
{
name = top;
position = "{350, 680}";
}
);
layerId = "F446C85F-564E-4F2C-825C-C389DAA66B11";
paths = (
{
closed = 1;
nodes = (
"334 -120 OFFCURVE",
"480 67 OFFCURVE",
"610 548 CURVE",
"489 562 LINE",
"370 75 OFFCURVE",
"302 -23 OFFCURVE",
"70 -38 CURVE",
"80 -132 LINE"
);
},
{
closed = 1;
nodes = (
"394 74 LINE",
"316 262 OFFCURVE",
"245 447 OFFCURVE",
"206 566 CURVE",
"136 561 OFFCURVE",
"58 552 OFFCURVE",
"10 544 CURVE",
"68 385 OFFCURVE",
"166 162 OFFCURVE",
"251 -9 CURVE"
);
}
);
width = 620;
}
);
leftKerningGroup = v;
rightKerningGroup = v;
unicode = 0079;
},
{
glyphname = z;
layers = (
{
anchors = (
{
name = top;
position = "{305, 680}";
}
);
layerId = "F446C85F-564E-4F2C-825C-C389DAA66B11";
paths = (
{
closed = 1;
nodes = (
"574 91 LINE",
"483 82 OFFCURVE",
"351 74 OFFCURVE",
"227 74 CURVE",
"342 191 OFFCURVE",
"482 345 OFFCURVE",
"572 453 CURVE",
"551 550 LINE",
"478 556 OFFCURVE",
"261 560 OFFCURVE",
"38 560 CURVE",
"45 465 LINE",
"124 473 OFFCURVE",
"263 482 OFFCURVE",
"373 482 CURVE",
"276 356 OFFCURVE",
"122 186 OFFCURVE",
"30 103 CURVE",
"49 4 LINE",
"129 -1 OFFCURVE",
"341 -4 OFFCURVE",
"580 -4 CURVE"
);
}
);
width = 610;
}
);
leftKerningGroup = z;
rightKerningGroup = z;
unicode = 007A;
},
{
glyphname = a.full;
layers = (
{
layerId = "F446C85F-564E-4F2C-825C-C389DAA66B11";
paths = (
{
closed = 1;
nodes = (
"546 -13 OFFCURVE",
"621 -11 OFFCURVE",
"648 -9 CURVE",
"648 408 OFFCURVE",
"563 571 OFFCURVE",
"346 571 CURVE SMOOTH",
"254 571 OFFCURVE",
"153 541 OFFCURVE",
"50 483 CURVE",
"81 380 LINE",
"168 445 OFFCURVE",
"259 488 OFFCURVE",
"312 488 CURVE SMOOTH",
"416 488 OFFCURVE",
"468 322 OFFCURVE",
"468 -13 CURVE"
);
},
{
closed = 1;
nodes = (
"344 -17 OFFCURVE",
"436 21 OFFCURVE",
"530 97 CURVE",
"477 152 LINE",
"425 101 OFFCURVE",
"373 76 OFFCURVE",
"318 76 CURVE SMOOTH",
"260 76 OFFCURVE",
"223 103 OFFCURVE",
"223 145 CURVE SMOOTH",
"223 223 OFFCURVE",
"351 319 OFFCURVE",
"469 328 CURVE",
"443 401 LINE",
"214 377 OFFCURVE",
"50 268 OFFCURVE",
"50 138 CURVE SMOOTH",
"50 46 OFFCURVE",
"132 -17 OFFCURVE",
"251 -17 CURVE SMOOTH"
);
}
);
width = 698;
}
);
leftKerningGroup = a;
rightKerningGroup = a;
unicode = FF41;
},
{
glyphname = b.full;
layers = (
{
layerId = "F446C85F-564E-4F2C-825C-C389DAA66B11";
paths = (
{
closed = 1;
nodes = (
"510 -17 OFFCURVE",
"616 117 OFFCURVE",
"616 285 CURVE SMOOTH",
"616 449 OFFCURVE",
"516 571 OFFCURVE",
"383 571 CURVE SMOOTH",
"292 571 OFFCURVE",
"205 513 OFFCURVE",
"138 408 CURVE",
"213 367 LINE",
"241 441 OFFCURVE",
"287 486 OFFCURVE",
"335 486 CURVE SMOOTH",
"405 486 OFFCURVE",
"457 386 OFFCURVE",
"457 252 CURVE SMOOTH",
"457 135 OFFCURVE",
"419 66 OFFCURVE",
"352 66 CURVE SMOOTH",
"299 66 OFFCURVE",
"252 111 OFFCURVE",
"233 181 CURVE",
"133 105 LINE",
"205 30 OFFCURVE",
"299 -17 OFFCURVE",
"377 -17 CURVE SMOOTH"
);
},
{
closed = 1;
nodes = (
"249 82 OFFCURVE",
"251 555 OFFCURVE",
"251 764 CURVE",
"203 766 OFFCURVE",
"117 769 OFFCURVE",
"70 769 CURVE",
"70 560 OFFCURVE",
"72 84 OFFCURVE",
"75 -9 CURVE",
"116 -11 OFFCURVE",
"184 -13 OFFCURVE",
"245 -13 CURVE"
);
}
);
width = 666;
}
);
leftKerningGroup = l;
rightKerningGroup = o;
unicode = FF42;
},
{
glyphname = c.full;
layers = (
{
layerId = "F446C85F-564E-4F2C-825C-C389DAA66B11";
paths = (
{
closed = 1;
nodes = (
"449 -16 OFFCURVE",
"541 26 OFFCURVE",
"622 105 CURVE",
"558 167 LINE",
"520 106 OFFCURVE",
"459 68 OFFCURVE",
"401 68 CURVE SMOOTH",
"302 68 OFFCURVE",
"219 184 OFFCURVE",
"219 322 CURVE SMOOTH",
"219 424 OFFCURVE",
"266 489 OFFCURVE",
"339 489 CURVE SMOOTH",
"407 489 OFFCURVE",
"482 434 OFFCURVE",
"527 353 CURVE",
"627 460 LINE",
"544 534 OFFCURVE",
"457 571 OFFCURVE",
"367 571 CURVE SMOOTH",
"193 571 OFFCURVE",
"50 436 OFFCURVE",
"50 275 CURVE SMOOTH",
"50 118 OFFCURVE",
"189 -16 OFFCURVE",
"355 -16 CURVE SMOOTH"
);
}
);
width = 657;
}
);
leftKerningGroup = o;
rightKerningGroup = c;
unicode = FF43;
},
{
glyphname = d.full;
layers = (
{
layerId = "F446C85F-564E-4F2C-825C-C389DAA66B11";
paths = (
{
closed = 1;
nodes = (
"374 -15 OFFCURVE",
"461 42 OFFCURVE",
"528 147 CURVE",
"453 188 LINE",
"425 114 OFFCURVE",
"379 69 OFFCURVE",
"331 69 CURVE SMOOTH",
"261 69 OFFCURVE",
"209 169 OFFCURVE",
"209 303 CURVE SMOOTH",
"209 420 OFFCURVE",
"247 489 OFFCURVE",
"314 489 CURVE SMOOTH",
"367 489 OFFCURVE",
"414 444 OFFCURVE",
"433 374 CURVE",
"533 450 LINE",
"461 525 OFFCURVE",
"367 572 OFFCURVE",
"289 572 CURVE SMOOTH",
"156 572 OFFCURVE",
"50 438 OFFCURVE",
"50 270 CURVE SMOOTH",
"50 106 OFFCURVE",
"150 -15 OFFCURVE",
"283 -15 CURVE SMOOTH"
);
},
{
closed = 1;
nodes = (
"593 50 OFFCURVE",
"596 556 OFFCURVE",
"596 765 CURVE",
"549 767 OFFCURVE",
"463 770 OFFCURVE",
"415 770 CURVE",
"415 561 OFFCURVE",
"418 85 OFFCURVE",
"421 -8 CURVE",
"462 -10 OFFCURVE",
"530 -12 OFFCURVE",
"591 -12 CURVE"
);
}
);
width = 666;
}
);
leftKerningGroup = o;
rightKerningGroup = l;
unicode = FF44;
},
{
glyphname = e.full;
layers = (
{
layerId = "F446C85F-564E-4F2C-825C-C389DAA66B11";
paths = (
{
closed = 1;
nodes = (
"458 -16 OFFCURVE",
"559 35 OFFCURVE",
"627 126 CURVE",
"552 188 LINE",
"517 118 OFFCURVE",
"445 68 OFFCURVE",
"380 68 CURVE SMOOTH",
"284 68 OFFCURVE",
"207 179 OFFCURVE",
"207 320 CURVE SMOOTH",
"207 426 OFFCURVE",
"250 489 OFFCURVE",
"321 489 CURVE SMOOTH",
"390 489 OFFCURVE",
"442 430 OFFCURVE",
"452 342 CURVE",
"165 303 LINE",
"176 210 LINE",
"638 295 LINE",
"622 461 OFFCURVE",
"504 571 OFFCURVE",
"345 571 CURVE SMOOTH",
"176 571 OFFCURVE",
"50 446 OFFCURVE",
"50 278 CURVE SMOOTH",
"50 110 OFFCURVE",
"178 -16 OFFCURVE",
"349 -16 CURVE SMOOTH"
);
}
);
width = 688;
}
);
leftKerningGroup = o;
rightKerningGroup = e;
unicode = FF45;
},
{
glyphname = f.full;
layers = (
{
layerId = "F446C85F-564E-4F2C-825C-C389DAA66B11";
paths = (
{
closed = 1;
nodes = (
"183 -13 OFFCURVE",
"253 -11 OFFCURVE",
"312 -9 CURVE",
"309 68 OFFCURVE",
"308 148 OFFCURVE",
"308 236 CURVE SMOOTH",
"308 623 OFFCURVE",
"328 695 OFFCURVE",
"439 695 CURVE",
"443 782 LINE",
"162 769 OFFCURVE",
"128 684 OFFCURVE",
"128 -13 CURVE"
);
},
{
closed = 1;
nodes = (
"442 477 LINE",
"449 572 LINE",
"50 572 LINE",
"56 477 LINE"
);
}
);
width = 499;
}
);
leftKerningGroup = f;
rightKerningGroup = f;
unicode = FF46;
},
{
glyphname = g.full;
layers = (
{
layerId = "F446C85F-564E-4F2C-825C-C389DAA66B11";
paths = (
{
closed = 1;
nodes = (
"528 -145 OFFCURVE",
"617 -42 OFFCURVE",
"617 406 CURVE SMOOTH",
"617 454 OFFCURVE",
"615 509 OFFCURVE",
"613 563 CURVE",
"544 563 OFFCURVE",
"495 562 OFFCURVE",
"433 559 CURVE",
"444 416 OFFCURVE",
"449 333 OFFCURVE",
"449 263 CURVE SMOOTH",
"449 10 OFFCURVE",
"392 -50 OFFCURVE",
"140 -63 CURVE",
"143 -145 LINE"
);
},
{
closed = 1;
nodes = (
"380 25 OFFCURVE",
"475 86 OFFCURVE",
"527 188 CURVE",
"453 229 LINE",
"436 160 OFFCURVE",
"396 123 OFFCURVE",
"339 123 CURVE SMOOTH",
"260 123 OFFCURVE",
"208 197 OFFCURVE",
"208 313 CURVE SMOOTH",
"208 419 OFFCURVE",
"250 483 OFFCURVE",
"318 483 CURVE SMOOTH",
"376 483 OFFCURVE",
"432 438 OFFCURVE",
"454 373 CURVE",
"554 449 LINE",
"480 522 OFFCURVE",
"372 571 OFFCURVE",
"289 571 CURVE SMOOTH",
"156 571 OFFCURVE",
"50 441 OFFCURVE",
"50 278 CURVE SMOOTH",
"50 127 OFFCURVE",
"141 25 OFFCURVE",
"276 25 CURVE SMOOTH"
);
}
);
width = 687;
}
);
leftKerningGroup = g;
rightKerningGroup = g;
unicode = FF47;
},
{
glyphname = h.full;
layers = (
{
layerId = "F446C85F-564E-4F2C-825C-C389DAA66B11";
paths = (
{
closed = 1;
nodes = (
"563 -13 OFFCURVE",
"611 -12 OFFCURVE",
"647 -9 CURVE",
"647 387 OFFCURVE",
"570 571 OFFCURVE",
"405 571 CURVE SMOOTH",
"308 571 OFFCURVE",
"200 506 OFFCURVE",
"139 409 CURVE",
"231 351 LINE",
"258 430 OFFCURVE",
"312 488 OFFCURVE",
"356 488 CURVE SMOOTH",
"429 488 OFFCURVE",
"466 321 OFFCURVE",
"466 -13 CURVE"
);
},
{
closed = 1;
nodes = (
"247 49 OFFCURVE",
"250 551 OFFCURVE",
"250 769 CURVE",
"201 769 OFFCURVE",
"115 766 OFFCURVE",
"70 764 CURVE",
"70 548 OFFCURVE",
"72 84 OFFCURVE",
"75 -9 CURVE",
"119 -11 OFFCURVE",
"192 -13 OFFCURVE",
"245 -13 CURVE"
);
}
);
width = 697;
}
);
leftKerningGroup = l;
rightKerningGroup = m;
unicode = FF48;
},
{
glyphname = i.full;
layers = (
{
layerId = "F446C85F-564E-4F2C-825C-C389DAA66B11";
paths = (
{
closed = 1;
nodes = (
"249 632 LINE",
"249 772 LINE",
"71 772 LINE",
"71 632 LINE"
);
},
{
closed = 1;
nodes = (
"120 -13 OFFCURVE",
"181 -11 OFFCURVE",
"245 -8 CURVE",
"248 85 OFFCURVE",
"250 347 OFFCURVE",
"250 548 CURVE",
"210 550 OFFCURVE",
"133 552 OFFCURVE",
"70 552 CURVE",
"70 310 OFFCURVE",
"72 78 OFFCURVE",
"75 -13 CURVE"
);
}
);
width = 320;
}
);
leftKerningGroup = i;
rightKerningGroup = i;
unicode = FF49;
},
{
glyphname = j.full;
layers = (
{
layerId = "F446C85F-564E-4F2C-825C-C389DAA66B11";
paths = (
{
closed = 1;
nodes = (
"263 -109 OFFCURVE",
"339 43 OFFCURVE",
"339 363 CURVE SMOOTH",
"339 415 OFFCURVE",
"337 479 OFFCURVE",
"333 552 CURVE",
"264 552 OFFCURVE",
"204 551 OFFCURVE",
"152 548 CURVE",
"160 445 OFFCURVE",
"163 363 OFFCURVE",
"163 305 CURVE SMOOTH",
"163 96 OFFCURVE",
"122 -13 OFFCURVE",
"30 -52 CURVE",
"82 -145 LINE"
);
},
{
closed = 1;
nodes = (
"330 633 LINE",
"330 772 LINE",
"151 772 LINE",
"151 633 LINE"
);
}
);
width = 409;
}
);
leftKerningGroup = j;
rightKerningGroup = j;
unicode = FF4A;
},
{
glyphname = k.full;
layers = (
{
layerId = "F446C85F-564E-4F2C-825C-C389DAA66B11";
paths = (
{
closed = 1;
nodes = (
"384 335 OFFCURVE",
"539 452 OFFCURVE",
"633 540 CURVE",
"540 602 LINE",
"470 526 OFFCURVE",
"325 400 OFFCURVE",
"196 302 CURVE",
"233 236 LINE"
);
},
{
closed = 1;
nodes = (
"159 -13 OFFCURVE",
"208 -12 OFFCURVE",
"245 -9 CURVE",
"248 84 OFFCURVE",
"250 583 OFFCURVE",
"250 764 CURVE",
"203 766 OFFCURVE",
"132 769 OFFCURVE",
"70 769 CURVE",
"70 593 OFFCURVE",
"72 80 OFFCURVE",
"75 -13 CURVE"
);
},
{
closed = 1;
nodes = (
"668 0 LINE",
"611 124 OFFCURVE",
"515 311 OFFCURVE",
"459 407 CURVE",
"310 352 LINE",
"360 256 OFFCURVE",
"417 119 OFFCURVE",
"467 -21 CURVE"
);
}
);
width = 698;
}
);
leftKerningGroup = l;
rightKerningGroup = k;
unicode = FF4B;
},
{
glyphname = l.full;
layers = (
{
layerId = "F446C85F-564E-4F2C-825C-C389DAA66B11";
paths = (
{
closed = 1;
nodes = (
"169 769 OFFCURVE",
"116 768 OFFCURVE",
"75 765 CURVE",
"72 672 OFFCURVE",
"70 573 OFFCURVE",
"70 495 CURVE SMOOTH",
"70 117 OFFCURVE",
"119 -14 OFFCURVE",
"269 -32 CURVE",
"343 50 LINE",
"273 86 OFFCURVE",
"246 222 OFFCURVE",
"246 548 CURVE SMOOTH",
"246 612 OFFCURVE",
"247 691 OFFCURVE",
"250 769 CURVE"
);
}
);
width = 373;
}
);
leftKerningGroup = l;
rightKerningGroup = l;
unicode = FF4C;
},
{
glyphname = m.full;
layers = (
{
layerId = "F446C85F-564E-4F2C-825C-C389DAA66B11";
paths = (
{
closed = 1;
nodes = (
"808 -15 OFFCURVE",
"878 -12 OFFCURVE",
"918 -7 CURVE",
"920 34 OFFCURVE",
"921 67 OFFCURVE",
"921 104 CURVE SMOOTH",
"921 422 OFFCURVE",
"851 571 OFFCURVE",
"701 571 CURVE SMOOTH",
"607 571 OFFCURVE",
"518 513 OFFCURVE",
"453 409 CURVE",
"545 352 LINE",
"567 426 OFFCURVE",
"623 489 OFFCURVE",
"665 489 CURVE SMOOTH",
"718 489 OFFCURVE",
"744 389 OFFCURVE",
"744 175 CURVE SMOOTH",
"744 111 OFFCURVE",
"741 43 OFFCURVE",
"737 -15 CURVE"
);
},
{
closed = 1;
nodes = (
"220 250 OFFCURVE",
"218 481 OFFCURVE",
"214 559 CURVE",
"166 561 OFFCURVE",
"99 563 OFFCURVE",
"55 563 CURVE",
"52 477 OFFCURVE",
"50 249 OFFCURVE",
"50 -9 CURVE",
"84 -11 OFFCURVE",
"172 -13 OFFCURVE",
"220 -13 CURVE"
);
},
{
closed = 1;
nodes = (
"440 -13 OFFCURVE",
"525 -11 OFFCURVE",
"567 -9 CURVE",
"569 34 OFFCURVE",
"570 77 OFFCURVE",
"570 124 CURVE SMOOTH",
"570 453 OFFCURVE",
"522 571 OFFCURVE",
"389 571 CURVE SMOOTH",
"299 571 OFFCURVE",
"212 515 OFFCURVE",
"117 399 CURVE",
"209 352 LINE",
"235 428 OFFCURVE",
"290 489 OFFCURVE",
"332 489 CURVE SMOOTH",
"377 489 OFFCURVE",
"393 420 OFFCURVE",
"393 224 CURVE SMOOTH",
"393 148 OFFCURVE",
"391 60 OFFCURVE",
"387 -13 CURVE"
);
}
);
width = 971;
}
);
leftKerningGroup = m;
rightKerningGroup = m;
unicode = FF4D;
},
{
glyphname = n.full;
layers = (
{
layerId = "F446C85F-564E-4F2C-825C-C389DAA66B11";
paths = (
{
closed = 1;
nodes = (
"649 405 OFFCURVE",
"582 571 OFFCURVE",
"412 571 CURVE SMOOTH",
"308 571 OFFCURVE",
"204 508 OFFCURVE",
"113 389 CURVE",
"205 331 LINE",
"235 422 OFFCURVE",
"300 489 OFFCURVE",
"358 489 CURVE SMOOTH",
"439 489 OFFCURVE",
"468 356 OFFCURVE",
"468 -9 CURVE",
"516 -11 OFFCURVE",
"600 -13 OFFCURVE",
"649 -13 CURVE"
);
},
{
closed = 1;
nodes = (
"114 -13 OFFCURVE",
"181 -11 OFFCURVE",
"225 -9 CURVE",
"228 77 OFFCURVE",
"230 323 OFFCURVE",
"230 559 CURVE",
"185 561 OFFCURVE",
"96 563 OFFCURVE",
"50 563 CURVE",
"50 310 OFFCURVE",
"52 74 OFFCURVE",
"55 -13 CURVE"
);
}
);
width = 699;
}
);
leftKerningGroup = m;
rightKerningGroup = m;
unicode = FF4E;
},
{
glyphname = o.full;
layers = (
{
layerId = "F446C85F-564E-4F2C-825C-C389DAA66B11";
paths = (
{
closed = 1;
nodes = (
"518 -16 OFFCURVE",
"659 119 OFFCURVE",
"659 286 CURVE SMOOTH",
"659 445 OFFCURVE",
"528 571 OFFCURVE",
"362 571 CURVE SMOOTH",
"190 571 OFFCURVE",
"50 436 OFFCURVE",
"50 269 CURVE SMOOTH",
"50 110 OFFCURVE",
"180 -16 OFFCURVE",
"346 -16 CURVE SMOOTH"
);
},
{
closed = 1;
nodes = (
"283 67 OFFCURVE",
"213 171 OFFCURVE",
"213 310 CURVE SMOOTH",
"213 422 OFFCURVE",
"257 488 OFFCURVE",
"332 488 CURVE SMOOTH",
"425 488 OFFCURVE",
"495 383 OFFCURVE",
"495 244 CURVE SMOOTH",
"495 133 OFFCURVE",
"451 67 OFFCURVE",
"376 67 CURVE SMOOTH"
);
}
);
width = 709;
}
);
leftKerningGroup = o;
rightKerningGroup = o;
unicode = FF4F;
},
{
glyphname = p.full;
layers = (
{
layerId = "F446C85F-564E-4F2C-825C-C389DAA66B11";
paths = (
{
closed = 1;
nodes = (
"510 -17 OFFCURVE",
"616 117 OFFCURVE",
"616 285 CURVE SMOOTH",
"616 449 OFFCURVE",
"516 571 OFFCURVE",
"383 571 CURVE SMOOTH",
"292 571 OFFCURVE",
"205 513 OFFCURVE",
"138 408 CURVE",
"213 366 LINE",
"241 441 OFFCURVE",
"287 486 OFFCURVE",
"335 486 CURVE SMOOTH",
"405 486 OFFCURVE",
"457 386 OFFCURVE",
"457 252 CURVE SMOOTH",
"457 134 OFFCURVE",
"419 65 OFFCURVE",
"352 65 CURVE SMOOTH",
"299 65 OFFCURVE",
"252 111 OFFCURVE",
"233 181 CURVE",
"133 105 LINE",
"205 29 OFFCURVE",
"299 -17 OFFCURVE",
"377 -17 CURVE SMOOTH"
);
},
{
closed = 1;
nodes = (
"249 -37 OFFCURVE",
"251 345 OFFCURVE",
"251 562 CURVE",
"201 562 OFFCURVE",
"115 560 OFFCURVE",
"70 558 CURVE",
"70 342 OFFCURVE",
"72 -35 OFFCURVE",
"75 -128 CURVE",
"119 -130 OFFCURVE",
"193 -132 OFFCURVE",
"245 -132 CURVE"
);
}
);
width = 666;
}
);
leftKerningGroup = p;
rightKerningGroup = o;
unicode = FF50;
},
{
glyphname = q.full;
layers = (
{
layerId = "F446C85F-564E-4F2C-825C-C389DAA66B11";
paths = (
{
closed = 1;
nodes = (
"374 -16 OFFCURVE",
"461 42 OFFCURVE",
"528 147 CURVE",
"453 188 LINE",
"425 114 OFFCURVE",
"379 68 OFFCURVE",
"331 68 CURVE SMOOTH",
"261 68 OFFCURVE",
"209 168 OFFCURVE",
"209 302 CURVE SMOOTH",
"209 420 OFFCURVE",
"247 489 OFFCURVE",
"314 489 CURVE SMOOTH",
"367 489 OFFCURVE",
"414 444 OFFCURVE",
"433 374 CURVE",
"533 450 LINE",
"461 525 OFFCURVE",
"367 572 OFFCURVE",
"289 572 CURVE SMOOTH",
"156 572 OFFCURVE",
"50 437 OFFCURVE",
"50 269 CURVE SMOOTH",
"50 106 OFFCURVE",
"150 -16 OFFCURVE",
"283 -16 CURVE SMOOTH"
);
},
{
closed = 1;
nodes = (
"463 -131 OFFCURVE",
"549 -129 OFFCURVE",
"596 -127 CURVE",
"596 64 OFFCURVE",
"594 466 OFFCURVE",
"591 559 CURVE",
"540 561 OFFCURVE",
"468 563 OFFCURVE",
"421 563 CURVE",
"418 470 OFFCURVE",
"415 59 OFFCURVE",
"415 -131 CURVE"
);
}
);
width = 666;
}
);
leftKerningGroup = o;
rightKerningGroup = q;
unicode = FF51;
},
{
glyphname = r.full;
layers = (
{
layerId = "F446C85F-564E-4F2C-825C-C389DAA66B11";
paths = (
{
closed = 1;
nodes = (
"487 325 OFFCURVE",
"545 339 OFFCURVE",
"601 357 CURVE",
"592 478 OFFCURVE",
"505 571 OFFCURVE",
"399 571 CURVE SMOOTH",
"306 571 OFFCURVE",
"198 498 OFFCURVE",
"129 389 CURVE",
"222 352 LINE",
"248 426 OFFCURVE",
"307 489 OFFCURVE",
"349 489 CURVE SMOOTH",
"396 489 OFFCURVE",
"437 409 OFFCURVE",
"437 317 CURVE"
);
},
{
closed = 1;
nodes = (
"228 73 OFFCURVE",
"230 307 OFFCURVE",
"230 563 CURVE",
"185 563 OFFCURVE",
"96 561 OFFCURVE",
"50 559 CURVE",
"50 313 OFFCURVE",
"52 73 OFFCURVE",
"55 -9 CURVE",
"108 -11 OFFCURVE",
"176 -13 OFFCURVE",
"225 -13 CURVE"
);
}
);
width = 651;
}
);
leftKerningGroup = m;
rightKerningGroup = r;
unicode = FF52;
},
{
color = 3;
glyphname = a.rotat;
layers = (
{
anchors = (
{
name = top;
position = "{800, 565}";
}
);
layerId = "F446C85F-564E-4F2C-825C-C389DAA66B11";
paths = (
{
closed = 1;
nodes = (
"118 377 OFFCURVE",
"120 306 OFFCURVE",
"122 280 CURVE",
"527 280 OFFCURVE",
"685 361 OFFCURVE",
"685 568 CURVE SMOOTH",
"685 656 OFFCURVE",
"656 752 OFFCURVE",
"600 850 CURVE",
"500 820 LINE",
"563 738 OFFCURVE",
"605 651 OFFCURVE",
"605 600 CURVE SMOOTH",
"605 501 OFFCURVE",
"444 452 OFFCURVE",
"118 452 CURVE"
);
},
{
closed = 1;
nodes = (
"115 570 OFFCURVE",
"151 482 OFFCURVE",
"225 392 CURVE",
"279 443 LINE",
"229 493 OFFCURVE",
"205 542 OFFCURVE",
"205 595 CURVE SMOOTH",
"205 650 OFFCURVE",
"231 685 OFFCURVE",
"272 685 CURVE SMOOTH",
"348 685 OFFCURVE",
"441 563 OFFCURVE",
"450 451 CURVE",
"520 475 LINE",
"497 694 OFFCURVE",
"391 850 OFFCURVE",
"265 850 CURVE SMOOTH",
"176 850 OFFCURVE",
"115 772 OFFCURVE",
"115 658 CURVE SMOOTH"
);
}
);
vertWidth = 630;
width = 1000;
}
);
},
{
color = 3;
glyphname = aacute.rotat;
layers = (
{
anchors = (
{
name = top;
position = "{800, 565}";
}
);
layerId = "F446C85F-564E-4F2C-825C-C389DAA66B11";
paths = (
{
closed = 1;
nodes = (
"118 377 OFFCURVE",
"120 306 OFFCURVE",
"122 280 CURVE",
"527 280 OFFCURVE",
"685 361 OFFCURVE",
"685 568 CURVE SMOOTH",
"685 656 OFFCURVE",
"656 752 OFFCURVE",
"600 850 CURVE",
"500 820 LINE",
"563 738 OFFCURVE",
"605 651 OFFCURVE",
"605 600 CURVE SMOOTH",
"605 501 OFFCURVE",
"444 452 OFFCURVE",
"118 452 CURVE"
);
},
{
closed = 1;
nodes = (
"115 570 OFFCURVE",
"151 482 OFFCURVE",
"225 392 CURVE",
"279 443 LINE",
"229 493 OFFCURVE",
"205 542 OFFCURVE",
"205 595 CURVE SMOOTH",
"205 650 OFFCURVE",
"231 685 OFFCURVE",
"272 685 CURVE SMOOTH",
"348 685 OFFCURVE",
"441 563 OFFCURVE",
"450 451 CURVE",
"520 475 LINE",
"497 694 OFFCURVE",
"391 850 OFFCURVE",
"265 850 CURVE SMOOTH",
"176 850 OFFCURVE",
"115 772 OFFCURVE",
"115 658 CURVE SMOOTH"
);
},
{
closed = 1;
nodes = (
"807 415 LINE",
"903 477 LINE",
"757 715 LINE",
"717 699 LINE"
);
}
);
vertWidth = 630;
width = 1000;
}
);
},
{
color = 3;
glyphname = acircumflex.rotat;
layers = (
{
anchors = (
{
name = top;
position = "{800, 565}";
}
);
layerId = "F446C85F-564E-4F2C-825C-C389DAA66B11";
paths = (
{
closed = 1;
nodes = (
"118 377 OFFCURVE",
"120 306 OFFCURVE",
"122 280 CURVE",
"527 280 OFFCURVE",
"685 361 OFFCURVE",
"685 568 CURVE SMOOTH",
"685 656 OFFCURVE",
"656 752 OFFCURVE",
"600 850 CURVE",
"500 820 LINE",
"563 738 OFFCURVE",
"605 651 OFFCURVE",
"605 600 CURVE SMOOTH",
"605 501 OFFCURVE",
"444 452 OFFCURVE",
"118 452 CURVE"
);
},
{
closed = 1;
nodes = (
"115 570 OFFCURVE",
"151 482 OFFCURVE",
"225 392 CURVE",
"279 443 LINE",
"229 493 OFFCURVE",
"205 542 OFFCURVE",
"205 595 CURVE SMOOTH",
"205 650 OFFCURVE",
"231 685 OFFCURVE",
"272 685 CURVE SMOOTH",
"348 685 OFFCURVE",
"441 563 OFFCURVE",
"450 451 CURVE",
"520 475 LINE",
"497 694 OFFCURVE",
"391 850 OFFCURVE",
"265 850 CURVE SMOOTH",
"176 850 OFFCURVE",
"115 772 OFFCURVE",
"115 658 CURVE SMOOTH"
);
},
{
closed = 1;
nodes = (
"802 565 LINE",
"709 408 LINE",
"739 374 LINE",
"917 565 LINE",
"739 756 LINE",
"709 722 LINE"
);
}
);
vertWidth = 630;
width = 1000;
}
);
},
{
color = 3;
glyphname = adieresis.rotat;
layers = (
{
anchors = (
{
name = top;
position = "{800, 565}";
}
);
layerId = "F446C85F-564E-4F2C-825C-C389DAA66B11";
paths = (
{
closed = 1;
nodes = (
"118 377 OFFCURVE",
"120 306 OFFCURVE",
"122 280 CURVE",
"527 280 OFFCURVE",
"685 361 OFFCURVE",
"685 568 CURVE SMOOTH",
"685 656 OFFCURVE",
"656 752 OFFCURVE",
"600 850 CURVE",
"500 820 LINE",
"563 738 OFFCURVE",
"605 651 OFFCURVE",
"605 600 CURVE SMOOTH",
"605 501 OFFCURVE",
"444 452 OFFCURVE",
"118 452 CURVE"
);
},
{
closed = 1;
nodes = (
"115 570 OFFCURVE",
"151 482 OFFCURVE",
"225 392 CURVE",
"279 443 LINE",
"229 493 OFFCURVE",
"205 542 OFFCURVE",
"205 595 CURVE SMOOTH",
"205 650 OFFCURVE",
"231 685 OFFCURVE",
"272 685 CURVE SMOOTH",
"348 685 OFFCURVE",
"441 563 OFFCURVE",
"450 451 CURVE",
"520 475 LINE",
"497 694 OFFCURVE",
"391 850 OFFCURVE",
"265 850 CURVE SMOOTH",
"176 850 OFFCURVE",
"115 772 OFFCURVE",
"115 658 CURVE SMOOTH"
);
},
{
closed = 1;
nodes = (
"733 400 LINE",
"877 400 LINE",
"877 520 LINE",
"733 520 LINE"
);
},
{
closed = 1;
nodes = (
"733 610 LINE",
"877 610 LINE",
"877 730 LINE",
"733 730 LINE"
);
}
);
vertWidth = 630;
width = 1000;
}
);
},
{
color = 3;
glyphname = agrave.rotat;
layers = (
{
anchors = (
{
name = top;
position = "{800, 565}";
}
);
layerId = "F446C85F-564E-4F2C-825C-C389DAA66B11";
paths = (
{
closed = 1;
nodes = (
"118 377 OFFCURVE",
"120 306 OFFCURVE",
"122 280 CURVE",
"527 280 OFFCURVE",
"685 361 OFFCURVE",
"685 568 CURVE SMOOTH",
"685 656 OFFCURVE",
"656 752 OFFCURVE",
"600 850 CURVE",
"500 820 LINE",
"563 738 OFFCURVE",
"605 651 OFFCURVE",
"605 600 CURVE SMOOTH",
"605 501 OFFCURVE",
"444 452 OFFCURVE",
"118 452 CURVE"
);
},
{
closed = 1;
nodes = (
"115 570 OFFCURVE",
"151 482 OFFCURVE",
"225 392 CURVE",
"279 443 LINE",
"229 493 OFFCURVE",
"205 542 OFFCURVE",
"205 595 CURVE SMOOTH",
"205 650 OFFCURVE",
"231 685 OFFCURVE",
"272 685 CURVE SMOOTH",
"348 685 OFFCURVE",
"441 563 OFFCURVE",
"450 451 CURVE",
"520 475 LINE",
"497 694 OFFCURVE",
"391 850 OFFCURVE",
"265 850 CURVE SMOOTH",
"176 850 OFFCURVE",
"115 772 OFFCURVE",
"115 658 CURVE SMOOTH"
);
},
{
closed = 1;
nodes = (
"757 415 LINE",
"903 653 LINE",
"807 715 LINE",
"717 431 LINE"
);
}
);
vertWidth = 630;
width = 1000;
}
);
},
{
color = 3;
glyphname = aring.rotat;
layers = (
{
anchors = (
{
name = top;
position = "{800, 565}";
}
);
layerId = "F446C85F-564E-4F2C-825C-C389DAA66B11";
paths = (
{
closed = 1;
nodes = (
"118 377 OFFCURVE",
"120 306 OFFCURVE",
"122 280 CURVE",
"527 280 OFFCURVE",
"685 361 OFFCURVE",
"685 568 CURVE SMOOTH",
"685 656 OFFCURVE",
"656 752 OFFCURVE",
"600 850 CURVE",
"500 820 LINE",
"563 738 OFFCURVE",
"605 651 OFFCURVE",
"605 600 CURVE SMOOTH",
"605 501 OFFCURVE",
"444 452 OFFCURVE",
"118 452 CURVE"
);
},
{
closed = 1;
nodes = (
"115 570 OFFCURVE",
"151 482 OFFCURVE",
"225 392 CURVE",
"279 443 LINE",
"229 493 OFFCURVE",
"205 542 OFFCURVE",
"205 595 CURVE SMOOTH",
"205 650 OFFCURVE",
"231 685 OFFCURVE",
"272 685 CURVE SMOOTH",
"348 685 OFFCURVE",
"441 563 OFFCURVE",
"450 451 CURVE",
"520 475 LINE",
"497 694 OFFCURVE",
"391 850 OFFCURVE",
"265 850 CURVE SMOOTH",
"176 850 OFFCURVE",
"115 772 OFFCURVE",
"115 658 CURVE SMOOTH"
);
},
{
closed = 1;
nodes = (
"668 493 OFFCURVE",
"712 447 OFFCURVE",
"778 447 CURVE SMOOTH",
"846 447 OFFCURVE",
"892 495 OFFCURVE",
"892 567 CURVE SMOOTH",
"892 637 OFFCURVE",
"848 683 OFFCURVE",
"782 683 CURVE SMOOTH",
"714 683 OFFCURVE",
"668 635 OFFCURVE",
"668 563 CURVE SMOOTH"
);
},
{
closed = 1;
nodes = (
"706 581 OFFCURVE",
"742 597 OFFCURVE",
"792 597 CURVE SMOOTH",
"832 597 OFFCURVE",
"854 588 OFFCURVE",
"854 571 CURVE SMOOTH",
"854 549 OFFCURVE",
"818 533 OFFCURVE",
"768 533 CURVE SMOOTH",
"728 533 OFFCURVE",
"706 542 OFFCURVE",
"706 559 CURVE SMOOTH"
);
}
);
vertWidth = 630;
width = 1000;
}
);
},
{
color = 3;
glyphname = atilde.rotat;
layers = (
{
anchors = (
{
name = top;
position = "{800, 565}";
}
);
layerId = "F446C85F-564E-4F2C-825C-C389DAA66B11";
paths = (
{
closed = 1;
nodes = (
"118 377 OFFCURVE",
"120 306 OFFCURVE",
"122 280 CURVE",
"527 280 OFFCURVE",
"685 361 OFFCURVE",
"685 568 CURVE SMOOTH",
"685 656 OFFCURVE",
"656 752 OFFCURVE",
"600 850 CURVE",
"500 820 LINE",
"563 738 OFFCURVE",
"605 651 OFFCURVE",
"605 600 CURVE SMOOTH",
"605 501 OFFCURVE",
"444 452 OFFCURVE",
"118 452 CURVE"
);
},
{
closed = 1;
nodes = (
"115 570 OFFCURVE",
"151 482 OFFCURVE",
"225 392 CURVE",
"279 443 LINE",
"229 493 OFFCURVE",
"205 542 OFFCURVE",
"205 595 CURVE SMOOTH",
"205 650 OFFCURVE",
"231 685 OFFCURVE",
"272 685 CURVE SMOOTH",
"348 685 OFFCURVE",
"441 563 OFFCURVE",
"450 451 CURVE",
"520 475 LINE",
"497 694 OFFCURVE",
"391 850 OFFCURVE",
"265 850 CURVE SMOOTH",
"176 850 OFFCURVE",
"115 772 OFFCURVE",
"115 658 CURVE SMOOTH"
);
},
{
closed = 1;
nodes = (
"727 461 OFFCURVE",
"753 426 OFFCURVE",
"806 391 CURVE",
"850 417 LINE",
"817 447 OFFCURVE",
"808 460 OFFCURVE",
"808 477 CURVE SMOOTH",
"808 497 OFFCURVE",
"822 522 OFFCURVE",
"847 547 CURVE SMOOTH",
"876 576 OFFCURVE",
"889 603 OFFCURVE",
"889 631 CURVE SMOOTH",
"889 670 OFFCURVE",
"863 705 OFFCURVE",
"810 740 CURVE",
"766 714 LINE",
"799 683 OFFCURVE",
"808 671 OFFCURVE",
"808 654 CURVE SMOOTH",
"808 633 OFFCURVE",
"794 608 OFFCURVE",
"769 583 CURVE SMOOTH",
"740 554 OFFCURVE",
"727 528 OFFCURVE",
"727 500 CURVE SMOOTH"
);
}
);
vertWidth = 630;
width = 1000;
}
);
},
{
color = 3;
glyphname = ae.rotat;
layers = (
{
layerId = "F446C85F-564E-4F2C-825C-C389DAA66B11";
paths = (
{
closed = 1;
nodes = (
"115 107 OFFCURVE",
"162 18 OFFCURVE",
"253 -50 CURVE",
"313 22 LINE",
"240 60 OFFCURVE",
"197 117 OFFCURVE",
"197 177 CURVE SMOOTH",
"197 265 OFFCURVE",
"291 330 OFFCURVE",
"417 330 CURVE SMOOTH",
"524 330 OFFCURVE",
"605 283 OFFCURVE",
"605 221 CURVE SMOOTH",
"605 166 OFFCURVE",
"541 117 OFFCURVE",
"463 113 CURVE",
"425 371 LINE",
"335 361 LINE",
"417 -50 LINE",
"576 -50 OFFCURVE",
"685 48 OFFCURVE",
"685 192 CURVE SMOOTH",
"685 352 OFFCURVE",
"550 481 OFFCURVE",
"381 481 CURVE SMOOTH",
"225 481 OFFCURVE",
"115 369 OFFCURVE",
"115 211 CURVE SMOOTH"
);
},
{
closed = 1;
nodes = (
"115 568 OFFCURVE",
"156 467 OFFCURVE",
"225 392 CURVE",
"319 453 LINE",
"240 509 OFFCURVE",
"200 564 OFFCURVE",
"200 615 CURVE SMOOTH",
"200 663 OFFCURVE",
"236 700 OFFCURVE",
"284 700 CURVE SMOOTH",
"362 700 OFFCURVE",
"441 601 OFFCURVE",
"450 491 CURVE",
"520 515 LINE",
"499 714 OFFCURVE",
"397 850 OFFCURVE",
"268 850 CURVE SMOOTH",
"174 850 OFFCURVE",
"115 778 OFFCURVE",
"115 663 CURVE SMOOTH"
);
},
{
closed = 1;
nodes = (
"240 320 LINE",
"535 320 OFFCURVE",
"685 417 OFFCURVE",
"685 608 CURVE SMOOTH",
"685 685 OFFCURVE",
"661 753 OFFCURVE",
"600 850 CURVE",
"500 800 LINE",
"564 747 OFFCURVE",
"605 681 OFFCURVE",
"605 630 CURVE SMOOTH",
"605 537 OFFCURVE",
"467 480 OFFCURVE",
"240 480 CURVE"
);
}
);
vertWidth = 960;
width = 1000;
}
);
},
{
color = 3;
glyphname = b.rotat;
layers = (
{
layerId = "F446C85F-564E-4F2C-825C-C389DAA66B11";
paths = (
{
closed = 1;
nodes = (
"115 411 OFFCURVE",
"245 310 OFFCURVE",
"408 310 CURVE SMOOTH",
"567 310 OFFCURVE",
"685 405 OFFCURVE",
"685 532 CURVE SMOOTH",
"685 619 OFFCURVE",
"629 701 OFFCURVE",
"527 765 CURVE",
"487 694 LINE",
"559 667 OFFCURVE",
"603 623 OFFCURVE",
"603 578 CURVE SMOOTH",
"603 511 OFFCURVE",
"506 461 OFFCURVE",
"376 461 CURVE SMOOTH",
"262 461 OFFCURVE",
"195 498 OFFCURVE",
"195 561 CURVE SMOOTH",
"195 612 OFFCURVE",
"239 657 OFFCURVE",
"307 675 CURVE",
"233 770 LINE",
"160 701 OFFCURVE",
"115 612 OFFCURVE",
"115 538 CURVE SMOOTH"
);
},
{
closed = 1;
nodes = (
"211 660 OFFCURVE",
"670 658 OFFCURVE",
"873 658 CURVE",
"875 703 OFFCURVE",
"877 785 OFFCURVE",
"877 830 CURVE",
"675 830 OFFCURVE",
"215 828 OFFCURVE",
"122 825 CURVE",
"120 786 OFFCURVE",
"118 721 OFFCURVE",
"118 663 CURVE"
);
}
);
vertWidth = 600;
width = 1000;
}
);
},
{
color = 3;
glyphname = c.rotat;
layers = (
{
anchors = (
{
name = bottom;
position = "{120, 575}";
}
);
layerId = "F446C85F-564E-4F2C-825C-C389DAA66B11";
paths = (
{
closed = 1;
nodes = (
"115 470 OFFCURVE",
"156 382 OFFCURVE",
"233 305 CURVE",
"293 366 LINE",
"234 402 OFFCURVE",
"197 460 OFFCURVE",
"197 515 CURVE SMOOTH",
"197 610 OFFCURVE",
"309 689 OFFCURVE",
"443 689 CURVE SMOOTH",
"542 689 OFFCURVE",
"605 644 OFFCURVE",
"605 574 CURVE SMOOTH",
"605 510 OFFCURVE",
"552 438 OFFCURVE",
"473 395 CURVE",
"577 300 LINE",
"649 379 OFFCURVE",
"685 462 OFFCURVE",
"685 548 CURVE SMOOTH",
"685 713 OFFCURVE",
"554 850 OFFCURVE",
"398 850 CURVE SMOOTH",
"245 850 OFFCURVE",
"115 717 OFFCURVE",
"115 559 CURVE SMOOTH"
);
}
);
vertWidth = 590;
width = 1000;
}
);
},
{
color = 3;
glyphname = ccedilla.rotat;
layers = (
{
anchors = (
{
name = bottom;
position = "{120, 575}";
}
);
layerId = "F446C85F-564E-4F2C-825C-C389DAA66B11";
paths = (
{
closed = 1;
nodes = (
"115 470 OFFCURVE",
"156 382 OFFCURVE",
"233 305 CURVE",
"293 366 LINE",
"234 402 OFFCURVE",
"197 460 OFFCURVE",
"197 515 CURVE SMOOTH",
"197 610 OFFCURVE",
"309 689 OFFCURVE",
"443 689 CURVE SMOOTH",
"542 689 OFFCURVE",
"605 644 OFFCURVE",
"605 574 CURVE SMOOTH",
"605 510 OFFCURVE",
"552 438 OFFCURVE",
"473 395 CURVE",
"577 300 LINE",
"649 379 OFFCURVE",
"685 462 OFFCURVE",
"685 548 CURVE SMOOTH",
"685 713 OFFCURVE",
"554 850 OFFCURVE",
"398 850 CURVE SMOOTH",
"245 850 OFFCURVE",
"115 717 OFFCURVE",
"115 559 CURVE SMOOTH"
);
},
{
closed = 1;
nodes = (
"-86 518 OFFCURVE",
"-45 463 OFFCURVE",
"2 463 CURVE SMOOTH",
"39 463 OFFCURVE",
"76 497 OFFCURVE",
"101 553 CURVE",
"147 526 LINE",
"167 566 LINE",
"130 605 OFFCURVE",
"83 647 OFFCURVE",
"55 665 CURVE",
"43 605 OFFCURVE",
"15 558 OFFCURVE",
"-10 558 CURVE SMOOTH",
"-28 558 OFFCURVE",
"-50 584 OFFCURVE",
"-70 629 CURVE",
"-112 615 LINE"
);
}
);
vertWidth = 590;
width = 1000;
}
);
},
{
color = 3;
glyphname = d.rotat;
layers = (
{
layerId = "F446C85F-564E-4F2C-825C-C389DAA66B11";
paths = (
{
closed = 1;
nodes = (
"115 541 OFFCURVE",
"171 459 OFFCURVE",
"273 395 CURVE",
"313 466 LINE",
"241 493 OFFCURVE",
"197 537 OFFCURVE",
"197 582 CURVE SMOOTH",
"197 649 OFFCURVE",
"294 699 OFFCURVE",
"424 699 CURVE SMOOTH",
"538 699 OFFCURVE",
"605 662 OFFCURVE",
"605 599 CURVE SMOOTH",
"605 548 OFFCURVE",
"561 503 OFFCURVE",
"493 485 CURVE",
"567 390 LINE",
"640 459 OFFCURVE",
"685 548 OFFCURVE",
"685 622 CURVE SMOOTH",
"685 749 OFFCURVE",
"555 850 OFFCURVE",
"392 850 CURVE SMOOTH",
"233 850 OFFCURVE",
"115 755 OFFCURVE",
"115 628 CURVE SMOOTH"
);
},
{
closed = 1;
nodes = (
"180 333 OFFCURVE",
"670 330 OFFCURVE",
"873 330 CURVE",
"875 375 OFFCURVE",
"877 457 OFFCURVE",
"877 502 CURVE",
"675 502 OFFCURVE",
"215 500 OFFCURVE",
"122 497 CURVE",
"120 458 OFFCURVE",
"118 393 OFFCURVE",
"118 335 CURVE"
);
}
);
vertWidth = 600;
width = 1000;
}
);
},
{
color = 3;
glyphname = eth.rotat;
layers = (
{
layerId = "F446C85F-564E-4F2C-825C-C389DAA66B11";
paths = (
{
closed = 1;
nodes = (
"115 428 OFFCURVE",
"232 310 OFFCURVE",
"394 310 CURVE SMOOTH",
"539 310 OFFCURVE",
"717 404 OFFCURVE",
"895 575 CURVE",
"855 676 LINE",
"634 528 OFFCURVE",
"484 465 OFFCURVE",
"351 465 CURVE SMOOTH",
"253 465 OFFCURVE",
"197 499 OFFCURVE",
"197 557 CURVE SMOOTH",
"197 635 OFFCURVE",
"299 699 OFFCURVE",
"424 699 CURVE SMOOTH",
"516 699 OFFCURVE",
"565 664 OFFCURVE",
"565 600 CURVE SMOOTH",
"565 538 OFFCURVE",
"520 482 OFFCURVE",
"458 467 CURVE",
"532 372 LINE",
"606 437 OFFCURVE",
"645 517 OFFCURVE",
"645 603 CURVE SMOOTH",
"645 748 OFFCURVE",
"534 850 OFFCURVE",
"378 850 CURVE SMOOTH",
"220 850 OFFCURVE",
"115 746 OFFCURVE",
"115 591 CURVE SMOOTH"
);
},
{
closed = 1;
nodes = (
"738 352 LINE",
"849 389 LINE",
"747 827 LINE",
"687 816 LINE"
);
}
);
vertWidth = 600;
width = 1000;
}
);
},
{
color = 3;
glyphname = e.rotat;
layers = (
{
anchors = (
{
name = top;
position = "{800, 570}";
}
);
layerId = "F446C85F-564E-4F2C-825C-C389DAA66B11";
paths = (
{
closed = 1;
nodes = (
"115 461 OFFCURVE",
"165 365 OFFCURVE",
"253 300 CURVE",
"313 371 LINE",
"245 405 OFFCURVE",
"197 473 OFFCURVE",
"197 535 CURVE SMOOTH",
"197 627 OFFCURVE",
"304 700 OFFCURVE",
"441 700 CURVE SMOOTH",
"544 700 OFFCURVE",
"605 659 OFFCURVE",
"605 591 CURVE SMOOTH",
"605 526 OFFCURVE",
"548 476 OFFCURVE",
"463 467 CURVE",
"425 740 LINE",
"335 730 LINE",
"417 290 LINE",
"578 305 OFFCURVE",
"685 417 OFFCURVE",
"685 569 CURVE SMOOTH",
"685 730 OFFCURVE",
"564 850 OFFCURVE",
"401 850 CURVE SMOOTH",
"237 850 OFFCURVE",
"115 728 OFFCURVE",
"115 565 CURVE SMOOTH"
);
}
);
vertWidth = 620;
width = 1000;
}
);
},
{
color = 3;
glyphname = eacute.rotat;
layers = (
{
anchors = (
{
name = top;
position = "{800, 570}";
}
);
layerId = "F446C85F-564E-4F2C-825C-C389DAA66B11";
paths = (
{
closed = 1;
nodes = (
"115 461 OFFCURVE",
"165 365 OFFCURVE",
"253 300 CURVE",
"313 371 LINE",
"245 405 OFFCURVE",
"197 473 OFFCURVE",
"197 535 CURVE SMOOTH",
"197 627 OFFCURVE",
"304 700 OFFCURVE",
"441 700 CURVE SMOOTH",
"544 700 OFFCURVE",
"605 659 OFFCURVE",
"605 591 CURVE SMOOTH",
"605 526 OFFCURVE",
"548 476 OFFCURVE",
"463 467 CURVE",
"425 740 LINE",
"335 730 LINE",
"417 290 LINE",
"578 305 OFFCURVE",
"685 417 OFFCURVE",
"685 569 CURVE SMOOTH",
"685 730 OFFCURVE",
"564 850 OFFCURVE",
"401 850 CURVE SMOOTH",
"237 850 OFFCURVE",
"115 728 OFFCURVE",
"115 565 CURVE SMOOTH"
);
},
{
closed = 1;
nodes = (
"807 420 LINE",
"903 482 LINE",
"757 720 LINE",
"717 704 LINE"
);
}
);
vertWidth = 620;
width = 1000;
}
);
},
{
color = 3;
glyphname = ecircumflex.rotat;
layers = (
{
anchors = (
{
name = top;
position = "{800, 570}";
}
);
layerId = "F446C85F-564E-4F2C-825C-C389DAA66B11";
paths = (
{
closed = 1;
nodes = (
"115 461 OFFCURVE",
"165 365 OFFCURVE",
"253 300 CURVE",
"313 371 LINE",
"245 405 OFFCURVE",
"197 473 OFFCURVE",
"197 535 CURVE SMOOTH",
"197 627 OFFCURVE",
"304 700 OFFCURVE",
"441 700 CURVE SMOOTH",
"544 700 OFFCURVE",
"605 659 OFFCURVE",
"605 591 CURVE SMOOTH",
"605 526 OFFCURVE",
"548 476 OFFCURVE",
"463 467 CURVE",
"425 740 LINE",
"335 730 LINE",
"417 290 LINE",
"578 305 OFFCURVE",
"685 417 OFFCURVE",
"685 569 CURVE SMOOTH",
"685 730 OFFCURVE",
"564 850 OFFCURVE",
"401 850 CURVE SMOOTH",
"237 850 OFFCURVE",
"115 728 OFFCURVE",
"115 565 CURVE SMOOTH"
);
},
{
closed = 1;
nodes = (
"802 570 LINE",
"709 413 LINE",
"739 379 LINE",
"917 570 LINE",
"739 762 LINE",
"709 728 LINE"
);
}
);
vertWidth = 620;
width = 1000;
}
);
},
{
color = 3;
glyphname = edieresis.rotat;
layers = (
{
anchors = (
{
name = top;
position = "{800, 570}";
}
);
layerId = "F446C85F-564E-4F2C-825C-C389DAA66B11";
paths = (
{
closed = 1;
nodes = (
"115 461 OFFCURVE",
"165 365 OFFCURVE",
"253 300 CURVE",
"313 371 LINE",
"245 405 OFFCURVE",
"197 473 OFFCURVE",
"197 535 CURVE SMOOTH",
"197 627 OFFCURVE",
"304 700 OFFCURVE",
"441 700 CURVE SMOOTH",
"544 700 OFFCURVE",
"605 659 OFFCURVE",
"605 591 CURVE SMOOTH",
"605 526 OFFCURVE",
"548 476 OFFCURVE",
"463 467 CURVE",
"425 740 LINE",
"335 730 LINE",
"417 290 LINE",
"578 305 OFFCURVE",
"685 417 OFFCURVE",
"685 569 CURVE SMOOTH",
"685 730 OFFCURVE",
"564 850 OFFCURVE",
"401 850 CURVE SMOOTH",
"237 850 OFFCURVE",
"115 728 OFFCURVE",
"115 565 CURVE SMOOTH"
);
},
{
closed = 1;
nodes = (
"733 405 LINE",
"877 405 LINE",
"877 525 LINE",
"733 525 LINE"
);
},
{
closed = 1;
nodes = (
"733 615 LINE",
"877 615 LINE",
"877 735 LINE",
"733 735 LINE"
);
}
);
vertWidth = 620;
width = 1000;
}
);
},
{
color = 3;
glyphname = egrave.rotat;
layers = (
{
anchors = (
{
name = top;
position = "{800, 570}";
}
);
layerId = "F446C85F-564E-4F2C-825C-C389DAA66B11";
paths = (
{
closed = 1;
nodes = (
"115 461 OFFCURVE",
"165 365 OFFCURVE",
"253 300 CURVE",
"313 371 LINE",
"245 405 OFFCURVE",
"197 473 OFFCURVE",
"197 535 CURVE SMOOTH",
"197 627 OFFCURVE",
"304 700 OFFCURVE",
"441 700 CURVE SMOOTH",
"544 700 OFFCURVE",
"605 659 OFFCURVE",
"605 591 CURVE SMOOTH",
"605 526 OFFCURVE",
"548 476 OFFCURVE",
"463 467 CURVE",
"425 740 LINE",
"335 730 LINE",
"417 290 LINE",
"578 305 OFFCURVE",
"685 417 OFFCURVE",
"685 569 CURVE SMOOTH",
"685 730 OFFCURVE",
"564 850 OFFCURVE",
"401 850 CURVE SMOOTH",
"237 850 OFFCURVE",
"115 728 OFFCURVE",
"115 565 CURVE SMOOTH"
);
},
{
closed = 1;
nodes = (
"757 420 LINE",
"903 658 LINE",
"807 720 LINE",
"717 436 LINE"
);
}
);
vertWidth = 620;
width = 1000;
}
);
},
{
color = 3;
glyphname = f.rotat;
layers = (
{
layerId = "F446C85F-564E-4F2C-825C-C389DAA66B11";
paths = (
{
closed = 1;
nodes = (
"118 723 OFFCURVE",
"120 656 OFFCURVE",
"122 600 CURVE",
"197 603 OFFCURVE",
"274 604 OFFCURVE",
"360 604 CURVE SMOOTH",
"736 604 OFFCURVE",
"805 585 OFFCURVE",
"805 479 CURVE",
"890 475 LINE",
"877 743 OFFCURVE",
"795 775 OFFCURVE",
"118 775 CURVE"
);
},
{
closed = 1;
nodes = (
"594 476 LINE",
"686 470 LINE",
"686 850 LINE",
"594 844 LINE"
);
}
);
vertWidth = 440;
width = 1000;
}
);
},
{
color = 3;
glyphname = g.rotat;
layers = (
{
layerId = "F446C85F-564E-4F2C-825C-C389DAA66B11";
paths = (
{
closed = 1;
nodes = (
"-10 394 OFFCURVE",
"90 310 OFFCURVE",
"525 310 CURVE SMOOTH",
"571 310 OFFCURVE",
"620 311 OFFCURVE",
"677 313 CURVE",
"677 379 OFFCURVE",
"676 426 OFFCURVE",
"673 485 CURVE",
"535 474 OFFCURVE",
"454 470 OFFCURVE",
"386 470 CURVE SMOOTH",
"140 470 OFFCURVE",
"82 524 OFFCURVE",
"70 764 CURVE",
"-10 761 LINE"
);
},
{
closed = 1;
nodes = (
"155 535 OFFCURVE",
"214 445 OFFCURVE",
"313 395 CURVE",
"353 466 LINE",
"286 482 OFFCURVE",
"250 520 OFFCURVE",
"250 574 CURVE SMOOTH",
"250 650 OFFCURVE",
"322 699 OFFCURVE",
"435 699 CURVE SMOOTH",
"537 699 OFFCURVE",
"600 659 OFFCURVE",
"600 594 CURVE SMOOTH",
"600 539 OFFCURVE",
"556 486 OFFCURVE",
"493 465 CURVE",
"567 370 LINE",
"637 440 OFFCURVE",
"685 543 OFFCURVE",
"685 622 CURVE SMOOTH",
"685 749 OFFCURVE",
"559 850 OFFCURVE",
"401 850 CURVE SMOOTH",
"254 850 OFFCURVE",
"155 763 OFFCURVE",
"155 634 CURVE SMOOTH"
);
}
);
vertWidth = 620;
width = 1000;
}
);
},
{
color = 3;
glyphname = h.rotat;
layers = (
{
layerId = "F446C85F-564E-4F2C-825C-C389DAA66B11";
paths = (
{
closed = 1;
nodes = (
"118 360 OFFCURVE",
"119 314 OFFCURVE",
"122 280 CURVE",
"507 280 OFFCURVE",
"685 353 OFFCURVE",
"685 510 CURVE SMOOTH",
"685 603 OFFCURVE",
"622 706 OFFCURVE",
"528 764 CURVE",
"472 676 LINE",
"548 650 OFFCURVE",
"605 599 OFFCURVE",
"605 557 CURVE SMOOTH",
"605 487 OFFCURVE",
"443 452 OFFCURVE",
"118 452 CURVE"
);
},
{
closed = 1;
nodes = (
"180 661 OFFCURVE",
"666 658 OFFCURVE",
"877 658 CURVE",
"877 705 OFFCURVE",
"875 787 OFFCURVE",
"873 830 CURVE",
"663 830 OFFCURVE",
"215 828 OFFCURVE",
"121 825 CURVE",
"119 783 OFFCURVE",
"118 713 OFFCURVE",
"118 663 CURVE"
);
}
);
vertWidth = 630;
width = 1000;
}
);
},
{
color = 3;
glyphname = i.rotat;
layers = (
{
anchors = (
{
name = top;
position = "{800, 744}";
}
);
layerId = "F446C85F-564E-4F2C-825C-C389DAA66B11";
paths = (
{
closed = 1;
nodes = (
"745 659 LINE",
"880 659 LINE",
"880 829 LINE",
"745 829 LINE"
);
},
{
closed = 1;
nodes = (
"118 782 OFFCURVE",
"119 724 OFFCURVE",
"122 663 CURVE",
"215 660 OFFCURVE",
"468 658 OFFCURVE",
"663 658 CURVE",
"665 696 OFFCURVE",
"667 770 OFFCURVE",
"667 830 CURVE",
"432 830 OFFCURVE",
"206 828 OFFCURVE",
"118 825 CURVE"
);
}
);
vertWidth = 272;
width = 1000;
}
);
},
{
color = 3;
glyphname = idotless.rotat;
layers = (
{
anchors = (
{
name = top;
position = "{800, 744}";
}
);
layerId = "F446C85F-564E-4F2C-825C-C389DAA66B11";
paths = (
{
closed = 1;
nodes = (
"118 782 OFFCURVE",
"119 724 OFFCURVE",
"122 663 CURVE",
"215 660 OFFCURVE",
"468 658 OFFCURVE",
"663 658 CURVE",
"665 696 OFFCURVE",
"667 770 OFFCURVE",
"667 830 CURVE",
"432 830 OFFCURVE",
"206 828 OFFCURVE",
"118 825 CURVE"
);
}
);
vertWidth = 272;
width = 1000;
}
);
},
{
color = 3;
glyphname = iacute.rotat;
layers = (
{
anchors = (
{
name = top;
position = "{800, 744}";
}
);
layerId = "F446C85F-564E-4F2C-825C-C389DAA66B11";
paths = (
{
closed = 1;
nodes = (
"118 782 OFFCURVE",
"119 724 OFFCURVE",
"122 663 CURVE",
"215 660 OFFCURVE",
"468 658 OFFCURVE",
"663 658 CURVE",
"665 696 OFFCURVE",
"667 770 OFFCURVE",
"667 830 CURVE",
"432 830 OFFCURVE",
"206 828 OFFCURVE",
"118 825 CURVE"
);
},
{
closed = 1;
nodes = (
"807 594 LINE",
"903 656 LINE",
"757 894 LINE",
"717 878 LINE"
);
}
);
vertWidth = 272;
width = 1000;
}
);
},
{
color = 3;
glyphname = icircumflex.rotat;
layers = (
{
anchors = (
{
name = top;
position = "{800, 744}";
}
);
layerId = "F446C85F-564E-4F2C-825C-C389DAA66B11";
paths = (
{
closed = 1;
nodes = (
"118 782 OFFCURVE",
"119 724 OFFCURVE",
"122 663 CURVE",
"215 660 OFFCURVE",
"468 658 OFFCURVE",
"663 658 CURVE",
"665 696 OFFCURVE",
"667 770 OFFCURVE",
"667 830 CURVE",
"432 830 OFFCURVE",
"206 828 OFFCURVE",
"118 825 CURVE"
);
},
{
closed = 1;
nodes = (
"802 744 LINE",
"709 587 LINE",
"739 553 LINE",
"917 744 LINE",
"739 935 LINE",
"709 901 LINE"
);
}
);
vertWidth = 272;
width = 1000;
}
);
},
{
color = 3;
glyphname = idieresis.rotat;
layers = (
{
anchors = (
{
name = top;
position = "{800, 744}";
}
);
layerId = "F446C85F-564E-4F2C-825C-C389DAA66B11";
paths = (
{
closed = 1;
nodes = (
"118 782 OFFCURVE",
"119 724 OFFCURVE",
"122 663 CURVE",
"215 660 OFFCURVE",
"468 658 OFFCURVE",
"663 658 CURVE",
"665 696 OFFCURVE",
"667 770 OFFCURVE",
"667 830 CURVE",
"432 830 OFFCURVE",
"206 828 OFFCURVE",
"118 825 CURVE"
);
},
{
closed = 1;
nodes = (
"733 579 LINE",
"877 579 LINE",
"877 699 LINE",
"733 699 LINE"
);
},
{
closed = 1;
nodes = (
"733 789 LINE",
"877 789 LINE",
"877 909 LINE",
"733 909 LINE"
);
}
);
vertWidth = 272;
width = 1000;
}
);
},
{
color = 3;
glyphname = igrave.rotat;
layers = (
{
anchors = (
{
name = top;
position = "{800, 744}";
}
);
layerId = "F446C85F-564E-4F2C-825C-C389DAA66B11";
paths = (
{
closed = 1;
nodes = (
"118 782 OFFCURVE",
"119 724 OFFCURVE",
"122 663 CURVE",
"215 660 OFFCURVE",
"468 658 OFFCURVE",
"663 658 CURVE",
"665 696 OFFCURVE",
"667 770 OFFCURVE",
"667 830 CURVE",
"432 830 OFFCURVE",
"206 828 OFFCURVE",
"118 825 CURVE"
);
},
{
closed = 1;
nodes = (
"757 594 LINE",
"903 832 LINE",
"807 894 LINE",
"717 610 LINE"
);
}
);
vertWidth = 272;
width = 1000;
}
);
},
{
color = 3;
glyphname = j.rotat;
layers = (
{
layerId = "F446C85F-564E-4F2C-825C-C389DAA66B11";
paths = (
{
closed = 1;
nodes = (
"25 648 OFFCURVE",
"172 575 OFFCURVE",
"483 575 CURVE SMOOTH",
"534 575 OFFCURVE",
"596 577 OFFCURVE",
"667 581 CURVE",
"667 647 OFFCURVE",
"666 704 OFFCURVE",
"663 753 CURVE",
"563 746 OFFCURVE",
"483 743 OFFCURVE",
"427 743 CURVE SMOOTH",
"224 743 OFFCURVE",
"118 782 OFFCURVE",
"80 870 CURVE",
"-10 820 LINE"
);
},
{
closed = 1;
nodes = (
"745 584 LINE",
"880 584 LINE",
"880 754 LINE",
"745 754 LINE"
);
}
);
vertWidth = 355;
width = 1000;
}
);
},
{
color = 3;
glyphname = k.rotat;
layers = (
{
layerId = "F446C85F-564E-4F2C-825C-C389DAA66B11";
paths = (
{
closed = 1;
nodes = (
"456 531 OFFCURVE",
"570 383 OFFCURVE",
"655 293 CURVE",
"715 382 LINE",
"642 449 OFFCURVE",
"519 587 OFFCURVE",
"424 710 CURVE",
"360 675 LINE"
);
},
{
closed = 1;
nodes = (
"117 745 OFFCURVE",
"119 698 OFFCURVE",
"122 663 CURVE",
"215 660 OFFCURVE",
"697 658 OFFCURVE",
"873 658 CURVE",
"875 703 OFFCURVE",
"877 771 OFFCURVE",
"877 830 CURVE",
"707 830 OFFCURVE",
"211 828 OFFCURVE",
"117 825 CURVE"
);
},
{
closed = 1;
nodes = (
"130 260 LINE",
"250 314 OFFCURVE",
"433 406 OFFCURVE",
"526 459 CURVE",
"473 601 LINE",
"379 554 OFFCURVE",
"245 499 OFFCURVE",
"110 452 CURVE"
);
}
);
vertWidth = 630;
width = 1000;
}
);
},
{
color = 3;
glyphname = l.rotat;
layers = (
{
layerId = "F446C85F-564E-4F2C-825C-C389DAA66B11";
paths = (
{
closed = 1;
nodes = (
"877 735 OFFCURVE",
"876 786 OFFCURVE",
"873 825 CURVE",
"780 828 OFFCURVE",
"687 830 OFFCURVE",
"611 830 CURVE SMOOTH",
"245 830 OFFCURVE",
"117 783 OFFCURVE",
"100 640 CURVE",
"180 570 LINE",
"214 636 OFFCURVE",
"346 662 OFFCURVE",
"663 662 CURVE SMOOTH",
"725 662 OFFCURVE",
"801 661 OFFCURVE",
"877 658 CURVE"
);
}
);
vertWidth = 320;
width = 1000;
}
);
},
{
color = 3;
glyphname = lslash.rotat;
layers = (
{
layerId = "F446C85F-564E-4F2C-825C-C389DAA66B11";
paths = (
{
closed = 1;
nodes = (
"559 446 LINE",
"639 488 LINE",
"451 870 LINE",
"371 828 LINE"
);
},
{
closed = 1;
nodes = (
"877 655 OFFCURVE",
"876 706 OFFCURVE",
"873 745 CURVE",
"780 748 OFFCURVE",
"687 750 OFFCURVE",
"611 750 CURVE SMOOTH",
"245 750 OFFCURVE",
"117 703 OFFCURVE",
"100 560 CURVE",
"180 490 LINE",
"214 556 OFFCURVE",
"346 582 OFFCURVE",
"663 582 CURVE SMOOTH",
"725 582 OFFCURVE",
"801 581 OFFCURVE",
"877 578 CURVE"
);
}
);
vertWidth = 444;
width = 1000;
}
);
},
{
color = 3;
glyphname = m.rotat;
layers = (
{
layerId = "F446C85F-564E-4F2C-825C-C389DAA66B11";
paths = (
{
closed = 1;
nodes = (
"116 128 OFFCURVE",
"119 61 OFFCURVE",
"124 23 CURVE",
"164 21 OFFCURVE",
"196 20 OFFCURVE",
"232 20 CURVE SMOOTH",
"540 20 OFFCURVE",
"685 87 OFFCURVE",
"685 230 CURVE SMOOTH",
"685 319 OFFCURVE",
"629 404 OFFCURVE",
"528 466 CURVE",
"472 378 LINE",
"544 357 OFFCURVE",
"605 304 OFFCURVE",
"605 264 CURVE SMOOTH",
"605 213 OFFCURVE",
"508 189 OFFCURVE",
"301 189 CURVE SMOOTH",
"238 189 OFFCURVE",
"172 191 OFFCURVE",
"116 195 CURVE"
);
},
{
closed = 1;
nodes = (
"373 688 OFFCURVE",
"598 690 OFFCURVE",
"673 693 CURVE",
"675 739 OFFCURVE",
"677 803 OFFCURVE",
"677 845 CURVE",
"594 848 OFFCURVE",
"372 850 OFFCURVE",
"122 850 CURVE",
"120 817 OFFCURVE",
"118 733 OFFCURVE",
"118 688 CURVE"
);
},
{
closed = 1;
nodes = (
"118 478 OFFCURVE",
"120 397 OFFCURVE",
"122 357 CURVE",
"164 355 OFFCURVE",
"205 354 OFFCURVE",
"251 354 CURVE SMOOTH",
"570 354 OFFCURVE",
"685 400 OFFCURVE",
"685 527 CURVE SMOOTH",
"685 612 OFFCURVE",
"631 695 OFFCURVE",
"518 786 CURVE",
"472 698 LINE",
"546 673 OFFCURVE",
"605 621 OFFCURVE",
"605 581 CURVE SMOOTH",
"605 538 OFFCURVE",
"538 523 OFFCURVE",
"348 523 CURVE SMOOTH",
"274 523 OFFCURVE",
"189 525 OFFCURVE",
"118 529 CURVE"
);
}
);
vertWidth = 890;
width = 1000;
}
);
},
{
color = 3;
glyphname = n.rotat;
layers = (
{
anchors = (
{
name = top;
position = "{800, 565}";
}
);
layerId = "F446C85F-564E-4F2C-825C-C389DAA66B11";
paths = (
{
closed = 1;
nodes = (
"524 279 OFFCURVE",
"685 343 OFFCURVE",
"685 505 CURVE SMOOTH",
"685 604 OFFCURVE",
"624 703 OFFCURVE",
"508 790 CURVE",
"452 702 LINE",
"540 673 OFFCURVE",
"605 611 OFFCURVE",
"605 556 CURVE SMOOTH",
"605 479 OFFCURVE",
"476 451 OFFCURVE",
"122 451 CURVE",
"120 406 OFFCURVE",
"118 326 OFFCURVE",
"118 279 CURVE"
);
},
{
closed = 1;
nodes = (
"118 789 OFFCURVE",
"120 725 OFFCURVE",
"122 683 CURVE",
"205 680 OFFCURVE",
"444 678 OFFCURVE",
"673 678 CURVE",
"675 721 OFFCURVE",
"677 806 OFFCURVE",
"677 850 CURVE",
"432 850 OFFCURVE",
"203 848 OFFCURVE",
"118 845 CURVE"
);
}
);
vertWidth = 631;
width = 1000;
}
);
},
{
color = 3;
glyphname = ntilde.rotat;
layers = (
{
anchors = (
{
name = top;
position = "{800, 565}";
}
);
layerId = "F446C85F-564E-4F2C-825C-C389DAA66B11";
paths = (
{
closed = 1;
nodes = (
"524 279 OFFCURVE",
"685 343 OFFCURVE",
"685 505 CURVE SMOOTH",
"685 604 OFFCURVE",
"624 703 OFFCURVE",
"508 790 CURVE",
"452 702 LINE",
"540 673 OFFCURVE",
"605 611 OFFCURVE",
"605 556 CURVE SMOOTH",
"605 479 OFFCURVE",
"476 451 OFFCURVE",
"122 451 CURVE",
"120 406 OFFCURVE",
"118 326 OFFCURVE",
"118 279 CURVE"
);
},
{
closed = 1;
nodes = (
"118 789 OFFCURVE",
"120 725 OFFCURVE",
"122 683 CURVE",
"205 680 OFFCURVE",
"444 678 OFFCURVE",
"673 678 CURVE",
"675 721 OFFCURVE",
"677 806 OFFCURVE",
"677 850 CURVE",
"432 850 OFFCURVE",
"203 848 OFFCURVE",
"118 845 CURVE"
);
},
{
closed = 1;
nodes = (
"727 461 OFFCURVE",
"753 426 OFFCURVE",
"806 391 CURVE",
"850 417 LINE",
"817 447 OFFCURVE",
"808 460 OFFCURVE",
"808 477 CURVE SMOOTH",
"808 497 OFFCURVE",
"822 522 OFFCURVE",
"847 547 CURVE SMOOTH",
"876 576 OFFCURVE",
"889 603 OFFCURVE",
"889 631 CURVE SMOOTH",
"889 670 OFFCURVE",
"863 705 OFFCURVE",
"810 740 CURVE",
"766 714 LINE",
"799 683 OFFCURVE",
"808 671 OFFCURVE",
"808 654 CURVE SMOOTH",
"808 633 OFFCURVE",
"794 608 OFFCURVE",
"769 583 CURVE SMOOTH",
"740 554 OFFCURVE",
"727 528 OFFCURVE",
"727 500 CURVE SMOOTH"
);
}
);
vertWidth = 631;
width = 1000;
}
);
},
{
color = 3;
glyphname = o.rotat;
layers = (
{
anchors = (
{
name = top;
position = "{800, 560}";
}
);
layerId = "F446C85F-564E-4F2C-825C-C389DAA66B11";
paths = (
{
closed = 1;
nodes = (
"115 404 OFFCURVE",
"246 270 OFFCURVE",
"408 270 CURVE SMOOTH",
"563 270 OFFCURVE",
"685 394 OFFCURVE",
"685 552 CURVE SMOOTH",
"685 716 OFFCURVE",
"554 850 OFFCURVE",
"392 850 CURVE SMOOTH",
"237 850 OFFCURVE",
"115 726 OFFCURVE",
"115 568 CURVE SMOOTH"
);
},
{
closed = 1;
nodes = (
"196 628 OFFCURVE",
"297 694 OFFCURVE",
"432 694 CURVE SMOOTH",
"540 694 OFFCURVE",
"604 652 OFFCURVE",
"604 581 CURVE SMOOTH",
"604 492 OFFCURVE",
"503 426 OFFCURVE",
"368 426 CURVE SMOOTH",
"260 426 OFFCURVE",
"196 468 OFFCURVE",
"196 539 CURVE SMOOTH"
);
}
);
vertWidth = 640;
width = 1000;
}
);
},
{
color = 3;
glyphname = oacute.rotat;
layers = (
{
anchors = (
{
name = top;
position = "{800, 560}";
}
);
layerId = "F446C85F-564E-4F2C-825C-C389DAA66B11";
paths = (
{
closed = 1;
nodes = (
"115 404 OFFCURVE",
"246 270 OFFCURVE",
"408 270 CURVE SMOOTH",
"563 270 OFFCURVE",
"685 394 OFFCURVE",
"685 552 CURVE SMOOTH",
"685 716 OFFCURVE",
"554 850 OFFCURVE",
"392 850 CURVE SMOOTH",
"237 850 OFFCURVE",
"115 726 OFFCURVE",
"115 568 CURVE SMOOTH"
);
},
{
closed = 1;
nodes = (
"196 628 OFFCURVE",
"297 694 OFFCURVE",
"432 694 CURVE SMOOTH",
"540 694 OFFCURVE",
"604 652 OFFCURVE",
"604 581 CURVE SMOOTH",
"604 492 OFFCURVE",
"503 426 OFFCURVE",
"368 426 CURVE SMOOTH",
"260 426 OFFCURVE",
"196 468 OFFCURVE",
"196 539 CURVE SMOOTH"
);
},
{
closed = 1;
nodes = (
"807 410 LINE",
"903 472 LINE",
"757 710 LINE",
"717 694 LINE"
);
}
);
vertWidth = 640;
width = 1000;
}
);
},
{
color = 3;
glyphname = ocircumflex.rotat;
layers = (
{
anchors = (
{
name = top;
position = "{800, 560}";
}
);
layerId = "F446C85F-564E-4F2C-825C-C389DAA66B11";
paths = (
{
closed = 1;
nodes = (
"115 404 OFFCURVE",
"246 270 OFFCURVE",
"408 270 CURVE SMOOTH",
"563 270 OFFCURVE",
"685 394 OFFCURVE",
"685 552 CURVE SMOOTH",
"685 716 OFFCURVE",
"554 850 OFFCURVE",
"392 850 CURVE SMOOTH",
"237 850 OFFCURVE",
"115 726 OFFCURVE",
"115 568 CURVE SMOOTH"
);
},
{
closed = 1;
nodes = (
"196 628 OFFCURVE",
"297 694 OFFCURVE",
"432 694 CURVE SMOOTH",
"540 694 OFFCURVE",
"604 652 OFFCURVE",
"604 581 CURVE SMOOTH",
"604 492 OFFCURVE",
"503 426 OFFCURVE",
"368 426 CURVE SMOOTH",
"260 426 OFFCURVE",
"196 468 OFFCURVE",
"196 539 CURVE SMOOTH"
);
},
{
closed = 1;
nodes = (
"802 560 LINE",
"709 403 LINE",
"739 369 LINE",
"917 560 LINE",
"739 752 LINE",
"709 718 LINE"
);
}
);
vertWidth = 640;
width = 1000;
}
);
},
{
color = 3;
glyphname = odieresis.rotat;
layers = (
{
anchors = (
{
name = top;
position = "{800, 560}";
}
);
layerId = "F446C85F-564E-4F2C-825C-C389DAA66B11";
paths = (
{
closed = 1;
nodes = (
"115 404 OFFCURVE",
"246 270 OFFCURVE",
"408 270 CURVE SMOOTH",
"563 270 OFFCURVE",
"685 394 OFFCURVE",
"685 552 CURVE SMOOTH",
"685 716 OFFCURVE",
"554 850 OFFCURVE",
"392 850 CURVE SMOOTH",
"237 850 OFFCURVE",
"115 726 OFFCURVE",
"115 568 CURVE SMOOTH"
);
},
{
closed = 1;
nodes = (
"196 628 OFFCURVE",
"297 694 OFFCURVE",
"432 694 CURVE SMOOTH",
"540 694 OFFCURVE",
"604 652 OFFCURVE",
"604 581 CURVE SMOOTH",
"604 492 OFFCURVE",
"503 426 OFFCURVE",
"368 426 CURVE SMOOTH",
"260 426 OFFCURVE",
"196 468 OFFCURVE",
"196 539 CURVE SMOOTH"
);
},
{
closed = 1;
nodes = (
"733 395 LINE",
"877 395 LINE",
"877 515 LINE",
"733 515 LINE"
);
},
{
closed = 1;
nodes = (
"733 605 LINE",
"877 605 LINE",
"877 725 LINE",
"733 725 LINE"
);
}
);
vertWidth = 640;
width = 1000;
}
);
},
{
color = 3;
glyphname = ograve.rotat;
layers = (
{
anchors = (
{
name = top;
position = "{800, 560}";
}
);
layerId = "F446C85F-564E-4F2C-825C-C389DAA66B11";
paths = (
{
closed = 1;
nodes = (
"115 404 OFFCURVE",
"246 270 OFFCURVE",
"408 270 CURVE SMOOTH",
"563 270 OFFCURVE",
"685 394 OFFCURVE",
"685 552 CURVE SMOOTH",
"685 716 OFFCURVE",
"554 850 OFFCURVE",
"392 850 CURVE SMOOTH",
"237 850 OFFCURVE",
"115 726 OFFCURVE",
"115 568 CURVE SMOOTH"
);
},
{
closed = 1;
nodes = (
"196 628 OFFCURVE",
"297 694 OFFCURVE",
"432 694 CURVE SMOOTH",
"540 694 OFFCURVE",
"604 652 OFFCURVE",
"604 581 CURVE SMOOTH",
"604 492 OFFCURVE",
"503 426 OFFCURVE",
"368 426 CURVE SMOOTH",
"260 426 OFFCURVE",
"196 468 OFFCURVE",
"196 539 CURVE SMOOTH"
);
},
{
closed = 1;
nodes = (
"757 410 LINE",
"903 648 LINE",
"807 710 LINE",
"717 426 LINE"
);
}
);
vertWidth = 640;
width = 1000;
}
);
},
{
color = 3;
glyphname = oslash.rotat;
layers = (
{
anchors = (
{
name = top;
position = "{800, 560}";
}
);
layerId = "F446C85F-564E-4F2C-825C-C389DAA66B11";
paths = (
{
closed = 1;
nodes = (
"660 305 LINE",
"715 385 LINE",
"140 815 LINE",
"85 735 LINE"
);
},
{
closed = 1;
nodes = (
"115 404 OFFCURVE",
"246 270 OFFCURVE",
"408 270 CURVE SMOOTH",
"563 270 OFFCURVE",
"685 394 OFFCURVE",
"685 552 CURVE SMOOTH",
"685 716 OFFCURVE",
"554 850 OFFCURVE",
"392 850 CURVE SMOOTH",
"237 850 OFFCURVE",
"115 726 OFFCURVE",
"115 568 CURVE SMOOTH"
);
},
{
closed = 1;
nodes = (
"196 628 OFFCURVE",
"297 694 OFFCURVE",
"432 694 CURVE SMOOTH",
"540 694 OFFCURVE",
"604 652 OFFCURVE",
"604 581 CURVE SMOOTH",
"604 492 OFFCURVE",
"503 426 OFFCURVE",
"368 426 CURVE SMOOTH",
"260 426 OFFCURVE",
"196 468 OFFCURVE",
"196 539 CURVE SMOOTH"
);
}
);
vertWidth = 640;
width = 1000;
}
);
},
{
color = 3;
glyphname = otilde.rotat;
layers = (
{
anchors = (
{
name = top;
position = "{800, 560}";
}
);
layerId = "F446C85F-564E-4F2C-825C-C389DAA66B11";
paths = (
{
closed = 1;
nodes = (
"115 404 OFFCURVE",
"246 270 OFFCURVE",
"408 270 CURVE SMOOTH",
"563 270 OFFCURVE",
"685 394 OFFCURVE",
"685 552 CURVE SMOOTH",
"685 716 OFFCURVE",
"554 850 OFFCURVE",
"392 850 CURVE SMOOTH",
"237 850 OFFCURVE",
"115 726 OFFCURVE",
"115 568 CURVE SMOOTH"
);
},
{
closed = 1;
nodes = (
"196 628 OFFCURVE",
"297 694 OFFCURVE",
"432 694 CURVE SMOOTH",
"540 694 OFFCURVE",
"604 652 OFFCURVE",
"604 581 CURVE SMOOTH",
"604 492 OFFCURVE",
"503 426 OFFCURVE",
"368 426 CURVE SMOOTH",
"260 426 OFFCURVE",
"196 468 OFFCURVE",
"196 539 CURVE SMOOTH"
);
},
{
closed = 1;
nodes = (
"727 456 OFFCURVE",
"753 421 OFFCURVE",
"806 386 CURVE",
"850 412 LINE",
"817 442 OFFCURVE",
"808 455 OFFCURVE",
"808 472 CURVE SMOOTH",
"808 492 OFFCURVE",
"822 517 OFFCURVE",
"847 542 CURVE SMOOTH",
"876 571 OFFCURVE",
"889 598 OFFCURVE",
"889 626 CURVE SMOOTH",
"889 665 OFFCURVE",
"863 700 OFFCURVE",
"810 735 CURVE",
"766 709 LINE",
"799 678 OFFCURVE",
"808 666 OFFCURVE",
"808 649 CURVE SMOOTH",
"808 628 OFFCURVE",
"794 603 OFFCURVE",
"769 578 CURVE SMOOTH",
"740 549 OFFCURVE",
"727 523 OFFCURVE",
"727 495 CURVE SMOOTH"
);
}
);
vertWidth = 640;
width = 1000;
}
);
},
{
color = 3;
glyphname = oe.rotat;
layers = (
{
layerId = "F446C85F-564E-4F2C-825C-C389DAA66B11";
paths = (
{
closed = 1;
nodes = (
"115 422 OFFCURVE",
"251 290 OFFCURVE",
"422 290 CURVE SMOOTH",
"574 290 OFFCURVE",
"685 401 OFFCURVE",
"685 552 CURVE SMOOTH",
"685 717 OFFCURVE",
"549 850 OFFCURVE",
"379 850 CURVE SMOOTH",
"226 850 OFFCURVE",
"115 739 OFFCURVE",
"115 588 CURVE SMOOTH"
);
},
{
closed = 1;
nodes = (
"196 635 OFFCURVE",
"296 699 OFFCURVE",
"424 699 CURVE SMOOTH",
"532 699 OFFCURVE",
"604 654 OFFCURVE",
"604 586 CURVE SMOOTH",
"604 505 OFFCURVE",
"504 441 OFFCURVE",
"376 441 CURVE SMOOTH",
"268 441 OFFCURVE",
"196 486 OFFCURVE",
"196 554 CURVE SMOOTH"
);
},
{
closed = 1;
nodes = (
"115 73 OFFCURVE",
"161 -12 OFFCURVE",
"253 -80 CURVE",
"313 -8 LINE",
"239 30 OFFCURVE",
"197 84 OFFCURVE",
"197 142 CURVE SMOOTH",
"197 229 OFFCURVE",
"289 290 OFFCURVE",
"422 290 CURVE SMOOTH",
"531 290 OFFCURVE",
"605 250 OFFCURVE",
"605 191 CURVE SMOOTH",
"605 136 OFFCURVE",
"541 87 OFFCURVE",
"463 83 CURVE",
"425 341 LINE",
"335 331 LINE",
"417 -80 LINE",
"575 -80 OFFCURVE",
"685 16 OFFCURVE",
"685 154 CURVE SMOOTH",
"685 310 OFFCURVE",
"544 441 OFFCURVE",
"376 441 CURVE SMOOTH",
"222 441 OFFCURVE",
"115 333 OFFCURVE",
"115 176 CURVE SMOOTH"
);
}
);
vertWidth = 990;
width = 1000;
}
);
},
{
color = 3;
glyphname = p.rotat;
layers = (
{
layerId = "F446C85F-564E-4F2C-825C-C389DAA66B11";
paths = (
{
closed = 1;
nodes = (
"115 411 OFFCURVE",
"245 310 OFFCURVE",
"408 310 CURVE SMOOTH",
"567 310 OFFCURVE",
"685 405 OFFCURVE",
"685 532 CURVE SMOOTH",
"685 619 OFFCURVE",
"629 701 OFFCURVE",
"527 765 CURVE",
"487 694 LINE",
"559 667 OFFCURVE",
"603 623 OFFCURVE",
"603 578 CURVE SMOOTH",
"603 511 OFFCURVE",
"506 461 OFFCURVE",
"376 461 CURVE SMOOTH",
"262 461 OFFCURVE",
"195 498 OFFCURVE",
"195 561 CURVE SMOOTH",
"195 612 OFFCURVE",
"239 657 OFFCURVE",
"307 675 CURVE",
"233 770 LINE",
"160 701 OFFCURVE",
"115 612 OFFCURVE",
"115 538 CURVE SMOOTH"
);
},
{
closed = 1;
nodes = (
"96 660 OFFCURVE",
"466 658 OFFCURVE",
"677 658 CURVE",
"677 705 OFFCURVE",
"675 787 OFFCURVE",
"673 830 CURVE",
"463 830 OFFCURVE",
"100 828 OFFCURVE",
"7 825 CURVE",
"5 783 OFFCURVE",
"3 713 OFFCURVE",
"3 663 CURVE"
);
}
);
vertWidth = 600;
width = 1000;
}
);
},
{
color = 3;
glyphname = thorn.rotat;
layers = (
{
layerId = "F446C85F-564E-4F2C-825C-C389DAA66B11";
paths = (
{
closed = 1;
nodes = (
"115 411 OFFCURVE",
"245 310 OFFCURVE",
"408 310 CURVE SMOOTH",
"567 310 OFFCURVE",
"685 405 OFFCURVE",
"685 532 CURVE SMOOTH",
"685 619 OFFCURVE",
"629 701 OFFCURVE",
"527 765 CURVE",
"487 694 LINE",
"559 667 OFFCURVE",
"603 623 OFFCURVE",
"603 578 CURVE SMOOTH",
"603 511 OFFCURVE",
"506 461 OFFCURVE",
"376 461 CURVE SMOOTH",
"262 461 OFFCURVE",
"195 498 OFFCURVE",
"195 561 CURVE SMOOTH",
"195 612 OFFCURVE",
"239 657 OFFCURVE",
"307 675 CURVE",
"233 770 LINE",
"160 701 OFFCURVE",
"115 612 OFFCURVE",
"115 538 CURVE SMOOTH"
);
},
{
closed = 1;
nodes = (
"299 658 OFFCURVE",
"801 660 OFFCURVE",
"877 663 CURVE",
"877 732 OFFCURVE",
"876 785 OFFCURVE",
"873 825 CURVE",
"798 828 OFFCURVE",
"293 830 OFFCURVE",
"7 830 CURVE",
"5 774 OFFCURVE",
"3 700 OFFCURVE",
"3 658 CURVE"
);
}
);
vertWidth = 600;
width = 1000;
}
);
},
{
color = 3;
glyphname = q.rotat;
layers = (
{
layerId = "F446C85F-564E-4F2C-825C-C389DAA66B11";
paths = (
{
closed = 1;
nodes = (
"115 541 OFFCURVE",
"171 459 OFFCURVE",
"273 395 CURVE",
"313 466 LINE",
"241 493 OFFCURVE",
"197 537 OFFCURVE",
"197 582 CURVE SMOOTH",
"197 649 OFFCURVE",
"294 699 OFFCURVE",
"424 699 CURVE SMOOTH",
"538 699 OFFCURVE",
"605 662 OFFCURVE",
"605 599 CURVE SMOOTH",
"605 548 OFFCURVE",
"561 503 OFFCURVE",
"493 485 CURVE",
"567 390 LINE",
"640 459 OFFCURVE",
"685 548 OFFCURVE",
"685 622 CURVE SMOOTH",
"685 749 OFFCURVE",
"555 850 OFFCURVE",
"392 850 CURVE SMOOTH",
"233 850 OFFCURVE",
"115 755 OFFCURVE",
"115 628 CURVE SMOOTH"
);
},
{
closed = 1;
nodes = (
"3 457 OFFCURVE",
"5 375 OFFCURVE",
"7 330 CURVE",
"193 330 OFFCURVE",
"580 332 OFFCURVE",
"673 335 CURVE",
"675 383 OFFCURVE",
"677 452 OFFCURVE",
"677 497 CURVE",
"584 500 OFFCURVE",
"188 502 OFFCURVE",
"3 502 CURVE"
);
}
);
vertWidth = 600;
width = 1000;
}
);
},
{
color = 3;
glyphname = r.rotat;
layers = (
{
layerId = "F446C85F-564E-4F2C-825C-C389DAA66B11";
paths = (
{
closed = 1;
nodes = (
"446 433 OFFCURVE",
"460 378 OFFCURVE",
"477 325 CURVE",
"595 333 OFFCURVE",
"685 416 OFFCURVE",
"685 517 CURVE SMOOTH",
"685 606 OFFCURVE",
"614 709 OFFCURVE",
"508 774 CURVE",
"472 686 LINE",
"544 661 OFFCURVE",
"605 605 OFFCURVE",
"605 565 CURVE SMOOTH",
"605 520 OFFCURVE",
"528 481 OFFCURVE",
"438 481 CURVE"
);
},
{
closed = 1;
nodes = (
"202 680 OFFCURVE",
"429 678 OFFCURVE",
"677 678 CURVE",
"677 721 OFFCURVE",
"675 806 OFFCURVE",
"673 850 CURVE",
"435 850 OFFCURVE",
"202 848 OFFCURVE",
"122 845 CURVE",
"120 794 OFFCURVE",
"118 730 OFFCURVE",
"118 683 CURVE"
);
}
);
vertWidth = 585;
width = 1000;
}
);
},
{
color = 3;
glyphname = s.rotat;
layers = (
{
layerId = "F446C85F-564E-4F2C-825C-C389DAA66B11";
paths = (
{
closed = 1;
nodes = (
"115 411 OFFCURVE",
"193 300 OFFCURVE",
"301 300 CURVE SMOOTH",
"418 300 OFFCURVE",
"451 428 OFFCURVE",
"476 533 CURVE SMOOTH",
"493 604 OFFCURVE",
"509 665 OFFCURVE",
"547 665 CURVE SMOOTH",
"574 665 OFFCURVE",
"605 634 OFFCURVE",
"605 575 CURVE SMOOTH",
"605 514 OFFCURVE",
"571 445 OFFCURVE",
"525 371 CURVE",
"620 315 LINE",
"661 390 OFFCURVE",
"685 484 OFFCURVE",
"685 572 CURVE SMOOTH",
"685 734 OFFCURVE",
"604 835 OFFCURVE",
"515 835 CURVE SMOOTH",
"422 835 OFFCURVE",
"388 725 OFFCURVE",
"358 626 CURVE SMOOTH",
"333 544 OFFCURVE",
"309 470 OFFCURVE",
"258 470 CURVE SMOOTH",
"228 470 OFFCURVE",
"197 496 OFFCURVE",
"197 553 CURVE SMOOTH",
"197 618 OFFCURVE",
"237 731 OFFCURVE",
"282 806 CURVE",
"161 850 LINE",
"137 772 OFFCURVE",
"115 646 OFFCURVE",
"115 564 CURVE SMOOTH"
);
}
);
vertWidth = 610;
width = 1000;
}
);
},
{
color = 3;
glyphname = scaron.rotat;
layers = (
{
anchors = (
{
name = top;
position = "{800, 575}";
}
);
layerId = "F446C85F-564E-4F2C-825C-C389DAA66B11";
paths = (
{
closed = 1;
nodes = (
"115 411 OFFCURVE",
"193 300 OFFCURVE",
"301 300 CURVE SMOOTH",
"418 300 OFFCURVE",
"451 428 OFFCURVE",
"476 533 CURVE SMOOTH",
"493 604 OFFCURVE",
"509 665 OFFCURVE",
"547 665 CURVE SMOOTH",
"574 665 OFFCURVE",
"605 634 OFFCURVE",
"605 575 CURVE SMOOTH",
"605 514 OFFCURVE",
"571 445 OFFCURVE",
"525 371 CURVE",
"620 315 LINE",
"661 390 OFFCURVE",
"685 484 OFFCURVE",
"685 572 CURVE SMOOTH",
"685 734 OFFCURVE",
"604 835 OFFCURVE",
"515 835 CURVE SMOOTH",
"422 835 OFFCURVE",
"388 725 OFFCURVE",
"358 626 CURVE SMOOTH",
"333 544 OFFCURVE",
"309 470 OFFCURVE",
"258 470 CURVE SMOOTH",
"228 470 OFFCURVE",
"197 496 OFFCURVE",
"197 553 CURVE SMOOTH",
"197 618 OFFCURVE",
"237 731 OFFCURVE",
"282 806 CURVE",
"161 850 LINE",
"137 772 OFFCURVE",
"115 646 OFFCURVE",
"115 564 CURVE SMOOTH"
);
},
{
closed = 1;
nodes = (
"887 384 LINE",
"917 418 LINE",
"824 575 LINE",
"917 732 LINE",
"887 766 LINE",
"709 575 LINE"
);
}
);
vertWidth = 610;
width = 1000;
}
);
},
{
color = 3;
glyphname = germandbls.rotat;
layers = (
{
layerId = "F446C85F-564E-4F2C-825C-C389DAA66B11";
paths = (
{
closed = 1;
nodes = (
"110 431 OFFCURVE",
"241 300 OFFCURVE",
"376 300 CURVE SMOOTH",
"479 300 OFFCURVE",
"563 377 OFFCURVE",
"580 485 CURVE",
"614 378 OFFCURVE",
"666 325 OFFCURVE",
"739 325 CURVE SMOOTH",
"830 325 OFFCURVE",
"885 408 OFFCURVE",
"885 545 CURVE SMOOTH",
"885 755 OFFCURVE",
"754 830 OFFCURVE",
"388 830 CURVE SMOOTH",
"315 830 OFFCURVE",
"232 827 OFFCURVE",
"117 820 CURVE",
"117 766 OFFCURVE",
"119 709 OFFCURVE",
"123 658 CURVE",
"251 665 OFFCURVE",
"393 670 OFFCURVE",
"496 670 CURVE SMOOTH",
"726 670 OFFCURVE",
"805 645 OFFCURVE",
"805 572 CURVE SMOOTH",
"805 518 OFFCURVE",
"761 470 OFFCURVE",
"713 470 CURVE SMOOTH",
"654 470 OFFCURVE",
"609 543 OFFCURVE",
"574 695 CURVE",
"506 695 LINE",
"506 542 OFFCURVE",
"443 455 OFFCURVE",
"332 455 CURVE SMOOTH",
"250 455 OFFCURVE",
"194 503 OFFCURVE",
"180 584 CURVE",
"110 567 LINE"
);
}
);
vertWidth = 610;
width = 1000;
}
);
},
{
color = 3;
glyphname = t.rotat;
layers = (
{
layerId = "F446C85F-564E-4F2C-825C-C389DAA66B11";
paths = (
{
closed = 1;
nodes = (
"118 670 OFFCURVE",
"119 614 OFFCURVE",
"122 569 CURVE",
"205 566 OFFCURVE",
"611 564 OFFCURVE",
"873 564 CURVE",
"875 612 OFFCURVE",
"877 687 OFFCURVE",
"877 736 CURVE",
"599 736 OFFCURVE",
"200 734 OFFCURVE",
"118 731 CURVE"
);
},
{
closed = 1;
nodes = (
"594 456 LINE",
"686 450 LINE",
"686 850 LINE",
"594 844 LINE"
);
}
);
vertWidth = 460;
width = 1000;
}
);
},
{
color = 3;
glyphname = u.rotat;
layers = (
{
anchors = (
{
name = top;
position = "{800, 562}";
}
);
layerId = "F446C85F-564E-4F2C-825C-C389DAA66B11";
paths = (
{
closed = 1;
nodes = (
"115 526 OFFCURVE",
"176 427 OFFCURVE",
"292 340 CURVE",
"348 428 LINE",
"260 457 OFFCURVE",
"195 521 OFFCURVE",
"195 578 CURVE SMOOTH",
"195 646 OFFCURVE",
"288 678 OFFCURVE",
"494 678 CURVE SMOOTH",
"546 678 OFFCURVE",
"605 676 OFFCURVE",
"672 672 CURVE",
"672 759 OFFCURVE",
"671 812 OFFCURVE",
"668 844 CURVE",
"616 848 OFFCURVE",
"567 850 OFFCURVE",
"522 850 CURVE SMOOTH",
"249 850 OFFCURVE",
"115 776 OFFCURVE",
"115 627 CURVE SMOOTH"
);
},
{
closed = 1;
nodes = (
"118 395 OFFCURVE",
"119 337 OFFCURVE",
"122 285 CURVE",
"210 282 OFFCURVE",
"458 280 OFFCURVE",
"673 280 CURVE",
"675 323 OFFCURVE",
"677 398 OFFCURVE",
"677 452 CURVE",
"436 452 OFFCURVE",
"204 450 OFFCURVE",
"118 447 CURVE"
);
}
);
vertWidth = 630;
width = 1000;
}
);
},
{
color = 3;
glyphname = uacute.rotat;
layers = (
{
anchors = (
{
name = top;
position = "{800, 562}";
}
);
layerId = "F446C85F-564E-4F2C-825C-C389DAA66B11";
paths = (
{
closed = 1;
nodes = (
"115 526 OFFCURVE",
"176 427 OFFCURVE",
"292 340 CURVE",
"348 428 LINE",
"260 457 OFFCURVE",
"195 521 OFFCURVE",
"195 578 CURVE SMOOTH",
"195 646 OFFCURVE",
"288 678 OFFCURVE",
"494 678 CURVE SMOOTH",
"546 678 OFFCURVE",
"605 676 OFFCURVE",
"672 672 CURVE",
"672 759 OFFCURVE",
"671 812 OFFCURVE",
"668 844 CURVE",
"616 848 OFFCURVE",
"567 850 OFFCURVE",
"522 850 CURVE SMOOTH",
"249 850 OFFCURVE",
"115 776 OFFCURVE",
"115 627 CURVE SMOOTH"
);
},
{
closed = 1;
nodes = (
"118 395 OFFCURVE",
"119 337 OFFCURVE",
"122 285 CURVE",
"210 282 OFFCURVE",
"458 280 OFFCURVE",
"673 280 CURVE",
"675 323 OFFCURVE",
"677 398 OFFCURVE",
"677 452 CURVE",
"436 452 OFFCURVE",
"204 450 OFFCURVE",
"118 447 CURVE"
);
},
{
closed = 1;
nodes = (
"807 412 LINE",
"903 474 LINE",
"757 712 LINE",
"717 696 LINE"
);
}
);
vertWidth = 630;
width = 1000;
}
);
},
{
color = 3;
glyphname = ucircumflex.rotat;
layers = (
{
anchors = (
{
name = top;
position = "{800, 562}";
}
);
layerId = "F446C85F-564E-4F2C-825C-C389DAA66B11";
paths = (
{
closed = 1;
nodes = (
"115 526 OFFCURVE",
"176 427 OFFCURVE",
"292 340 CURVE",
"348 428 LINE",
"260 457 OFFCURVE",
"195 521 OFFCURVE",
"195 578 CURVE SMOOTH",
"195 646 OFFCURVE",
"288 678 OFFCURVE",
"494 678 CURVE SMOOTH",
"546 678 OFFCURVE",
"605 676 OFFCURVE",
"672 672 CURVE",
"672 759 OFFCURVE",
"671 812 OFFCURVE",
"668 844 CURVE",
"616 848 OFFCURVE",
"567 850 OFFCURVE",
"522 850 CURVE SMOOTH",
"249 850 OFFCURVE",
"115 776 OFFCURVE",
"115 627 CURVE SMOOTH"
);
},
{
closed = 1;
nodes = (
"118 395 OFFCURVE",
"119 337 OFFCURVE",
"122 285 CURVE",
"210 282 OFFCURVE",
"458 280 OFFCURVE",
"673 280 CURVE",
"675 323 OFFCURVE",
"677 398 OFFCURVE",
"677 452 CURVE",
"436 452 OFFCURVE",
"204 450 OFFCURVE",
"118 447 CURVE"
);
},
{
closed = 1;
nodes = (
"802 562 LINE",
"709 405 LINE",
"739 371 LINE",
"917 562 LINE",
"739 754 LINE",
"709 720 LINE"
);
}
);
vertWidth = 630;
width = 1000;
}
);
},
{
color = 3;
glyphname = udieresis.rotat;
layers = (
{
anchors = (
{
name = top;
position = "{800, 562}";
}
);
layerId = "F446C85F-564E-4F2C-825C-C389DAA66B11";
paths = (
{
closed = 1;
nodes = (
"115 526 OFFCURVE",
"176 427 OFFCURVE",
"292 340 CURVE",
"348 428 LINE",
"260 457 OFFCURVE",
"195 521 OFFCURVE",
"195 578 CURVE SMOOTH",
"195 646 OFFCURVE",
"288 678 OFFCURVE",
"494 678 CURVE SMOOTH",
"546 678 OFFCURVE",
"605 676 OFFCURVE",
"672 672 CURVE",
"672 759 OFFCURVE",
"671 812 OFFCURVE",
"668 844 CURVE",
"616 848 OFFCURVE",
"567 850 OFFCURVE",
"522 850 CURVE SMOOTH",
"249 850 OFFCURVE",
"115 776 OFFCURVE",
"115 627 CURVE SMOOTH"
);
},
{
closed = 1;
nodes = (
"118 395 OFFCURVE",
"119 337 OFFCURVE",
"122 285 CURVE",
"210 282 OFFCURVE",
"458 280 OFFCURVE",
"673 280 CURVE",
"675 323 OFFCURVE",
"677 398 OFFCURVE",
"677 452 CURVE",
"436 452 OFFCURVE",
"204 450 OFFCURVE",
"118 447 CURVE"
);
},
{
closed = 1;
nodes = (
"733 397 LINE",
"877 397 LINE",
"877 517 LINE",
"733 517 LINE"
);
},
{
closed = 1;
nodes = (
"733 607 LINE",
"877 607 LINE",
"877 727 LINE",
"733 727 LINE"
);
}
);
vertWidth = 630;
width = 1000;
}
);
},
{
color = 3;
glyphname = ugrave.rotat;
layers = (
{
anchors = (
{
name = top;
position = "{800, 562}";
}
);
layerId = "F446C85F-564E-4F2C-825C-C389DAA66B11";
paths = (
{
closed = 1;
nodes = (
"115 526 OFFCURVE",
"176 427 OFFCURVE",
"292 340 CURVE",
"348 428 LINE",
"260 457 OFFCURVE",
"195 521 OFFCURVE",
"195 578 CURVE SMOOTH",
"195 646 OFFCURVE",
"288 678 OFFCURVE",
"494 678 CURVE SMOOTH",
"546 678 OFFCURVE",
"605 676 OFFCURVE",
"672 672 CURVE",
"672 759 OFFCURVE",
"671 812 OFFCURVE",
"668 844 CURVE",
"616 848 OFFCURVE",
"567 850 OFFCURVE",
"522 850 CURVE SMOOTH",
"249 850 OFFCURVE",
"115 776 OFFCURVE",
"115 627 CURVE SMOOTH"
);
},
{
closed = 1;
nodes = (
"118 395 OFFCURVE",
"119 337 OFFCURVE",
"122 285 CURVE",
"210 282 OFFCURVE",
"458 280 OFFCURVE",
"673 280 CURVE",
"675 323 OFFCURVE",
"677 398 OFFCURVE",
"677 452 CURVE",
"436 452 OFFCURVE",
"204 450 OFFCURVE",
"118 447 CURVE"
);
},
{
closed = 1;
nodes = (
"757 412 LINE",
"903 650 LINE",
"807 712 LINE",
"717 428 LINE"
);
}
);
vertWidth = 630;
width = 1000;
}
);
},
{
color = 3;
glyphname = v.rotat;
layers = (
{
layerId = "F446C85F-564E-4F2C-825C-C389DAA66B11";
paths = (
{
closed = 1;
nodes = (
"111 600 OFFCURVE",
"114 542 OFFCURVE",
"119 491 CURVE",
"286 415 OFFCURVE",
"475 339 OFFCURVE",
"668 270 CURVE",
"682 376 LINE",
"538 413 OFFCURVE",
"381 465 OFFCURVE",
"234 525 CURVE",
"385 584 OFFCURVE",
"542 636 OFFCURVE",
"686 674 CURVE",
"683 722 OFFCURVE",
"676 790 OFFCURVE",
"664 870 CURVE",
"487 805 OFFCURVE",
"287 725 OFFCURVE",
"111 649 CURVE"
);
}
);
vertWidth = 620;
width = 1000;
}
);
},
{
color = 3;
glyphname = w.rotat;
layers = (
{
layerId = "F446C85F-564E-4F2C-825C-C389DAA66B11";
paths = (
{
closed = 1;
nodes = (
"256 523 OFFCURVE",
"460 467 OFFCURVE",
"667 420 CURVE",
"673 516 LINE",
"557 537 OFFCURVE",
"414 566 OFFCURVE",
"244 605 CURVE",
"376 637 OFFCURVE",
"537 670 OFFCURVE",
"681 694 CURVE",
"681 733 OFFCURVE",
"677 791 OFFCURVE",
"669 870 CURVE",
"500 832 OFFCURVE",
"269 768 OFFCURVE",
"123 719 CURVE",
"119 671 OFFCURVE",
"117 621 OFFCURVE",
"117 571 CURVE"
);
},
{
closed = 1;
nodes = (
"117 299 OFFCURVE",
"119 250 OFFCURVE",
"123 217 CURVE",
"264 170 OFFCURVE",
"471 113 OFFCURVE",
"672 66 CURVE",
"678 162 LINE",
"553 184 OFFCURVE",
"403 215 OFFCURVE",
"244 251 CURVE",
"374 283 OFFCURVE",
"530 315 OFFCURVE",
"677 340 CURVE",
"677 379 OFFCURVE",
"675 467 OFFCURVE",
"673 516 CURVE",
"505 479 OFFCURVE",
"273 416 OFFCURVE",
"117 365 CURVE"
);
}
);
vertWidth = 824;
width = 1000;
}
);
},
{
color = 3;
glyphname = x.rotat;
layers = (
{
layerId = "F446C85F-564E-4F2C-825C-C389DAA66B11";
paths = (
{
closed = 1;
nodes = (
"112 388 OFFCURVE",
"118 313 OFFCURVE",
"128 260 CURVE",
"222 315 OFFCURVE",
"550 553 OFFCURVE",
"686 664 CURVE",
"684 713 OFFCURVE",
"674 813 OFFCURVE",
"664 870 CURVE",
"500 733 OFFCURVE",
"295 576 OFFCURVE",
"112 449 CURVE"
);
},
{
closed = 1;
nodes = (
"272 623 OFFCURVE",
"541 404 OFFCURVE",
"669 290 CURVE",
"681 409 LINE",
"524 544 OFFCURVE",
"249 762 OFFCURVE",
"123 850 CURVE",
"117 740 LINE"
);
}
);
vertWidth = 630;
width = 1000;
}
);
},
{
color = 3;
glyphname = y.rotat;
layers = (
{
anchors = (
{
name = top;
position = "{800, 530}";
}
);
layerId = "F446C85F-564E-4F2C-825C-C389DAA66B11";
paths = (
{
closed = 1;
nodes = (
"0 546 OFFCURVE",
"187 400 OFFCURVE",
"668 270 CURVE",
"682 391 LINE",
"195 510 OFFCURVE",
"97 578 OFFCURVE",
"82 810 CURVE",
"-12 800 LINE"
);
},
{
closed = 1;
nodes = (
"194 486 LINE",
"382 564 OFFCURVE",
"567 635 OFFCURVE",
"686 674 CURVE",
"681 744 OFFCURVE",
"672 822 OFFCURVE",
"664 870 CURVE",
"505 812 OFFCURVE",
"282 714 OFFCURVE",
"111 629 CURVE"
);
}
);
vertWidth = 620;
width = 1000;
}
);
},
{
color = 3;
glyphname = yacute.rotat;
layers = (
{
anchors = (
{
name = top;
position = "{800, 530}";
}
);
layerId = "F446C85F-564E-4F2C-825C-C389DAA66B11";
paths = (
{
closed = 1;
nodes = (
"0 546 OFFCURVE",
"187 400 OFFCURVE",
"668 270 CURVE",
"682 391 LINE",
"195 510 OFFCURVE",
"97 578 OFFCURVE",
"82 810 CURVE",
"-12 800 LINE"
);
},
{
closed = 1;
nodes = (
"194 486 LINE",
"382 564 OFFCURVE",
"567 635 OFFCURVE",
"686 674 CURVE",
"681 744 OFFCURVE",
"672 822 OFFCURVE",
"664 870 CURVE",
"505 812 OFFCURVE",
"282 714 OFFCURVE",
"111 629 CURVE"
);
},
{
closed = 1;
nodes = (
"807 380 LINE",
"903 442 LINE",
"757 680 LINE",
"717 664 LINE"
);
}
);
vertWidth = 620;
width = 1000;
}
);
},
{
color = 3;
glyphname = ydieresis.rotat;
layers = (
{
anchors = (
{
name = top;
position = "{800, 530}";
}
);
layerId = "F446C85F-564E-4F2C-825C-C389DAA66B11";
paths = (
{
closed = 1;
nodes = (
"0 546 OFFCURVE",
"187 400 OFFCURVE",
"668 270 CURVE",
"682 391 LINE",
"195 510 OFFCURVE",
"97 578 OFFCURVE",
"82 810 CURVE",
"-12 800 LINE"
);
},
{
closed = 1;
nodes = (
"194 486 LINE",
"382 564 OFFCURVE",
"567 635 OFFCURVE",
"686 674 CURVE",
"681 744 OFFCURVE",
"672 822 OFFCURVE",
"664 870 CURVE",
"505 812 OFFCURVE",
"282 714 OFFCURVE",
"111 629 CURVE"
);
},
{
closed = 1;
nodes = (
"733 365 LINE",
"877 365 LINE",
"877 485 LINE",
"733 485 LINE"
);
},
{
closed = 1;
nodes = (
"733 575 LINE",
"877 575 LINE",
"877 695 LINE",
"733 695 LINE"
);
}
);
vertWidth = 620;
width = 1000;
}
);
},
{
color = 3;
glyphname = z.rotat;
layers = (
{
layerId = "F446C85F-564E-4F2C-825C-C389DAA66B11";
paths = (
{
closed = 1;
nodes = (
"211 306 LINE",
"202 397 OFFCURVE",
"194 529 OFFCURVE",
"194 653 CURVE",
"311 538 OFFCURVE",
"465 398 OFFCURVE",
"573 308 CURVE",
"670 329 LINE",
"676 402 OFFCURVE",
"680 619 OFFCURVE",
"680 842 CURVE",
"585 835 LINE",
"593 756 OFFCURVE",
"602 617 OFFCURVE",
"602 507 CURVE",
"476 604 OFFCURVE",
"306 758 OFFCURVE",
"223 850 CURVE",
"124 831 LINE",
"119 751 OFFCURVE",
"116 539 OFFCURVE",
"116 300 CURVE"
);
}
);
vertWidth = 610;
width = 1000;
}
);
},
{
color = 3;
glyphname = zcaron.rotat;
layers = (
{
anchors = (
{
name = top;
position = "{800, 575}";
}
);
layerId = "F446C85F-564E-4F2C-825C-C389DAA66B11";
paths = (
{
closed = 1;
nodes = (
"211 306 LINE",
"202 397 OFFCURVE",
"194 529 OFFCURVE",
"194 653 CURVE",
"311 538 OFFCURVE",
"465 398 OFFCURVE",
"573 308 CURVE",
"670 329 LINE",
"676 402 OFFCURVE",
"680 619 OFFCURVE",
"680 842 CURVE",
"585 835 LINE",
"593 756 OFFCURVE",
"602 617 OFFCURVE",
"602 507 CURVE",
"476 604 OFFCURVE",
"306 758 OFFCURVE",
"223 850 CURVE",
"124 831 LINE",
"119 751 OFFCURVE",
"116 539 OFFCURVE",
"116 300 CURVE"
);
},
{
closed = 1;
nodes = (
"887 384 LINE",
"917 418 LINE",
"824 575 LINE",
"917 732 LINE",
"887 766 LINE",
"709 575 LINE"
);
}
);
vertWidth = 610;
width = 1000;
}
);
},
{
glyphname = s.full;
layers = (
{
layerId = "F446C85F-564E-4F2C-825C-C389DAA66B11";
paths = (
{
closed = 1;
nodes = (
"510 -17 OFFCURVE",
"627 64 OFFCURVE",
"627 175 CURVE SMOOTH",
"627 296 OFFCURVE",
"492 329 OFFCURVE",
"382 355 CURVE SMOOTH",
"308 373 OFFCURVE",
"244 389 OFFCURVE",
"244 428 CURVE SMOOTH",
"244 456 OFFCURVE",
"276 488 OFFCURVE",
"338 488 CURVE SMOOTH",
"402 488 OFFCURVE",
"474 453 OFFCURVE",
"552 406 CURVE",
"611 504 LINE",
"532 546 OFFCURVE",
"433 571 OFFCURVE",
"341 571 CURVE SMOOTH",
"171 571 OFFCURVE",
"65 487 OFFCURVE",
"65 395 CURVE SMOOTH",
"65 300 OFFCURVE",
"181 265 OFFCURVE",
"284 234 CURVE SMOOTH",
"371 208 OFFCURVE",
"448 183 OFFCURVE",
"448 131 CURVE SMOOTH",
"448 100 OFFCURVE",
"421 68 OFFCURVE",
"361 68 CURVE SMOOTH",
"293 68 OFFCURVE",
"174 109 OFFCURVE",
"96 155 CURVE",
"50 31 LINE",
"131 6 OFFCURVE",
"264 -17 OFFCURVE",
"350 -17 CURVE SMOOTH"
);
}
);
width = 677;
}
);
leftKerningGroup = s;
rightKerningGroup = s;
unicode = FF53;
},
{
glyphname = t.full;
layers = (
{
layerId = "F446C85F-564E-4F2C-825C-C389DAA66B11";
paths = (
{
closed = 1;
nodes = (
"239 -12 OFFCURVE",
"298 -11 OFFCURVE",
"345 -8 CURVE",
"348 77 OFFCURVE",
"350 495 OFFCURVE",
"350 765 CURVE",
"300 767 OFFCURVE",
"221 770 OFFCURVE",
"170 770 CURVE",
"170 483 OFFCURVE",
"172 72 OFFCURVE",
"175 -12 CURVE"
);
},
{
closed = 1;
nodes = (
"464 478 LINE",
"470 573 LINE",
"50 573 LINE",
"56 478 LINE"
);
}
);
width = 520;
}
);
leftKerningGroup = t;
rightKerningGroup = t;
unicode = FF54;
},
